<svg width="322" height="29" viewBox="0 0 322 29" fill="none" xmlns="http://www.w3.org/2000/svg">
<path d="M32 14.4961H93.5" stroke="#D8D8D8" stroke-dasharray="2 2"/>
<path d="M131 14.4961H192.5" stroke="#D8D8D8" stroke-dasharray="2 2"/>
<path d="M228 14.4961H289.5" stroke="#D8D8D8" stroke-dasharray="2 2"/>
<path d="M14.5 27.9961C21.925 27.9961 28 21.9211 28 14.4961C28 7.07109 21.925 0.996094 14.5 0.996094C7.075 0.996094 1 7.07109 1 14.4961C1 21.9211 7.075 27.9961 14.5 27.9961Z" stroke="#1E98C7" stroke-width="1.5" stroke-linecap="round" stroke-linejoin="round"/>
<path d="M8.76562 14.4962L12.5861 18.3167L20.2406 10.6758" stroke="#1E98C7" stroke-width="3" stroke-linecap="round" stroke-linejoin="round"/>
<path d="M112.5 27.9961C119.925 27.9961 126 21.9211 126 14.4961C126 7.07109 119.925 0.996094 112.5 0.996094C105.075 0.996094 99 7.07109 99 14.4961C99 21.9211 105.075 27.9961 112.5 27.9961Z" stroke="#1E98C7" stroke-width="1.5" stroke-linecap="round" stroke-linejoin="round"/>
<path d="M106.766 14.4962L110.586 18.3167L118.241 10.6758" stroke="#1E98C7" stroke-width="3" stroke-linecap="round" stroke-linejoin="round"/>
<path d="M210.5 27.9961C217.925 27.9961 224 21.9211 224 14.4961C224 7.07109 217.925 0.996094 210.5 0.996094C203.075 0.996094 197 7.07109 197 14.4961C197 21.9211 203.075 27.9961 210.5 27.9961Z" stroke="#1E98C7" stroke-width="1.5" stroke-linecap="round" stroke-linejoin="round"/>
<path d="M204.766 14.4962L208.586 18.3167L216.241 10.6758" stroke="#1E98C7" stroke-width="3" stroke-linecap="round" stroke-linejoin="round"/>
<path d="M307.5 27.9961C314.925 27.9961 321 21.9211 321 14.4961C321 7.07109 314.925 0.996094 307.5 0.996094C300.075 0.996094 294 7.07109 294 14.4961C294 21.9211 300.075 27.9961 307.5 27.9961Z" stroke="#1E98C7" stroke-width="1.5" stroke-linecap="round" stroke-linejoin="round"/>
<path d="M301.766 14.4962L305.586 18.3167L313.241 10.6758" stroke="#1E98C7" stroke-width="3" stroke-linecap="round" stroke-linejoin="round"/>
</svg>
