<svg width="322" height="41" viewBox="0 0 322 41" fill="none" xmlns="http://www.w3.org/2000/svg">
<path d="M32 20.4961H93.5" stroke="#D8D8D8" stroke-dasharray="2 2"/>
<path d="M131 20.4961H192.5" stroke="#D8D8D8" stroke-dasharray="2 2"/>
<path d="M228 20.4961H289.5" stroke="#D8D8D8" stroke-dasharray="2 2"/>
<path d="M14.5 33.9961C21.925 33.9961 28 27.9211 28 20.4961C28 13.0711 21.925 6.99609 14.5 6.99609C7.075 6.99609 1 13.0711 1 20.4961C1 27.9211 7.075 33.9961 14.5 33.9961Z" stroke="#1E98C7" stroke-width="1.5" stroke-linecap="round" stroke-linejoin="round"/>
<path d="M8.76562 20.4962L12.5861 24.3167L20.2406 16.6758" stroke="#1E98C7" stroke-width="3" stroke-linecap="round" stroke-linejoin="round"/>
<path d="M307.5 33.9961C314.925 33.9961 321 27.9211 321 20.4961C321 13.0711 314.925 6.99609 307.5 6.99609C300.075 6.99609 294 13.0711 294 20.4961C294 27.9211 300.075 33.9961 307.5 33.9961Z" stroke="#DCDCDC" stroke-width="1.5" stroke-linecap="round" stroke-linejoin="round"/>
<path d="M301.766 20.4962L305.586 24.3167L313.241 16.6758" stroke="#DCDCDC" stroke-width="3" stroke-linecap="round" stroke-linejoin="round"/>
<mask id="mask0_150_4" style="mask-type:alpha" maskUnits="userSpaceOnUse" x="190" y="0" width="41" height="41">
<rect x="209.887" y="40.9922" width="29" height="29" transform="rotate(-133.299 209.887 40.9922)" fill="#D9D9D9"/>
</mask>
<g mask="url(#mask0_150_4)">
<path d="M208.599 5.85035L209.299 8.6989C209.746 8.68966 210.183 8.66726 210.621 8.67399C214.924 8.74076 218.981 11.3357 220.897 15.2416C223.554 20.6572 221.746 27.0622 216.685 30.1043C216.123 30.4424 215.505 30.6894 214.909 30.9718C214.83 31.0094 214.779 31.0298 214.805 31.134C215.027 32.0194 215.245 32.9057 215.464 33.7917C215.467 33.8025 215.476 33.8119 215.507 33.8632C219.333 32.4842 222.124 29.9659 223.783 26.2347C226.022 21.1974 225.136 15.2281 221.466 10.9969C218.051 7.05896 213.72 5.42685 208.599 5.85027L208.599 5.85035Z" fill="#1E98C7"/>
<path d="M211.977 31.6538C210.953 31.7476 209.942 31.7087 208.933 31.532C207.923 31.3553 206.953 31.0446 206.035 30.6225C205.537 31.4426 205.048 32.248 204.551 33.0663C207.126 34.3311 209.827 34.8237 212.676 34.4961L211.977 31.6538Z" fill="#1E98C7"/>
<path d="M202.057 31.5072C202.094 31.4536 202.119 31.4214 202.14 31.3867C202.582 30.6599 203.022 29.9318 203.467 29.2064C203.526 29.1107 203.536 29.0535 203.436 28.9708C202.112 27.8671 201.079 26.535 200.329 24.9843C200.288 24.8981 200.25 24.8655 200.154 24.8951C199.296 25.1589 198.436 25.4189 197.576 25.6804C197.566 25.6834 197.558 25.6945 197.526 25.7201C198.541 28.0234 200.053 29.9408 202.057 31.5068L202.057 31.5072Z" fill="#1E98C7"/>
<path d="M196.565 17.2311C196.212 19.1356 196.233 21.0162 196.638 22.9321C197.556 22.6522 198.462 22.3763 199.335 22.1098C199.282 21.423 199.197 20.7632 199.188 20.1044C199.179 19.4453 199.244 18.7866 199.278 18.0943C198.41 17.818 197.501 17.5291 196.564 17.2315L196.565 17.2311Z" fill="#1E98C7"/>
<path d="M201.567 12.8762C200.928 12.2184 200.258 11.5285 199.566 10.8162C198.65 11.9305 197.925 13.1402 197.373 14.4841C198.295 14.7763 199.205 15.0645 200.078 15.3408C200.575 14.5185 201.061 13.7132 201.567 12.8762Z" fill="#1E98C7"/>
</g>
<path d="M112.5 33.9961C119.925 33.9961 126 27.9211 126 20.4961C126 13.0711 119.925 6.99609 112.5 6.99609C105.075 6.99609 99 13.0711 99 20.4961C99 27.9211 105.075 33.9961 112.5 33.9961Z" stroke="#1E98C7" stroke-width="1.5" stroke-linecap="round" stroke-linejoin="round"/>
<path d="M106.766 20.4962L110.586 24.3167L118.241 16.6758" stroke="#1E98C7" stroke-width="3" stroke-linecap="round" stroke-linejoin="round"/>
</svg>
