<svg width="322" height="41" viewBox="0 0 322 41" fill="none" xmlns="http://www.w3.org/2000/svg">
<path d="M32 20.4971H93.5" stroke="#D8D8D8" stroke-dasharray="2 2"/>
<path d="M131 20.4971H192.5" stroke="#D8D8D8" stroke-dasharray="2 2"/>
<path d="M228 20.4971H289.5" stroke="#D8D8D8" stroke-dasharray="2 2"/>
<path d="M14.5 33.9971C21.925 33.9971 28 27.9221 28 20.4971C28 13.0721 21.925 6.99707 14.5 6.99707C7.075 6.99707 1 13.0721 1 20.4971C1 27.9221 7.075 33.9971 14.5 33.9971Z" stroke="#1E98C7" stroke-width="1.5" stroke-linecap="round" stroke-linejoin="round"/>
<path d="M8.76562 20.4972L12.5861 24.3177L20.2406 16.6768" stroke="#1E98C7" stroke-width="3" stroke-linecap="round" stroke-linejoin="round"/>
<path d="M210.5 33.9971C217.925 33.9971 224 27.9221 224 20.4971C224 13.0721 217.925 6.99707 210.5 6.99707C203.075 6.99707 197 13.0721 197 20.4971C197 27.9221 203.075 33.9971 210.5 33.9971Z" stroke="#DCDCDC" stroke-width="1.5" stroke-linecap="round" stroke-linejoin="round"/>
<path d="M204.766 20.4972L208.586 24.3177L216.241 16.6768" stroke="#DCDCDC" stroke-width="3" stroke-linecap="round" stroke-linejoin="round"/>
<path d="M307.5 33.9971C314.925 33.9971 321 27.9221 321 20.4971C321 13.0721 314.925 6.99707 307.5 6.99707C300.075 6.99707 294 13.0721 294 20.4971C294 27.9221 300.075 33.9971 307.5 33.9971Z" stroke="#DCDCDC" stroke-width="1.5" stroke-linecap="round" stroke-linejoin="round"/>
<path d="M301.766 20.4972L305.586 24.3177L313.241 16.6768" stroke="#DCDCDC" stroke-width="3" stroke-linecap="round" stroke-linejoin="round"/>
<mask id="mask0_322_8035" style="mask-type:alpha" maskUnits="userSpaceOnUse" x="92" y="0" width="41" height="41">
<rect x="111.895" y="40.9941" width="29" height="29" transform="rotate(-133.299 111.895 40.9941)" fill="#D9D9D9"/>
</mask>
<g mask="url(#mask0_322_8035)">
<path d="M110.607 5.84937L111.307 8.69792C111.753 8.68868 112.191 8.66628 112.629 8.67302C116.932 8.73978 120.989 11.3347 122.905 15.2406C125.562 20.6562 123.753 27.0612 118.693 30.1033C118.131 30.4414 117.512 30.6884 116.917 30.9708C116.838 31.0084 116.787 31.0288 116.813 31.133C117.035 32.0184 117.252 32.9047 117.472 33.7907C117.474 33.8016 117.484 33.8109 117.515 33.8622C121.341 32.4832 124.132 29.9649 125.791 26.2337C128.03 21.1964 127.144 15.2272 123.474 10.9959C120.059 7.05798 115.728 5.42587 110.607 5.84929L110.607 5.84937Z" fill="#1E98C7"/>
<path d="M113.985 31.6558C112.961 31.7495 111.95 31.7107 110.941 31.5339C109.931 31.3572 108.961 31.0465 108.043 30.6245C107.545 31.4445 107.056 32.25 106.559 33.0682C109.134 34.333 111.835 34.8257 114.684 34.498L113.985 31.6558Z" fill="#1E98C7"/>
<path d="M104.065 31.5091C104.102 31.4556 104.127 31.4234 104.148 31.3887C104.59 30.6619 105.03 29.9337 105.475 29.2084C105.534 29.1127 105.543 29.0555 105.444 28.9727C104.119 27.869 103.087 26.5369 102.337 24.9862C102.295 24.9 102.258 24.8675 102.162 24.897C101.303 25.1609 100.444 25.4209 99.584 25.6823C99.5738 25.6854 99.5659 25.6964 99.5342 25.7221C100.549 28.0254 102.061 29.9428 104.064 31.5088L104.065 31.5091Z" fill="#1E98C7"/>
<path d="M98.5723 17.2301C98.2196 19.1346 98.2411 21.0152 98.646 22.9312C99.5642 22.6512 100.47 22.3753 101.343 22.1088C101.29 21.4221 101.205 20.7622 101.196 20.1034C101.186 19.4443 101.252 18.7856 101.286 18.0933C100.418 17.817 99.509 17.5282 98.5721 17.2305L98.5723 17.2301Z" fill="#1E98C7"/>
<path d="M103.575 12.8772C102.936 12.2194 102.266 11.5295 101.574 10.8172C100.658 11.9315 99.9324 13.1412 99.3803 14.4851C100.302 14.7772 101.213 15.0654 102.085 15.3418C102.582 14.5194 103.069 13.7141 103.575 12.8772Z" fill="#1E98C7"/>
</g>
</svg>
