<svg width="11" height="20" viewBox="0 0 11 20" fill="none" xmlns="http://www.w3.org/2000/svg">
<path d="M10.3759 9.36747L2.40892 1.41447C2.27858 1.28315 2.12366 1.17878 1.95299 1.10733C1.78232 1.03589 1.59924 0.998753 1.41422 0.998057C1.2292 0.99736 1.04586 1.03311 0.874653 1.10327C0.70345 1.17344 0.547742 1.27663 0.41642 1.40697C0.285099 1.5373 0.180734 1.69223 0.109286 1.8629C0.037838 2.03357 0.000706419 2.21664 9.982e-06 2.40166C-0.000686455 2.58668 0.035066 2.77003 0.105227 2.94123C0.175388 3.11244 0.278583 3.26815 0.40892 3.39947L7.37692 10.4375L0.410921 17.4045C0.147693 17.6697 0.000603314 18.0286 0.00200984 18.4023C0.00341636 18.7759 0.153204 19.1337 0.41842 19.397C0.683637 19.6602 1.04256 19.8073 1.41622 19.8059C1.78989 19.8045 2.14769 19.6547 2.41092 19.3895L10.3779 11.4365C10.5207 11.3046 10.6347 11.1446 10.7126 10.9666C10.7906 10.7886 10.8308 10.5963 10.8308 10.402C10.8308 10.2076 10.7906 10.0154 10.7126 9.83733C10.6347 9.65928 10.5207 9.49931 10.3779 9.36747H10.3759Z" fill="#0B91C5"/>
</svg>
