<svg width="1920" height="1248" viewBox="0 0 1920 1248" fill="none" xmlns="http://www.w3.org/2000/svg">
<rect width="1920" height="626" fill="url(#paint0_linear_30_3)"/>
<rect x="1920" y="1248" width="1920" height="626" transform="rotate(-180 1920 1248)" fill="url(#paint1_linear_30_3)"/>
<path opacity="0.47" d="M1269.84 583.412L1275.28 554L1282.74 583.412L1279.14 580.875L1284 597.681L1278.55 591.419V611H1275.28V591.419L1269 597.681L1273.02 580.875L1269.84 583.412Z" stroke="#8DCCE7" stroke-width="2" stroke-linecap="round"/>
<path opacity="0.47" d="M1386.45 587.147L1395.89 534L1408.82 587.147L1402.58 582.563L1411 612.933L1401.56 601.616V637H1395.89V601.616L1385 612.933L1391.97 582.563L1386.45 587.147Z" stroke="#8DCCE7" stroke-width="3" stroke-linecap="round"/>
<path opacity="0.47" d="M519.117 610.764L526.38 570L536.324 610.764L531.52 607.248L538 630.541L530.737 621.861V649H526.38V621.861L518 630.541L523.363 607.248L519.117 610.764Z" stroke="#48B1D8" stroke-width="2" stroke-linecap="round"/>
<path opacity="0.47" d="M616.006 628.088L622.542 593L631.492 628.088L627.168 625.061L633 645.111L626.464 637.64V661H622.542V637.64L615 645.111L619.827 625.061L616.006 628.088Z" stroke="#3894BB" stroke-width="2" stroke-linecap="round"/>
<g opacity="0.34">
<path d="M1502.03 511.658C1502.03 512.881 1501.9 514.127 1502.09 515.325C1502.18 515.913 1502.88 516.89 1503.25 516.864C1504.85 516.765 1506.93 518.015 1507.88 515.501C1507.99 515.215 1508.97 515.159 1509.55 515.156C1517.63 515.134 1525.71 515.141 1533.79 515.141C1567.1 515.141 1600.41 515.141 1633.72 515.145C1634.76 515.145 1635.55 515.126 1636.41 516.28C1637 517.067 1639.1 516.931 1640.49 516.809C1640.91 516.773 1641.48 515.428 1641.53 514.652C1641.67 512.459 1641.56 510.246 1641.59 508.042C1641.61 506.814 1641.05 506.146 1639.82 506.26C1638.32 506.399 1636.37 505.451 1635.68 507.865C1635.61 508.089 1634.55 508.097 1633.96 508.101C1619.28 508.115 1604.59 508.115 1589.91 508.115C1563.33 508.115 1536.74 508.115 1510.16 508.108C1509.04 508.108 1508.19 508.123 1507.26 506.91C1506.65 506.113 1504.45 506.355 1502.99 506.469C1502.61 506.498 1502.18 507.784 1502.06 508.538C1501.9 509.556 1502.02 510.614 1502.02 511.654H1502.03L1502.03 511.658Z" fill="#328FB8"/>
<path d="M1545.69 571.74C1553.34 571.74 1560.98 571.748 1568.62 571.737C1574.27 571.729 1578.09 568.143 1578.15 562.517C1578.25 554.073 1578.24 545.625 1578.15 537.181C1578.1 531.923 1574.31 528.141 1569 528.119C1553.34 528.053 1537.69 528.05 1522.03 528.119C1516.71 528.145 1513.05 531.941 1513.02 537.251C1512.98 545.695 1512.98 554.139 1513.02 562.587C1513.05 568.066 1516.84 571.722 1522.39 571.733C1530.15 571.748 1537.92 571.737 1545.69 571.733L1545.69 571.74ZM1545.54 567.36C1537.89 567.36 1530.24 567.368 1522.6 567.36C1519.17 567.357 1517.4 565.732 1517.38 562.355C1517.33 554.091 1517.33 545.824 1517.38 537.559C1517.4 534.197 1519.19 532.481 1522.56 532.477C1537.92 532.463 1553.27 532.463 1568.63 532.477C1571.93 532.477 1573.77 534.318 1573.78 537.611C1573.8 545.754 1573.81 553.897 1573.79 562.039C1573.78 565.714 1572.06 567.357 1568.3 567.36C1560.72 567.368 1553.13 567.36 1545.54 567.36H1545.54Z" fill="#328FB8"/>
<path d="M1669.41 568.032C1675.63 568.032 1681.86 568.04 1688.09 568.032C1693.21 568.025 1695.51 564.508 1693.35 559.933C1689.53 551.798 1685.66 543.684 1681.88 535.527C1680.71 532.995 1678.86 531.845 1676.08 531.86C1667.45 531.896 1658.81 531.848 1650.18 531.882C1646.28 531.896 1644.36 533.756 1644.33 537.632C1644.28 545.834 1644.28 554.036 1644.33 562.237C1644.35 566.11 1646.41 568.025 1650.36 568.028C1656.71 568.04 1663.06 568.028 1669.41 568.028V568.032ZM1669.33 563.656C1663.1 563.656 1656.87 563.608 1650.65 563.689C1649.07 563.707 1648.63 563.149 1648.64 561.668C1648.69 553.834 1648.69 545.996 1648.64 538.158C1648.63 536.614 1649.2 536.159 1650.71 536.166C1659.03 536.221 1667.36 536.218 1675.68 536.166C1676.93 536.159 1677.55 536.618 1678.06 537.702C1681.78 545.683 1685.56 553.639 1689.3 561.609C1690.11 563.325 1689.9 563.645 1688.01 563.648C1681.78 563.659 1675.56 563.652 1669.33 563.652L1669.33 563.656Z" fill="#328FB8"/>
<path d="M1682.83 519.744C1688.5 519.744 1694.17 519.755 1699.84 519.741C1704.24 519.73 1706.3 517.683 1706.3 513.354C1706.3 511.517 1706.33 509.683 1706.28 507.846C1706.21 504.741 1703.91 502.367 1700.77 502.356C1688.81 502.308 1676.85 502.312 1664.9 502.353C1661.6 502.364 1659.36 504.679 1659.31 507.931C1659.28 509.827 1659.3 511.723 1659.31 513.622C1659.32 517.62 1661.39 519.719 1665.45 519.741C1671.25 519.774 1677.04 519.748 1682.83 519.748L1682.83 519.744ZM1682.76 506.714C1688.44 506.714 1694.12 506.762 1699.79 506.685C1701.43 506.663 1702.01 507.232 1701.9 508.82C1701.8 510.22 1701.89 511.635 1701.88 513.046C1701.87 515.302 1701.75 515.434 1699.46 515.438C1690.58 515.445 1681.7 515.441 1672.82 515.441C1670.54 515.441 1668.25 515.383 1665.97 515.46C1664.36 515.519 1663.54 515.048 1663.68 513.277C1663.81 511.756 1663.79 510.212 1663.69 508.688C1663.59 507.141 1664.22 506.67 1665.73 506.689C1671.41 506.751 1677.08 506.714 1682.76 506.714H1682.76Z" fill="#328FB8"/>
<path d="M1607.88 577.457C1607.87 579.39 1609.42 580.945 1611.38 580.956C1613.36 580.97 1614.9 579.46 1614.91 577.505C1614.92 575.561 1613.38 573.992 1611.43 573.978C1609.5 573.967 1607.9 575.536 1607.88 577.457H1607.88Z" fill="#328FB8"/>
<path d="M1694.21 630.228C1694.27 635.604 1698.85 640.098 1704.18 640.01C1709.61 639.918 1714.1 635.358 1713.97 630.063C1713.84 624.705 1709.46 620.406 1704.11 620.388C1698.75 620.366 1694.15 624.937 1694.21 630.228ZM1698.61 630.353C1698.47 627.553 1700.9 624.937 1703.83 624.742C1706.73 624.551 1709.46 627.053 1709.59 630.023C1709.71 632.848 1707.29 635.443 1704.35 635.634C1701.46 635.825 1698.76 633.341 1698.61 630.35V630.353Z" fill="#328FB8"/>
<path d="M1555.36 630.158C1555.34 624.705 1550.91 620.322 1545.47 620.391C1540.04 620.461 1535.66 624.919 1535.7 630.32C1535.75 635.593 1540.24 640.01 1545.54 640.006C1551 640.003 1555.37 635.619 1555.35 630.158H1555.36ZM1550.96 630.276C1550.92 633.234 1548.51 635.634 1545.55 635.641C1542.55 635.652 1540.08 633.139 1540.12 630.103C1540.15 627.175 1542.62 624.738 1545.55 624.731C1548.56 624.724 1551 627.223 1550.96 630.276V630.276Z" fill="#328FB8"/>
<path d="M1553.09 494.074V488.749C1556.59 488.749 1559.97 488.819 1563.34 488.698C1564.12 488.669 1565.2 488.176 1565.57 487.559C1566.34 486.288 1565.28 485.034 1563.53 485.02C1559.52 484.987 1555.51 485.005 1551.5 485.005C1532.93 485.005 1514.37 485.005 1495.8 485.005C1495.43 485.005 1495.06 485.001 1494.69 485.012C1493.53 485.053 1492.8 485.63 1492.77 486.798C1492.73 488.062 1493.46 488.72 1494.72 488.727C1497.62 488.749 1500.51 488.738 1503.41 488.742C1504.07 488.742 1504.74 488.742 1505.52 488.742V494.203C1503.32 494.203 1501.18 494.203 1499.04 494.203C1494.85 494.203 1490.65 494.239 1486.46 494.162C1485.9 494.151 1485.09 493.703 1484.83 493.225C1482.66 489.231 1478.91 487.269 1474.96 488.195C1470.59 489.22 1468 492.586 1468 497.337C1467.99 513.443 1468 529.548 1468 545.654C1468 564.7 1468 583.745 1468 602.787C1468 603.275 1468 603.768 1468 604.256C1468.02 605.572 1468.49 606.623 1469.97 606.627C1471.49 606.63 1471.86 605.502 1471.91 604.227C1471.92 603.624 1471.91 603.025 1471.91 602.331H1477.19C1477.19 606.119 1477.31 609.838 1477.16 613.549C1477.05 616.471 1478.23 618.393 1480.76 619.807C1486.92 623.254 1492.99 626.881 1499.18 630.28C1500.57 631.041 1502.3 631.511 1503.88 631.548C1510.41 631.687 1516.95 631.606 1523.49 631.606C1524.16 631.606 1524.83 631.606 1525.59 631.606C1526.27 637.372 1528.65 642.13 1533.17 645.691C1536.98 648.69 1541.36 650.137 1546.22 649.99C1554.59 649.737 1563.98 643.828 1565.53 631.731H1684.15C1684.84 637.673 1687.44 642.582 1692.32 646.158C1695.9 648.781 1699.97 650.042 1704.42 650.001C1714.32 649.91 1720.69 644.038 1724.19 631.606C1725.76 631.606 1727.4 631.606 1729.04 631.606C1733.36 631.606 1737.67 631.621 1741.99 631.603C1745.75 631.584 1747.92 629.556 1747.97 625.87C1748.04 621.035 1747.98 616.195 1747.96 611.359C1747.95 608.931 1746.87 607.196 1744.61 606.101C1744.1 605.851 1743.61 604.955 1743.6 604.352C1743.51 597.741 1743.52 591.127 1743.5 584.513C1743.49 580.475 1742.65 579.291 1738.87 577.752C1729.47 573.923 1720 570.311 1709.89 568.745C1709.38 568.668 1708.74 568.205 1708.52 567.753C1703.19 556.538 1697.9 545.301 1692.61 534.068C1692.57 533.969 1692.6 533.833 1692.6 533.521C1693.27 533.521 1693.92 533.521 1694.58 533.521C1705.99 533.521 1717.4 533.517 1728.81 533.51C1732.99 533.51 1734.87 531.716 1735.22 527.59C1735.66 522.442 1734.24 517.65 1732.43 512.947C1729.48 505.263 1725.51 498.09 1721.16 491.12C1719.5 488.481 1717.03 487.445 1713.96 487.456C1705.2 487.489 1696.44 487.474 1687.68 487.474C1666.22 487.474 1644.76 487.555 1623.29 487.423C1613.23 487.36 1603.4 488.922 1593.67 491.142C1580.34 494.188 1566.85 494.629 1553.09 494.078V494.074ZM1739.13 589.977C1736.22 590.569 1732.32 588.632 1731.74 593.269H1637.97C1637.97 592.399 1637.97 591.623 1637.97 590.852C1637.97 573.643 1637.98 556.435 1637.96 539.227C1637.96 532.378 1633.65 528.126 1626.77 528.101C1621.9 528.082 1617.03 528.082 1612.15 528.101C1605.2 528.123 1600.86 532.448 1600.86 539.352C1600.85 556.56 1600.86 573.768 1600.86 590.977C1600.86 591.697 1600.86 592.413 1600.86 593.244H1486.96C1486.05 589.514 1486.01 589.481 1481.61 588.823C1481.61 588.195 1481.61 587.533 1481.61 586.872C1481.61 559.191 1481.61 531.511 1481.61 503.83C1481.61 499.773 1482.79 498.594 1486.89 498.594C1512.49 498.594 1538.09 498.498 1563.69 498.638C1573.98 498.693 1584.07 497.554 1594.12 495.445C1603.7 493.431 1613.32 491.671 1623.19 491.715C1642.99 491.803 1662.79 491.752 1682.6 491.755C1692.9 491.755 1703.2 491.763 1713.5 491.748C1715.11 491.748 1716.57 491.987 1717.5 493.501C1722.22 501.188 1726.72 509 1729.37 517.657C1730.28 520.645 1730.43 523.871 1730.83 526.998C1731.06 528.788 1730.05 529.174 1728.37 529.163C1715.48 529.1 1702.59 529.126 1689.7 529.133C1687.06 529.133 1686.05 530.474 1687.1 532.698C1693.11 545.485 1699.14 558.265 1705.26 571.009C1705.63 571.791 1706.72 572.607 1707.58 572.732C1718.15 574.283 1728.04 577.976 1737.8 582.066C1738.34 582.29 1739.05 582.907 1739.08 583.381C1739.21 585.56 1739.14 587.754 1739.14 589.973L1739.13 589.977ZM1567.48 627.179C1563.97 615.089 1556.64 608.688 1546.25 608.434C1541.34 608.313 1536.88 609.592 1532.88 612.407C1527.74 616.019 1524.85 621.042 1523.72 627.223C1516.78 627.223 1509.94 627.245 1503.1 627.186C1502.43 627.179 1501.72 626.752 1501.09 626.396C1495.32 623.111 1489.57 619.8 1483.82 616.497C1481.32 615.063 1481.06 614.387 1481.91 611.495C1484.59 611.361 1486.26 609.32 1486.93 605.374H1600.86C1600.86 607.791 1600.85 610.055 1600.86 612.319C1600.87 619.043 1605.13 623.324 1611.93 623.383C1616.86 623.427 1621.79 623.419 1626.73 623.394C1633.8 623.353 1637.94 619.197 1637.97 612.157C1637.98 609.908 1637.97 607.659 1637.97 605.318H1733.26C1733.38 605.881 1733.51 606.355 1733.59 606.836C1734.07 609.64 1734.77 610.257 1737.58 610.25C1739 610.25 1740.41 610.187 1741.83 610.099C1743.07 610.022 1743.65 610.511 1743.64 611.786C1743.62 616.379 1743.62 620.972 1743.64 625.565C1743.65 626.844 1743.06 627.281 1741.82 627.248C1739.79 627.19 1737.75 627.234 1735.71 627.234C1732.47 627.234 1729.22 627.234 1726.05 627.234C1721.91 614.828 1715.27 608.875 1705.5 608.46C1700.66 608.254 1696.18 609.265 1692.15 611.914C1686.62 615.545 1683.4 620.722 1682.27 627.186H1567.48V627.179ZM1605.27 575.83C1605.27 563.582 1605.26 551.339 1605.27 539.091C1605.27 534.91 1607.71 532.488 1611.92 532.473C1616.85 532.455 1621.79 532.459 1626.72 532.473C1631.2 532.484 1633.62 534.792 1633.63 539.246C1633.65 563.616 1633.66 587.982 1633.63 612.352C1633.62 616.699 1631.24 619.017 1626.85 619.065C1621.91 619.116 1616.98 619.105 1612.04 619.076C1607.59 619.05 1605.26 616.673 1605.26 612.205C1605.26 600.082 1605.26 587.96 1605.26 575.834L1605.27 575.83ZM1688.56 630.313C1688.52 621.766 1695.4 614.803 1703.93 614.755C1712.53 614.707 1719.59 621.549 1719.65 629.986C1719.71 638.618 1712.79 645.607 1704.17 645.625C1695.58 645.643 1688.59 638.798 1688.55 630.313H1688.56ZM1530.07 630.148C1530.09 621.601 1536.99 614.755 1545.57 614.755C1554.09 614.755 1561.1 621.678 1561.15 630.148C1561.21 638.64 1554.11 645.651 1545.47 645.621C1536.91 645.596 1530.04 638.698 1530.07 630.148ZM1600.79 600.714H1486.84V597.914H1600.79V600.714H1600.79ZM1638.07 597.874H1732.5L1732.82 600.674H1638.06V597.874H1638.07ZM1477.2 511.899H1471.98C1471.98 506.498 1471.9 501.258 1472.02 496.018C1472.06 493.784 1473.88 492.171 1476.2 491.851C1478.46 491.539 1480.38 492.762 1481.36 495.298C1477.85 497.433 1476.94 500.787 1477.17 504.701C1477.31 507.064 1477.2 509.441 1477.2 511.899ZM1527.21 494.081H1509.54V488.852H1527.21V494.081ZM1531.35 494.14V488.86H1548.9V494.14H1531.35V494.14ZM1477.03 559.088V576.763H1472.06V559.088H1477.03ZM1477.11 580.677V598.329H1472.04V580.677H1477.11ZM1477.05 537.581V555.087H1472.07V537.581H1477.05V537.581ZM1472.07 533.513V516.03H1477.06V533.513H1472.07ZM1738.85 605.778C1738.62 605.796 1738.39 605.814 1738.17 605.833C1737.22 602.188 1737.2 598.407 1736.67 594.603H1738.85V605.778H1738.85ZM1481.8 607.531V592.939C1483.13 593.901 1483.12 606.582 1481.8 607.531Z" fill="#328FB8"/>
</g>
<g clip-path="url(#clip0_30_3)">
<path d="M403.819 632.994C403.283 635.773 402.747 638.552 402.213 641.334C401.875 643.106 401.519 644.875 401.214 646.652C401.056 647.579 400.566 647.972 399.624 647.967C394.595 647.946 389.565 647.967 384.535 647.943C382.977 647.936 382.62 647.171 383.396 645.606C388.16 635.959 392.849 626.257 396.257 616.055C399.304 606.937 401.8 597.639 404.482 588.405C404.815 587.261 405.299 586.814 406.496 587.07C416.014 589.108 425.66 589.963 435.379 590.12C444.582 590.27 453.736 589.722 462.796 588.023C464.154 587.767 465.494 587.419 466.842 587.106C468.052 586.824 468.643 587.217 468.799 588.462C471.261 608.247 477.903 626.756 486.201 644.761C487.557 647.7 487.388 648 484.075 648C464.261 648 444.447 648 424.635 647.99C419.215 647.99 413.798 647.964 408.378 647.951C406.299 647.946 406.132 647.773 405.861 645.748C405.333 641.83 404.774 637.917 404.222 634.003C404.175 633.668 404.074 633.34 403.996 633.006L403.819 632.994V632.994ZM407.378 589.831C407.42 590.417 407.412 590.846 407.485 591.259C408.24 595.444 408.963 599.633 409.785 603.802C412.601 618.093 417.287 631.733 424.245 644.583C424.682 645.389 425.15 645.65 426.043 645.65C444.811 645.624 463.577 645.626 482.345 645.621C482.795 645.621 483.243 645.585 483.841 645.557C475.674 627.585 469.085 609.301 466.504 589.8C446.695 593.778 427.12 593.209 407.376 589.831H407.378ZM422.064 645.583C413.233 629.489 408.435 612.442 405.469 594.754C401.016 612.392 394.334 629.153 386.177 645.417C386.508 645.515 386.622 645.58 386.737 645.58C390.51 645.588 394.282 645.58 398.053 645.606C398.768 645.611 398.99 645.324 399.117 644.642C400.298 638.221 401.519 631.808 402.742 625.392C402.89 624.612 402.916 623.651 404.063 623.631C405.211 623.61 405.273 624.488 405.393 625.328C406.226 631.113 407.103 636.891 407.907 642.679C408.31 645.575 408.255 645.583 411.235 645.583C414.734 645.583 418.231 645.583 422.059 645.583H422.064Z" fill="#86D2E8"/>
<path d="M441.732 603.523C444.855 603.523 447.977 603.556 451.1 603.504C452.164 603.486 452.695 603.913 452.934 604.899C453.967 609.156 455.031 613.407 456.062 617.664C456.4 619.059 455.968 619.645 454.537 619.653C448.25 619.684 441.961 619.676 435.675 619.694C434.678 619.697 434.056 619.319 433.809 618.299C432.763 614.001 431.668 609.714 430.622 605.416C430.294 604.065 430.775 603.53 432.238 603.528C435.404 603.52 438.568 603.528 441.735 603.528L441.732 603.523ZM453.413 617.165C452.538 613.593 451.711 610.091 450.785 606.617C450.696 606.289 449.981 605.925 449.554 605.919C444.527 605.876 439.502 605.894 434.475 605.904C434.145 605.904 433.814 605.963 433.299 606.01C434.231 609.802 435.139 613.487 436.042 617.165H453.413V617.165Z" fill="#86D2E8"/>
</g>
<path d="M231.145 526.93L206.089 384L171.782 526.93L188.358 514.602L166 596.277L191.056 565.841V661H206.089V565.841L235 596.277L216.497 514.602L231.145 526.93Z" stroke="#4FA5C7" stroke-width="3" stroke-linecap="round"/>
<path opacity="0.47" d="M269.458 575.815L285.436 485L307.313 575.815L296.743 567.982L311 619.876L295.022 600.538V661H285.436V600.538L267 619.876L278.799 567.982L269.458 575.815Z" stroke="#63AECB" stroke-width="3" stroke-linecap="round"/>
<path opacity="0.26" d="M114.564 605.823L124.732 547L138.654 605.823L131.927 600.75L141 634.363L130.832 621.837V661H124.732V621.837L113 634.363L120.508 600.75L114.564 605.823Z" stroke="#53A8BF" stroke-width="3" stroke-linecap="round"/>
<g filter="url(#filter0_f_30_3)">
<rect x="31" y="631" width="660" height="74" fill="#BCEBFF"/>
</g>
<g filter="url(#filter1_f_30_3)">
<rect x="1213" y="631" width="660" height="74" fill="#BCEBFF"/>
</g>
<defs>
<filter id="filter0_f_30_3" x="-6" y="594" width="734" height="148" filterUnits="userSpaceOnUse" color-interpolation-filters="sRGB">
<feFlood flood-opacity="0" result="BackgroundImageFix"/>
<feBlend mode="normal" in="SourceGraphic" in2="BackgroundImageFix" result="shape"/>
<feGaussianBlur stdDeviation="18.5" result="effect1_foregroundBlur_30_3"/>
</filter>
<filter id="filter1_f_30_3" x="1176" y="594" width="734" height="148" filterUnits="userSpaceOnUse" color-interpolation-filters="sRGB">
<feFlood flood-opacity="0" result="BackgroundImageFix"/>
<feBlend mode="normal" in="SourceGraphic" in2="BackgroundImageFix" result="shape"/>
<feGaussianBlur stdDeviation="18.5" result="effect1_foregroundBlur_30_3"/>
</filter>
<linearGradient id="paint0_linear_30_3" x1="960" y1="-1.53865e-06" x2="959.16" y2="495.499" gradientUnits="userSpaceOnUse">
<stop stop-color="#006E9D"/>
<stop offset="1" stop-color="#BBEBFF"/>
</linearGradient>
<linearGradient id="paint1_linear_30_3" x1="2880" y1="1248" x2="2879.16" y2="1743.5" gradientUnits="userSpaceOnUse">
<stop stop-color="#006E9D"/>
<stop offset="1" stop-color="#BBEBFF"/>
</linearGradient>
<clipPath id="clip0_30_3">
<rect width="104" height="61" fill="white" transform="translate(383 587)"/>
</clipPath>
</defs>
</svg>
