<svg width="203" height="192" viewBox="0 0 203 192" fill="none" xmlns="http://www.w3.org/2000/svg">
<g opacity="0.36">
<g opacity="0.73">
<path fill-rule="evenodd" clip-rule="evenodd" d="M121.403 81.205C91.213 68.5422 25.0355 59.3271 1.84666 123.768C27.1029 139.514 86.3729 153.046 121.403 81.205ZM110.7 86.2726C105.591 99.5627 84.9189 123.103 43.0942 110.942C50.9466 96.2455 75.4609 70.7365 110.7 86.2726Z" fill="#D7D7D7"/>
</g>
<g opacity="0.5">
<path fill-rule="evenodd" clip-rule="evenodd" d="M122.3 78.3199C128.21 63.1711 131.959 30.1962 99.6714 19.4872C92.1686 32.2246 86.1902 61.8236 122.3 78.3199ZM119.641 73.0703C112.979 70.7 101.032 60.7294 106.547 39.8099C113.943 43.5252 126.915 55.3788 119.641 73.0703Z" fill="#D7D7D7"/>
</g>
<g opacity="0.21">
<path fill-rule="evenodd" clip-rule="evenodd" d="M123.698 82.3637C115.247 104.026 109.886 151.18 156.056 166.494C166.786 148.28 175.335 105.953 123.698 82.3637ZM127.495 89.8728C137.023 93.2624 154.107 107.52 146.219 137.435C135.644 132.122 117.093 115.172 127.495 89.8728Z" fill="#D7D7D7"/>
</g>
</g>
</svg>
