<svg width="61" height="60" viewBox="0 0 61 60" fill="none" xmlns="http://www.w3.org/2000/svg">
<g filter="url(#filter0_b_2_188)">
<circle cx="30.2065" cy="30" r="30" fill="white" fill-opacity="0.62"/>
<circle cx="30.2065" cy="30" r="29.5" stroke="#3D8587" stroke-opacity="0.15"/>
</g>
<path d="M23.6923 31.3935L34.1478 42.0727C34.3195 42.2499 34.5238 42.3905 34.749 42.4865C34.9741 42.5824 35.2155 42.6318 35.4594 42.6318C35.7032 42.6318 35.9447 42.5824 36.1698 42.4865C36.3949 42.3905 36.5992 42.2499 36.7709 42.0727C37.115 41.7186 37.3081 41.2395 37.3081 40.7402C37.3081 40.2408 37.115 39.7618 36.7709 39.4076L27.627 29.957L36.7709 20.6008C37.115 20.2467 37.3081 19.7676 37.3081 19.2683C37.3081 18.7689 37.115 18.2899 36.7709 17.9357C36.5999 17.7571 36.3958 17.615 36.1707 17.5177C35.9456 17.4204 35.7038 17.3697 35.4594 17.3687C35.215 17.3697 34.9732 17.4204 34.7481 17.5177C34.5229 17.615 34.3189 17.7571 34.1478 17.9357L23.6923 28.615C23.5048 28.792 23.3551 29.0068 23.2528 29.2459C23.1504 29.485 23.0976 29.7432 23.0976 30.0042C23.0976 30.2653 23.1504 30.5235 23.2528 30.7626C23.3551 31.0017 23.5048 31.2165 23.6923 31.3935Z" fill="#127BA8"/>
<defs>
<filter id="filter0_b_2_188" x="-8.79346" y="-9" width="78" height="78" filterUnits="userSpaceOnUse" color-interpolation-filters="sRGB">
<feFlood flood-opacity="0" result="BackgroundImageFix"/>
<feGaussianBlur in="BackgroundImageFix" stdDeviation="4.5"/>
<feComposite in2="SourceAlpha" operator="in" result="effect1_backgroundBlur_2_188"/>
<feBlend mode="normal" in="SourceGraphic" in2="effect1_backgroundBlur_2_188" result="shape"/>
</filter>
</defs>
</svg>
