<svg width="114" height="105" viewBox="0 0 114 105" fill="none" xmlns="http://www.w3.org/2000/svg">
<g opacity="0.36">
<g opacity="0.73">
<path fill-rule="evenodd" clip-rule="evenodd" d="M46.5233 63.1768C65.6428 67.6618 105.707 66.5248 113.009 26.0964C96.5014 19.2964 60.0934 17.1924 46.5233 63.1768ZM52.3505 59.1125C54.0492 50.7422 63.9344 34.7592 89.8862 37.7891C86.7043 47.2644 74.7425 64.7946 52.3505 59.1125Z" fill="#D7D7D7"/>
</g>
<g opacity="0.5">
<path fill-rule="evenodd" clip-rule="evenodd" d="M46.2802 64.9729C44.2921 74.5225 45.3573 94.4019 65.5228 97.5224C68.693 89.2407 69.2829 71.1364 46.2802 64.9729ZM48.3684 67.814C52.5458 68.5528 60.6055 73.2615 59.4253 86.1855C54.6806 84.7239 45.8268 79.0034 48.3684 67.814Z" fill="#D7D7D7"/>
</g>
<g opacity="0.21">
<path fill-rule="evenodd" clip-rule="evenodd" d="M45.0528 62.721C47.8958 49.0651 46.3727 20.6378 17.5361 16.1754C13.0027 28.0182 12.1592 53.9072 45.0528 62.721ZM42.0647 58.6569C36.0911 57.6003 24.5658 50.8669 26.2534 32.3857C33.0382 34.4758 45.6993 42.656 42.0647 58.6569Z" fill="#D7D7D7"/>
</g>
</g>
</svg>
