<svg width="61" height="60" viewBox="0 0 61 60" fill="none" xmlns="http://www.w3.org/2000/svg">
<g filter="url(#filter0_b_2_191)">
<circle r="30" transform="matrix(-1 0 0 1 30.2065 30)" fill="white" fill-opacity="0.62"/>
<circle r="29.5" transform="matrix(-1 0 0 1 30.2065 30)" stroke="#3D8587" stroke-opacity="0.15"/>
</g>
<path d="M36.7208 31.3935L26.2653 42.0727C26.0935 42.2499 25.8892 42.3905 25.6641 42.4865C25.439 42.5824 25.1976 42.6318 24.9537 42.6318C24.7099 42.6318 24.4684 42.5824 24.2433 42.4865C24.0182 42.3905 23.8139 42.2499 23.6422 42.0727C23.2981 41.7186 23.105 41.2395 23.105 40.7402C23.105 40.2408 23.2981 39.7618 23.6422 39.4076L32.7861 29.957L23.6422 20.6008C23.2981 20.2467 23.105 19.7676 23.105 19.2683C23.105 18.7689 23.2981 18.2899 23.6422 17.9357C23.8132 17.7571 24.0173 17.615 24.2424 17.5177C24.4675 17.4204 24.7093 17.3697 24.9537 17.3687C25.1981 17.3697 25.4399 17.4204 25.665 17.5177C25.8902 17.615 26.0942 17.7571 26.2653 17.9357L36.7208 28.615C36.9083 28.792 37.058 29.0068 37.1603 29.2459C37.2627 29.485 37.3155 29.7432 37.3155 30.0042C37.3155 30.2653 37.2627 30.5235 37.1603 30.7626C37.058 31.0017 36.9083 31.2165 36.7208 31.3935Z" fill="#127BA8"/>
<defs>
<filter id="filter0_b_2_191" x="-8.79346" y="-9" width="78" height="78" filterUnits="userSpaceOnUse" color-interpolation-filters="sRGB">
<feFlood flood-opacity="0" result="BackgroundImageFix"/>
<feGaussianBlur in="BackgroundImageFix" stdDeviation="4.5"/>
<feComposite in2="SourceAlpha" operator="in" result="effect1_backgroundBlur_2_191"/>
<feBlend mode="normal" in="SourceGraphic" in2="effect1_backgroundBlur_2_191" result="shape"/>
</filter>
</defs>
</svg>
