<svg width="1767" height="541" viewBox="0 0 1767 541" fill="none" xmlns="http://www.w3.org/2000/svg">
<path d="M1526.03 58.5256C1523.91 60.4855 1521.54 61.6852 1518.72 61.7979C1512.88 62.035 1507.86 57.9879 1507.12 52.4723C1506.3 46.4306 1509.88 41.181 1515.79 39.8773C1516.65 39.6894 1516.99 39.3801 1517.14 38.536C1518.29 32.0173 1523.19 28.2911 1529.83 28.823C1530.12 28.8461 1530.4 28.8548 1530.8 28.875C1532.63 23.4202 1536.22 19.957 1542.19 20.0004C1548.15 20.0438 1551.74 23.4953 1553.49 29.0774C1556.81 28.4328 1559.92 28.6178 1562.76 30.465C1565.71 32.3873 1567.51 35.067 1567.98 38.5649C1568.09 39.4321 1568.34 39.8888 1569.25 40.1779C1575.5 42.1639 1578.62 48.908 1576.16 54.9468C1573.73 60.8787 1566.77 63.5208 1560.97 60.6532C1560.14 60.2427 1559.57 60.2224 1558.75 60.6792C1556.52 61.9164 1554.19 62.0378 1551.77 61.1186C1551.23 60.9105 1550.45 60.948 1549.9 61.1735C1546.57 62.5437 1543.47 62.2575 1540.68 59.9594C1539.89 59.3061 1539.42 59.1615 1538.49 59.8004C1534.86 62.3125 1530.41 62.0552 1526.95 59.2801C1526.69 59.069 1526.43 58.858 1526.03 58.5285L1526.03 58.5256ZM1509.16 50.7263C1509.14 54.3311 1511.38 57.6468 1514.71 58.9563C1518.34 60.3872 1522.03 59.5431 1524.74 56.6524C1525.98 55.3284 1526.24 55.3197 1527.35 56.5627C1530.53 60.1357 1535.05 60.2774 1538.54 56.9183C1539.61 55.8863 1540.02 55.9181 1540.95 57.1033C1543.23 59.9999 1546.49 60.6474 1549.67 58.7395C1550.49 58.2452 1551.1 58.3001 1551.92 58.7279C1554.16 59.8958 1556.43 59.8409 1558.44 58.2683C1559.45 57.4878 1560.16 57.5861 1561.14 58.2307C1562.97 59.4362 1565.02 59.942 1567.2 59.5373C1571.7 58.7077 1574.74 55.1925 1574.79 50.8217C1574.84 46.4566 1571.91 42.875 1567.41 41.9499C1566.38 41.7389 1565.93 41.3602 1565.89 40.2733C1565.66 33.4049 1559.94 29.4301 1553.35 31.5114C1551.98 31.9421 1551.59 31.7138 1551.37 30.3696C1550.59 25.5304 1546.99 22.2523 1542.38 22.1743C1537.58 22.0933 1533.93 25.1228 1532.98 30.0487C1532.76 31.1934 1532.26 31.6155 1531.09 31.3351C1524.66 29.7972 1519.54 33.5639 1519.22 40.0825C1519.16 41.2677 1518.73 41.7823 1517.5 41.8661C1512.72 42.1841 1509.18 45.9826 1509.16 50.7263V50.7263Z" fill="white" fill-opacity="0.49"/>
<path d="M232.359 44.9962C227.044 44.9962 221.729 45.0049 216.413 44.994C211.661 44.9831 207.669 41.7617 207.1 37.5021C206.439 32.5673 209.101 28.3515 213.999 27.2981C215.811 26.9091 216.17 26.1835 216.451 24.658C217.259 20.2696 221.059 16.8427 225.638 16.1302C230.161 15.4265 234.854 17.6229 237.045 21.5503C237.507 22.3786 237.957 22.7107 238.993 22.6976C242.704 22.6474 245.368 24.387 246.91 27.6805C247.224 28.3537 247.53 28.5875 248.293 28.5657C252.727 28.4389 256.424 31.4855 256.931 35.6161C257.478 40.0657 254.733 43.9056 250.297 44.8323C249.543 44.9896 248.746 44.9896 247.97 44.9918C242.766 45.0049 237.562 44.9984 232.359 44.9984V44.9962ZM232.437 43.3789C237.792 43.3789 243.148 43.4073 248.503 43.3702C252.653 43.3396 255.632 40.116 255.311 36.0947C255.012 32.3247 251.395 29.6497 247.369 30.3075C246.312 30.4802 245.917 30.1633 245.662 29.1842C244.794 25.8535 241.392 23.7598 237.96 24.4482C237.002 24.6405 236.549 24.4001 236.168 23.5347C234.244 19.155 229.958 16.9454 225.317 17.8786C220.93 18.7616 217.795 22.6364 217.833 27.2325C217.841 28.2794 217.509 28.6509 216.418 28.6181C213.829 28.5416 211.687 29.5491 210.152 31.586C208.365 33.9595 208.11 36.5864 209.434 39.2177C210.801 41.9343 213.173 43.333 216.259 43.3636C221.65 43.4161 227.044 43.3789 232.437 43.3767V43.3789Z" fill="white" fill-opacity="0.49"/>
<path d="M115.144 35.9986C113.017 35.9986 110.891 36.0019 108.765 35.9977C106.864 35.9936 105.267 34.7717 105.04 33.156C104.776 31.2841 105.84 29.685 107.8 29.2855C108.524 29.1379 108.668 28.8627 108.781 28.2841C109.104 26.6195 110.624 25.3196 112.455 25.0494C114.264 24.7825 116.141 25.6156 117.018 27.1053C117.203 27.4195 117.383 27.5455 117.797 27.5405C119.281 27.5214 120.347 28.1813 120.964 29.4306C121.09 29.6859 121.212 29.7746 121.517 29.7663C123.291 29.7182 124.77 30.8738 124.972 32.4406C125.191 34.1284 124.093 35.5849 122.319 35.9364C122.017 35.9961 121.698 35.9961 121.388 35.9969C119.306 36.0019 117.225 35.9994 115.144 35.9994V35.9986ZM115.175 35.3851C117.317 35.3851 119.459 35.3959 121.601 35.3818C123.261 35.3702 124.453 34.1474 124.324 32.6221C124.205 31.1921 122.758 30.1775 121.148 30.427C120.725 30.4925 120.567 30.3723 120.465 30.0009C120.118 28.7375 118.757 27.9434 117.384 28.2045C117.001 28.2774 116.82 28.1863 116.667 27.858C115.898 26.1967 114.183 25.3586 112.327 25.7126C110.572 26.0475 109.318 27.5173 109.333 29.2606C109.337 29.6577 109.204 29.7986 108.767 29.7862C107.732 29.7572 106.875 30.1393 106.261 30.9119C105.546 31.8122 105.444 32.8086 105.973 33.8067C106.521 34.8372 107.469 35.3677 108.704 35.3793C110.86 35.3992 113.017 35.3851 115.175 35.3843V35.3851Z" fill="#0DA0C9" fill-opacity="0.15"/>
<path opacity="0.44" d="M348.479 5.88829C348.786 5.1919 349.019 4.50993 349.369 3.88977C352.167 -1.07149 359.279 -1.34551 362.424 3.4056C362.814 3.99691 363.211 4.21118 363.918 4.26269C367.344 4.51817 369.972 6.64649 370.77 9.71019C371.566 12.776 370.26 15.8582 367.432 17.7537C367.113 17.968 366.84 18.4851 366.83 18.8683C366.765 21.4087 365.736 23.4052 363.452 24.6434C361.175 25.8776 358.862 25.7684 356.712 24.3426C356.032 23.8914 355.692 24.0006 355.121 24.4518C351.017 27.6803 345.083 25.6056 343.88 20.5784C343.784 20.1746 343.37 19.6863 342.982 19.5318C339.086 17.9906 337.094 14.0431 338.399 10.3303C339.772 6.42809 343.746 4.50169 347.86 5.74613C348.051 5.80382 348.25 5.83472 348.479 5.88623V5.88829ZM369.372 12.0507C369.368 8.20821 366.639 5.66165 363.24 5.83884C362.359 5.88417 361.844 5.69256 361.431 4.86843C360.199 2.40634 357.663 1.21341 354.892 1.67698C352.377 2.09729 350.394 4.20088 350.035 6.82574C349.854 8.14022 349.529 8.30917 348.353 7.68901C346.223 6.56407 344.109 6.5888 342.119 7.94655C340.091 9.33109 339.268 11.309 339.728 13.6887C340.188 16.0704 341.716 17.5827 344.105 18.1616C344.961 18.3697 345.316 18.7447 345.385 19.608C345.576 21.9506 346.936 23.5061 349.155 24.186C351.343 24.8556 353.297 24.2623 354.852 22.5604C355.742 21.588 355.91 21.5756 356.842 22.4554C358.412 23.9367 360.501 24.32 362.342 23.4649C364.321 22.544 365.451 20.6855 365.113 18.516C364.947 17.4447 365.295 17.0058 366.221 16.5546C368.312 15.5347 369.309 13.7649 369.372 12.0548V12.0507Z" fill="white"/>
<path opacity="0.15" d="M10.4793 41.8883C10.7858 41.1919 11.0188 40.5099 11.3693 39.8898C14.1675 34.9285 21.2793 34.6545 24.4238 39.4056C24.8143 39.9969 25.211 40.2112 25.9184 40.2627C29.3442 40.5182 31.9723 42.6465 32.77 45.7102C33.5656 48.776 32.2599 51.8582 29.4324 53.7537C29.1133 53.968 28.8404 54.4851 28.8299 54.8683C28.7648 57.4087 27.7363 59.4052 25.4524 60.6434C23.1749 61.8776 20.8616 61.7684 18.7121 60.3426C18.032 59.8914 17.6919 60.0006 17.121 60.4518C13.0172 63.6803 7.0829 61.6056 5.8801 56.5784C5.78354 56.1746 5.37001 55.6863 4.98167 55.5318C1.08568 53.9906 -0.906397 50.0431 0.399264 46.3303C1.7721 42.4281 5.74576 40.5017 9.86006 41.7461C10.0511 41.8038 10.2505 41.8347 10.4793 41.8862V41.8883ZM31.372 48.0507C31.3678 44.2082 28.6389 41.6617 25.2404 41.8388C24.3588 41.8842 23.8445 41.6926 23.431 40.8684C22.1988 38.4063 19.663 37.2134 16.8922 37.677C14.3774 38.0973 12.3937 40.2009 12.0348 42.8257C11.8542 44.1402 11.5289 44.3092 10.3534 43.689C8.22273 42.5641 6.10891 42.5888 4.11893 43.9466C2.09116 45.3311 1.2683 47.309 1.72801 49.6887C2.18772 52.0704 3.71589 53.5827 6.10471 54.1616C6.96115 54.3697 7.31591 54.7447 7.38518 55.608C7.5762 57.9506 8.93644 59.5061 11.1552 60.186C13.3425 60.8556 15.2968 60.2623 16.8523 58.5604C17.7423 57.588 17.9102 57.5756 18.8422 58.4554C20.4124 59.9367 22.501 60.32 24.342 59.4649C26.3215 58.544 27.4508 56.6855 27.1128 54.516C26.947 53.4447 27.2955 53.0058 28.2212 52.5546C30.3119 51.5347 31.309 49.7649 31.372 48.0548V48.0507Z" fill="#0DA0C9"/>
<path opacity="0.33" d="M303.258 91.9907C300.44 91.9907 297.623 91.9995 294.805 91.9907C288.455 91.9664 283.495 87.4979 283.034 81.3981C282.573 75.3005 286.819 70.0361 293.064 69.1852C294.529 68.9868 296.089 69.2403 297.568 69.5026C298.34 69.6393 298.656 69.4938 299.066 68.8898C302.272 64.1501 306.78 61.831 312.537 62.0096C319.234 62.2168 324.954 66.9785 326.599 73.6317C328.151 79.9012 325.087 86.8322 319.361 90.0132C316.986 91.3315 314.448 92.0215 311.711 91.9995C308.893 91.9774 306.077 91.9951 303.258 91.9951V91.9907ZM303.345 90.3351C306.237 90.3351 309.131 90.3726 312.023 90.3285C322.195 90.1698 328.589 79.2465 323.58 70.5277C321.009 66.0504 317.019 63.6718 311.821 63.6696C306.578 63.6696 302.601 66.0835 299.999 70.6027C299.482 71.4999 299.017 71.6983 297.964 71.3743C296.646 70.9664 295.188 70.671 293.83 70.7857C288.222 71.253 284.432 75.6995 284.699 81.2812C284.938 86.3009 289.386 90.3042 294.78 90.3329C297.637 90.3483 300.491 90.3351 303.347 90.3373L303.345 90.3351Z" fill="white"/>
<path d="M1417.82 21.7419C1418.06 21.2525 1418.27 20.7588 1418.53 20.2974C1420.21 17.3954 1422.75 15.8841 1426.09 16.0069C1429.32 16.1277 1431.75 17.7253 1433.19 20.6531C1433.5 21.2697 1433.79 21.5457 1434.56 21.5155C1438.67 21.3495 1441.72 24.3765 1441.57 28.4837C1441.54 29.3073 1441.71 29.7428 1442.49 30.1352C1445.07 31.4374 1446.31 34.0397 1445.93 37.0754C1445.62 39.6496 1443.57 41.8638 1440.79 42.5236C1440.13 42.6788 1439.74 42.9203 1439.44 43.5477C1437.93 46.7321 1434.3 48.1529 1430.97 46.8614C1430.36 46.6264 1430.06 46.6286 1429.64 47.1805C1426.72 51.0225 1421.44 50.9169 1418.63 46.993C1418.47 46.7644 1418.29 46.5467 1418.27 46.523C1416.82 46.8054 1415.54 47.2495 1414.25 47.2668C1411.43 47.3034 1409.47 45.8417 1408.2 43.3407C1407.96 42.8578 1407.47 42.3856 1406.98 42.1527C1404.37 40.9087 1402.8 38.3043 1403.02 35.439C1403.24 32.634 1405.27 30.2344 1408.07 29.5337C1408.68 29.3806 1408.94 29.1736 1408.94 28.4708C1408.94 23.6715 1412.68 20.6876 1417.35 21.6988C1417.49 21.729 1417.63 21.7268 1417.82 21.7441V21.7419ZM1433.33 45.9042C1435.6 45.7123 1437.49 44.3907 1438.22 42.2304C1438.49 41.4564 1438.85 41.0726 1439.73 41.0122C1442.17 40.8441 1444.12 38.9554 1444.36 36.6593C1444.63 34.1281 1443.23 31.8751 1440.81 31.1787C1439.76 30.8769 1439.51 30.4306 1439.79 29.3979C1440.75 25.8103 1437.52 22.3844 1433.91 23.2037C1432.81 23.4559 1432.39 23.1562 1432.03 22.1321C1431.03 19.2237 1428.47 17.5097 1425.52 17.6239C1422.6 17.7361 1420.25 19.6118 1419.38 22.5137C1418.96 23.9087 1418.84 23.9604 1417.51 23.4559C1415.6 22.7272 1413.8 23.0053 1412.28 24.355C1410.8 25.6637 1410.21 27.3346 1410.67 29.3095C1410.99 30.6634 1410.88 30.8036 1409.52 30.9243C1406.85 31.1615 1404.91 32.9984 1404.64 35.5597C1404.39 37.8817 1405.91 40.0075 1408.32 40.8872C1408.78 41.0553 1409.29 41.534 1409.46 41.9867C1410.82 45.7037 1414.58 46.8507 1417.69 44.451C1418.57 43.7741 1419.03 43.8581 1419.41 44.8585C1420.22 47.0016 1421.74 48.2111 1424.02 48.3038C1426.31 48.3965 1427.93 47.297 1428.88 45.225C1429.28 44.3562 1429.77 44.3109 1430.59 44.7852C1431.44 45.2746 1432.41 45.5377 1433.33 45.8999V45.9042Z" fill="white" fill-opacity="0.22"/>
<path d="M1465.24 71.7021C1465.35 71.4718 1465.46 71.2394 1465.59 71.0223C1466.4 69.6567 1467.65 68.9454 1469.27 69.0033C1470.85 69.0601 1472.04 69.8119 1472.75 71.1897C1472.9 71.4799 1473.04 71.6097 1473.41 71.5955C1475.42 71.5174 1476.91 72.9419 1476.83 74.8747C1476.82 75.2623 1476.9 75.4672 1477.29 75.6519C1478.55 76.2647 1479.15 77.4893 1478.97 78.9178C1478.81 80.1292 1477.81 81.1712 1476.45 81.4817C1476.13 81.5547 1475.94 81.6684 1475.8 81.9636C1475.06 83.4622 1473.29 84.1308 1471.66 83.523C1471.36 83.4124 1471.21 83.4135 1471.01 83.6732C1469.59 85.4812 1467.01 85.4315 1465.63 83.5849C1465.55 83.4774 1465.47 83.3749 1465.46 83.3637C1464.75 83.4967 1464.13 83.7057 1463.5 83.7138C1462.12 83.731 1461.16 83.0431 1460.54 81.8662C1460.42 81.6389 1460.18 81.4167 1459.94 81.3072C1458.67 80.7218 1457.9 79.4961 1458.01 78.1477C1458.12 76.8278 1459.11 75.6985 1460.47 75.3688C1460.77 75.2968 1460.9 75.1994 1460.9 74.8686C1460.9 72.6101 1462.73 71.2059 1465.01 71.6818C1465.08 71.696 1465.15 71.695 1465.24 71.7031V71.7021ZM1472.81 83.0726C1473.92 82.9823 1474.84 82.3603 1475.2 81.3437C1475.33 80.9795 1475.51 80.7989 1475.94 80.7705C1477.13 80.6913 1478.08 79.8025 1478.2 78.722C1478.33 77.5309 1477.65 76.4706 1476.46 76.1429C1475.95 76.0009 1475.83 75.7909 1475.97 75.3049C1476.44 73.6166 1474.86 72.0044 1473.1 72.39C1472.56 72.5087 1472.35 72.3676 1472.18 71.8857C1471.69 70.517 1470.44 69.7104 1469 69.7642C1467.57 69.817 1466.42 70.6997 1466 72.0653C1465.8 72.7217 1465.74 72.7461 1465.09 72.5087C1464.15 72.1657 1463.28 72.2966 1462.53 72.9318C1461.81 73.5476 1461.52 74.3339 1461.75 75.2633C1461.9 75.9004 1461.85 75.9664 1461.18 76.0232C1459.88 76.1348 1458.93 76.9992 1458.8 78.2046C1458.68 79.2973 1459.42 80.2977 1460.6 80.7116C1460.82 80.7907 1461.07 81.016 1461.15 81.229C1461.82 82.9782 1463.65 83.518 1465.18 82.3887C1465.61 82.0701 1465.83 82.1097 1466.01 82.5805C1466.41 83.589 1467.15 84.1582 1468.27 84.2018C1469.38 84.2454 1470.18 83.728 1470.64 82.753C1470.84 82.3441 1471.07 82.3228 1471.47 82.546C1471.89 82.7763 1472.36 82.9001 1472.81 83.0705V83.0726Z" fill="white" fill-opacity="0.26"/>
<path d="M1753.24 43.7021C1753.35 43.4718 1753.46 43.2394 1753.59 43.0223C1754.4 41.6567 1755.65 40.9454 1757.27 41.0033C1758.85 41.0601 1760.04 41.8119 1760.75 43.1897C1760.9 43.4799 1761.04 43.6097 1761.41 43.5955C1763.42 43.5174 1764.91 44.9419 1764.83 46.8747C1764.82 47.2623 1764.9 47.4672 1765.29 47.6519C1766.55 48.2647 1767.15 49.4893 1766.97 50.9178C1766.81 52.1292 1765.81 53.1712 1764.45 53.4817C1764.13 53.5547 1763.94 53.6684 1763.8 53.9636C1763.06 55.4622 1761.29 56.1308 1759.66 55.523C1759.36 55.4124 1759.21 55.4135 1759.01 55.6732C1757.59 57.4812 1755.01 57.4315 1753.63 55.5849C1753.55 55.4774 1753.47 55.3749 1753.46 55.3637C1752.75 55.4967 1752.13 55.7057 1751.5 55.7138C1750.12 55.731 1749.16 55.0431 1748.54 53.8662C1748.42 53.6389 1748.18 53.4167 1747.94 53.3072C1746.67 52.7218 1745.9 51.4961 1746.01 50.1477C1746.12 48.8278 1747.11 47.6985 1748.47 47.3688C1748.77 47.2968 1748.9 47.1994 1748.9 46.8686C1748.9 44.6101 1750.73 43.2059 1753.01 43.6818C1753.08 43.696 1753.15 43.695 1753.24 43.7031V43.7021ZM1760.81 55.0726C1761.92 54.9823 1762.84 54.3603 1763.2 53.3437C1763.33 52.9795 1763.51 52.7989 1763.94 52.7705C1765.13 52.6913 1766.08 51.8025 1766.2 50.722C1766.33 49.5309 1765.65 48.4706 1764.46 48.1429C1763.95 48.0009 1763.83 47.7909 1763.97 47.3049C1764.44 45.6166 1762.86 44.0044 1761.1 44.39C1760.56 44.5087 1760.35 44.3676 1760.18 43.8857C1759.69 42.517 1758.44 41.7104 1757 41.7642C1755.57 41.817 1754.42 42.6997 1754 44.0653C1753.8 44.7217 1753.74 44.7461 1753.09 44.5087C1752.15 44.1657 1751.28 44.2966 1750.53 44.9318C1749.81 45.5476 1749.52 46.3339 1749.75 47.2633C1749.9 47.9004 1749.85 47.9664 1749.18 48.0232C1747.88 48.1348 1746.93 48.9992 1746.8 50.2046C1746.68 51.2973 1747.42 52.2977 1748.6 52.7116C1748.82 52.7907 1749.07 53.016 1749.15 53.229C1749.82 54.9782 1751.65 55.518 1753.18 54.3887C1753.61 54.0701 1753.83 54.1097 1754.01 54.5805C1754.41 55.589 1755.15 56.1582 1756.27 56.2018C1757.38 56.2454 1758.18 55.728 1758.64 54.753C1758.84 54.3441 1759.07 54.3228 1759.47 54.546C1759.89 54.7763 1760.36 54.9001 1760.81 55.0705V55.0726Z" fill="#0DA0C9" fill-opacity="0.15"/>
<path opacity="0.47" d="M1205.84 461.412L1211.28 432L1218.74 461.412L1215.14 458.875L1220 475.681L1214.55 469.419V489H1211.28V469.419L1205 475.681L1209.02 458.875L1205.84 461.412Z" stroke="#8DCCE7" stroke-width="2" stroke-linecap="round"/>
<path opacity="0.47" d="M1322.45 465.147L1331.89 412L1344.82 465.147L1338.58 460.563L1347 490.933L1337.56 479.616V515H1331.89V479.616L1321 490.933L1327.97 460.563L1322.45 465.147Z" stroke="#8DCCE7" stroke-width="3" stroke-linecap="round"/>
<path opacity="0.47" d="M455.117 488.764L462.38 448L472.324 488.764L467.52 485.248L474 508.541L466.737 499.861V527H462.38V499.861L454 508.541L459.363 485.248L455.117 488.764Z" stroke="#48B1D8" stroke-width="2" stroke-linecap="round"/>
<path opacity="0.47" d="M552.006 506.088L558.542 471L567.492 506.088L563.168 503.061L569 523.111L562.464 515.64V539H558.542V515.64L551 523.111L555.827 503.061L552.006 506.088Z" stroke="#3894BB" stroke-width="2" stroke-linecap="round"/>
<g opacity="0.34">
<path d="M1593.07 406.015C1593.07 406.88 1592.98 407.761 1593.11 408.608C1593.17 409.024 1593.67 409.715 1593.93 409.697C1595.06 409.627 1596.53 410.51 1597.21 408.733C1597.28 408.53 1597.98 408.491 1598.39 408.489C1604.1 408.473 1609.81 408.478 1615.53 408.478C1639.08 408.478 1662.63 408.478 1686.19 408.481C1686.92 408.481 1687.48 408.468 1688.09 409.284C1688.51 409.84 1689.99 409.744 1690.98 409.658C1691.28 409.632 1691.68 408.681 1691.71 408.133C1691.81 406.581 1691.73 405.017 1691.76 403.458C1691.77 402.59 1691.37 402.117 1690.5 402.198C1689.44 402.297 1688.06 401.626 1687.57 403.333C1687.53 403.492 1686.78 403.497 1686.36 403.5C1675.98 403.51 1665.59 403.51 1655.21 403.51C1636.41 403.51 1617.61 403.51 1598.82 403.505C1598.03 403.505 1597.42 403.515 1596.77 402.658C1596.34 402.094 1594.78 402.266 1593.75 402.346C1593.48 402.367 1593.18 403.276 1593.09 403.809C1592.98 404.529 1593.06 405.277 1593.06 406.012H1593.07L1593.07 406.015Z" fill="#328FB8"/>
<path d="M1623.94 448.498C1629.35 448.498 1634.75 448.504 1640.16 448.496C1644.15 448.491 1646.85 445.955 1646.9 441.977C1646.97 436.005 1646.96 430.032 1646.9 424.061C1646.86 420.343 1644.18 417.669 1640.42 417.653C1629.35 417.606 1618.28 417.604 1607.21 417.653C1603.45 417.671 1600.86 420.356 1600.84 424.11C1600.81 430.081 1600.81 436.052 1600.84 442.026C1600.86 445.9 1603.54 448.485 1607.46 448.493C1612.96 448.504 1618.45 448.496 1623.94 448.493L1623.94 448.498ZM1623.83 445.401C1618.43 445.401 1613.02 445.406 1607.61 445.401C1605.18 445.399 1603.94 444.25 1603.92 441.862C1603.88 436.018 1603.89 430.172 1603.92 424.328C1603.93 421.951 1605.2 420.738 1607.58 420.735C1618.44 420.725 1629.3 420.725 1640.16 420.735C1642.5 420.735 1643.8 422.037 1643.81 424.365C1643.82 430.123 1643.82 435.881 1643.81 441.639C1643.81 444.237 1642.59 445.399 1639.93 445.401C1634.57 445.406 1629.2 445.401 1623.84 445.401H1623.83Z" fill="#328FB8"/>
<path d="M1711.43 445.877C1715.83 445.877 1720.23 445.882 1724.64 445.877C1728.26 445.872 1729.88 443.385 1728.36 440.15C1725.66 434.398 1722.92 428.66 1720.25 422.892C1719.42 421.102 1718.11 420.289 1716.14 420.299C1710.04 420.325 1703.94 420.291 1697.83 420.315C1695.07 420.325 1693.72 421.64 1693.7 424.381C1693.66 430.181 1693.66 435.98 1693.69 441.78C1693.71 444.518 1695.17 445.872 1697.96 445.875C1702.45 445.882 1706.94 445.875 1711.43 445.875V445.877ZM1711.37 442.783C1706.97 442.783 1702.56 442.749 1698.16 442.806C1697.04 442.819 1696.74 442.424 1696.74 441.377C1696.78 435.837 1696.78 430.295 1696.74 424.753C1696.73 423.661 1697.14 423.339 1698.2 423.344C1704.09 423.383 1709.98 423.381 1715.86 423.344C1716.75 423.339 1717.19 423.664 1717.54 424.43C1720.17 430.074 1722.85 435.699 1725.49 441.335C1726.06 442.549 1725.92 442.775 1724.58 442.777C1720.18 442.785 1715.77 442.78 1711.37 442.78L1711.37 442.783Z" fill="#328FB8"/>
<path d="M1720.92 411.732C1724.93 411.732 1728.94 411.74 1732.95 411.73C1736.06 411.722 1737.52 410.275 1737.52 407.214C1737.52 405.915 1737.54 404.618 1737.51 403.319C1737.45 401.123 1735.83 399.445 1733.61 399.437C1725.15 399.403 1716.7 399.406 1708.24 399.434C1705.91 399.442 1704.33 401.079 1704.29 403.379C1704.27 404.719 1704.28 406.06 1704.29 407.403C1704.29 410.23 1705.76 411.714 1708.63 411.73C1712.73 411.753 1716.83 411.735 1720.92 411.735L1720.92 411.732ZM1720.87 402.518C1724.89 402.518 1728.9 402.552 1732.91 402.498C1734.07 402.482 1734.48 402.885 1734.41 404.007C1734.34 404.997 1734.4 405.998 1734.39 406.995C1734.39 408.591 1734.3 408.684 1732.68 408.687C1726.4 408.692 1720.12 408.69 1713.84 408.69C1712.23 408.69 1710.61 408.648 1709 408.703C1707.86 408.744 1707.28 408.412 1707.38 407.159C1707.47 406.083 1707.46 404.992 1707.39 403.914C1707.31 402.82 1707.77 402.487 1708.83 402.5C1712.85 402.544 1716.86 402.518 1720.87 402.518H1720.87Z" fill="#328FB8"/>
<path d="M1667.92 452.543C1667.91 453.909 1669.01 455.009 1670.4 455.016C1671.79 455.027 1672.88 453.959 1672.89 452.577C1672.9 451.202 1671.81 450.092 1670.43 450.082C1669.07 450.074 1667.93 451.184 1667.92 452.543H1667.92Z" fill="#328FB8"/>
<path d="M1728.96 489.857C1729.01 493.658 1732.24 496.836 1736.01 496.774C1739.85 496.709 1743.02 493.484 1742.94 489.74C1742.85 485.952 1739.75 482.911 1735.96 482.898C1732.17 482.883 1728.92 486.115 1728.96 489.857ZM1732.07 489.945C1731.97 487.965 1733.7 486.115 1735.77 485.978C1737.82 485.842 1739.75 487.612 1739.84 489.711C1739.93 491.71 1738.21 493.544 1736.14 493.679C1734.09 493.814 1732.18 492.058 1732.07 489.943V489.945Z" fill="#328FB8"/>
<path d="M1630.78 489.809C1630.77 485.953 1627.64 482.854 1623.79 482.903C1619.95 482.952 1616.85 486.104 1616.88 489.924C1616.92 493.652 1620.09 496.776 1623.84 496.773C1627.7 496.77 1630.79 493.671 1630.78 489.809H1630.78ZM1627.67 489.893C1627.65 491.984 1625.94 493.681 1623.85 493.686C1621.72 493.694 1619.98 491.917 1620.01 489.77C1620.03 487.7 1621.77 485.977 1623.85 485.972C1625.97 485.966 1627.7 487.733 1627.67 489.893V489.893Z" fill="#328FB8"/>
<path d="M1629.17 393.58V389.815C1631.65 389.815 1634.04 389.865 1636.42 389.779C1636.97 389.758 1637.73 389.41 1638 388.974C1638.54 388.074 1637.79 387.188 1636.55 387.178C1633.72 387.155 1630.88 387.168 1628.05 387.168C1614.92 387.168 1601.79 387.168 1588.66 387.168C1588.4 387.168 1588.14 387.165 1587.88 387.173C1587.06 387.201 1586.54 387.609 1586.52 388.436C1586.49 389.329 1587.01 389.795 1587.9 389.8C1589.95 389.815 1592 389.808 1594.05 389.81C1594.51 389.81 1594.98 389.81 1595.53 389.81V393.671C1593.98 393.671 1592.47 393.671 1590.96 393.671C1587.99 393.671 1585.02 393.697 1582.06 393.643C1581.66 393.635 1581.09 393.318 1580.9 392.98C1579.37 390.156 1576.72 388.768 1573.93 389.423C1570.84 390.148 1569.01 392.528 1569.01 395.888C1569 407.276 1569.01 418.665 1569.01 430.054C1569.01 443.521 1569.01 456.988 1569.01 470.453C1569.01 470.799 1569.01 471.147 1569.01 471.492C1569.02 472.423 1569.35 473.166 1570.4 473.168C1571.47 473.171 1571.73 472.373 1571.77 471.472C1571.78 471.045 1571.77 470.622 1571.77 470.131H1575.51C1575.51 472.81 1575.58 475.439 1575.48 478.064C1575.4 480.129 1576.24 481.488 1578.02 482.489C1582.38 484.926 1586.68 487.49 1591.06 489.894C1592.04 490.432 1593.26 490.764 1594.37 490.79C1599 490.889 1603.62 490.832 1608.24 490.832C1608.71 490.832 1609.19 490.832 1609.73 490.832C1610.21 494.909 1611.89 498.274 1615.09 500.791C1617.78 502.912 1620.88 503.936 1624.31 503.832C1630.24 503.652 1636.87 499.474 1637.97 490.92H1721.85C1722.34 495.122 1724.18 498.593 1727.63 501.121C1730.16 502.977 1733.03 503.868 1736.18 503.839C1743.18 503.774 1747.68 499.622 1750.16 490.832C1751.27 490.832 1752.43 490.832 1753.59 490.832C1756.64 490.832 1759.7 490.842 1762.75 490.829C1765.4 490.816 1766.94 489.382 1766.98 486.776C1767.02 483.356 1766.98 479.934 1766.97 476.515C1766.96 474.797 1766.2 473.571 1764.6 472.797C1764.24 472.62 1763.89 471.986 1763.89 471.56C1763.82 466.885 1763.83 462.208 1763.81 457.531C1763.8 454.676 1763.21 453.839 1760.54 452.75C1753.89 450.043 1747.2 447.489 1740.05 446.382C1739.69 446.327 1739.23 446 1739.08 445.68C1735.31 437.75 1731.57 429.804 1727.83 421.861C1727.8 421.791 1727.83 421.695 1727.83 421.474C1728.3 421.474 1728.76 421.474 1729.22 421.474C1737.29 421.474 1745.36 421.471 1753.43 421.466C1756.38 421.466 1757.71 420.198 1757.96 417.28C1758.27 413.64 1757.27 410.252 1755.99 406.926C1753.9 401.492 1751.1 396.42 1748.01 391.491C1746.85 389.626 1745.1 388.893 1742.93 388.901C1736.73 388.924 1730.54 388.914 1724.35 388.914C1709.17 388.914 1693.99 388.971 1678.81 388.877C1671.7 388.833 1664.75 389.938 1657.87 391.507C1648.44 393.661 1638.9 393.973 1629.17 393.583V393.58ZM1760.72 461.395C1758.66 461.813 1755.91 460.444 1755.5 463.723H1689.19C1689.19 463.107 1689.19 462.559 1689.19 462.014C1689.19 449.845 1689.2 437.677 1689.19 425.509C1689.18 420.666 1686.14 417.659 1681.27 417.641C1677.83 417.628 1674.38 417.628 1670.94 417.641C1666.02 417.657 1662.95 420.715 1662.95 425.597C1662.95 437.766 1662.95 449.934 1662.95 462.102C1662.95 462.611 1662.95 463.118 1662.95 463.705H1582.41C1581.77 461.068 1581.74 461.044 1578.63 460.579C1578.63 460.135 1578.63 459.667 1578.63 459.199C1578.63 439.626 1578.63 420.053 1578.63 400.479C1578.63 397.61 1579.47 396.776 1582.36 396.776C1600.46 396.776 1618.57 396.709 1636.67 396.808C1643.94 396.847 1651.08 396.041 1658.19 394.55C1664.96 393.126 1671.76 391.881 1678.74 391.912C1692.75 391.975 1706.75 391.938 1720.75 391.941C1728.03 391.941 1735.32 391.946 1742.6 391.936C1743.74 391.936 1744.77 392.105 1745.43 393.175C1748.77 398.611 1751.95 404.135 1753.82 410.257C1754.47 412.369 1754.57 414.651 1754.86 416.862C1755.02 418.127 1754.31 418.4 1753.12 418.392C1744 418.348 1734.89 418.366 1725.77 418.371C1723.9 418.371 1723.19 419.32 1723.93 420.892C1728.19 429.934 1732.45 438.971 1736.77 447.982C1737.04 448.536 1737.81 449.113 1738.42 449.201C1745.89 450.297 1752.88 452.909 1759.78 455.801C1760.16 455.959 1760.67 456.396 1760.69 456.731C1760.78 458.272 1760.73 459.823 1760.73 461.393L1760.72 461.395ZM1639.35 487.701C1636.87 479.152 1631.68 474.626 1624.34 474.447C1620.87 474.361 1617.71 475.265 1614.88 477.256C1611.25 479.81 1609.21 483.362 1608.41 487.732C1603.5 487.732 1598.66 487.748 1593.83 487.706C1593.35 487.701 1592.85 487.4 1592.4 487.147C1588.33 484.825 1584.26 482.483 1580.19 480.147C1578.42 479.134 1578.24 478.656 1578.84 476.611C1580.73 476.516 1581.92 475.073 1582.39 472.282H1662.95C1662.95 473.992 1662.95 475.593 1662.95 477.193C1662.96 481.948 1665.97 484.975 1670.78 485.017C1674.27 485.048 1677.75 485.043 1681.25 485.025C1686.25 484.996 1689.17 482.057 1689.19 477.079C1689.2 475.489 1689.19 473.898 1689.19 472.243H1756.57C1756.66 472.641 1756.75 472.976 1756.81 473.316C1757.15 475.299 1757.64 475.735 1759.63 475.73C1760.63 475.73 1761.63 475.686 1762.63 475.624C1763.51 475.569 1763.92 475.915 1763.92 476.816C1763.9 480.064 1763.9 483.312 1763.92 486.56C1763.92 487.464 1763.5 487.774 1762.63 487.75C1761.19 487.709 1759.75 487.74 1758.31 487.74C1756.01 487.74 1753.72 487.74 1751.48 487.74C1748.55 478.968 1743.86 474.758 1736.94 474.465C1733.52 474.319 1730.35 475.034 1727.5 476.907C1723.6 479.475 1721.32 483.136 1720.52 487.706H1639.35V487.701ZM1666.07 451.391C1666.07 442.731 1666.07 434.073 1666.07 425.413C1666.07 422.456 1667.79 420.744 1670.77 420.733C1674.26 420.72 1677.75 420.723 1681.24 420.733C1684.41 420.741 1686.12 422.373 1686.12 425.522C1686.14 442.754 1686.14 459.984 1686.12 477.217C1686.12 480.29 1684.44 481.93 1681.33 481.964C1677.84 482 1674.35 481.992 1670.86 481.972C1667.71 481.953 1666.07 480.272 1666.07 477.113C1666.06 468.541 1666.07 459.969 1666.07 451.394L1666.07 451.391ZM1724.96 489.917C1724.94 483.874 1729.8 478.95 1735.84 478.916C1741.92 478.882 1746.91 483.72 1746.95 489.686C1746.99 495.79 1742.1 500.732 1736 500.745C1729.93 500.758 1724.99 495.917 1724.96 489.917H1724.96ZM1612.89 489.8C1612.91 483.757 1617.79 478.916 1623.85 478.916C1629.88 478.916 1634.83 483.811 1634.87 489.8C1634.91 495.805 1629.89 500.763 1623.79 500.742C1617.73 500.724 1612.88 495.847 1612.89 489.8ZM1662.9 468.988H1582.33V467.008H1662.9V468.988H1662.9ZM1689.26 466.979H1756.03L1756.26 468.959H1689.26V466.979H1689.26ZM1575.51 406.185H1571.82C1571.82 402.365 1571.76 398.66 1571.84 394.955C1571.88 393.375 1573.16 392.234 1574.8 392.008C1576.4 391.788 1577.76 392.653 1578.45 394.446C1575.97 395.955 1575.33 398.328 1575.49 401.095C1575.59 402.766 1575.51 404.447 1575.51 406.185ZM1610.87 393.586H1598.38V389.888H1610.87V393.586ZM1613.8 393.627V389.893H1626.21V393.627H1613.8V393.627ZM1575.39 439.553V452.051H1571.87V439.553H1575.39ZM1575.44 454.819V467.301H1571.86V454.819H1575.44ZM1575.41 424.345V436.724H1571.88V424.345H1575.41V424.345ZM1571.88 421.469V409.106H1575.41V421.469H1571.88ZM1760.53 472.568C1760.37 472.581 1760.2 472.594 1760.04 472.607C1759.38 470.029 1759.36 467.356 1758.99 464.666H1760.53V472.568H1760.53ZM1578.76 473.807V463.489C1579.7 464.17 1579.7 473.137 1578.76 473.807Z" fill="#328FB8"/>
</g>
<g clip-path="url(#clip0_80_2)">
<path d="M339.819 510.994C339.283 513.773 338.747 516.552 338.213 519.334C337.875 521.106 337.519 522.875 337.214 524.652C337.056 525.579 336.566 525.972 335.624 525.967C330.595 525.946 325.565 525.967 320.535 525.943C318.977 525.936 318.62 525.171 319.396 523.606C324.16 513.959 328.849 504.257 332.257 494.055C335.304 484.937 337.8 475.639 340.482 466.405C340.815 465.261 341.299 464.814 342.496 465.07C352.014 467.108 361.66 467.963 371.379 468.12C380.582 468.27 389.736 467.722 398.796 466.023C400.154 465.767 401.494 465.419 402.842 465.106C404.052 464.824 404.643 465.217 404.799 466.462C407.261 486.247 413.903 504.756 422.201 522.761C423.557 525.7 423.388 526 420.075 526C400.261 526 380.447 526 360.635 525.99C355.215 525.99 349.798 525.964 344.378 525.951C342.299 525.946 342.132 525.773 341.861 523.748C341.333 519.83 340.774 515.917 340.222 512.003C340.175 511.668 340.074 511.34 339.996 511.006L339.819 510.994V510.994ZM343.378 467.831C343.42 468.417 343.412 468.846 343.485 469.259C344.24 473.444 344.963 477.633 345.785 481.802C348.601 496.093 353.287 509.733 360.245 522.583C360.682 523.389 361.15 523.65 362.043 523.65C380.811 523.624 399.577 523.626 418.345 523.621C418.795 523.621 419.243 523.585 419.841 523.557C411.674 505.585 405.085 487.301 402.504 467.8C382.695 471.778 363.12 471.209 343.376 467.831H343.378ZM358.064 523.583C349.233 507.489 344.435 490.442 341.469 472.754C337.016 490.392 330.334 507.153 322.177 523.417C322.508 523.515 322.622 523.58 322.737 523.58C326.51 523.588 330.282 523.58 334.053 523.606C334.768 523.611 334.99 523.324 335.117 522.642C336.298 516.221 337.519 509.808 338.742 503.392C338.89 502.612 338.916 501.651 340.063 501.631C341.211 501.61 341.273 502.488 341.393 503.328C342.226 509.113 343.103 514.891 343.907 520.679C344.31 523.575 344.255 523.583 347.235 523.583C350.734 523.583 354.231 523.583 358.059 523.583H358.064Z" fill="#86D2E8"/>
<path d="M377.732 481.523C380.855 481.523 383.977 481.556 387.1 481.504C388.164 481.486 388.695 481.913 388.934 482.899C389.967 487.156 391.031 491.407 392.062 495.664C392.4 497.059 391.968 497.645 390.537 497.653C384.25 497.684 377.961 497.676 371.675 497.694C370.678 497.697 370.056 497.319 369.809 496.299C368.763 492.001 367.668 487.714 366.622 483.416C366.294 482.065 366.775 481.53 368.238 481.528C371.404 481.52 374.568 481.528 377.735 481.528L377.732 481.523ZM389.413 495.165C388.538 491.593 387.711 488.091 386.785 484.617C386.696 484.289 385.981 483.925 385.554 483.919C380.527 483.876 375.502 483.894 370.475 483.904C370.145 483.904 369.814 483.963 369.299 484.01C370.231 487.802 371.139 491.487 372.042 495.165H389.413V495.165Z" fill="#86D2E8"/>
</g>
<path d="M167.145 404.93L142.089 262L107.782 404.93L124.358 392.602L102 474.277L127.056 443.841V539H142.089V443.841L171 474.277L152.497 392.602L167.145 404.93Z" stroke="#4FA5C7" stroke-width="3" stroke-linecap="round"/>
<path opacity="0.47" d="M205.458 453.815L221.436 363L243.313 453.815L232.743 445.982L247 497.876L231.022 478.538V539H221.436V478.538L203 497.876L214.799 445.982L205.458 453.815Z" stroke="#63AECB" stroke-width="3" stroke-linecap="round"/>
<path opacity="0.26" d="M50.5642 483.823L60.7318 425L74.6536 483.823L67.9274 478.75L77 512.363L66.8324 499.837V539H60.7318V499.837L49 512.363L56.5084 478.75L50.5642 483.823Z" stroke="#53A8BF" stroke-width="3" stroke-linecap="round"/>
<defs>
<clipPath id="clip0_80_2">
<rect width="104" height="61" fill="white" transform="translate(319 465)"/>
</clipPath>
</defs>
</svg>
