<svg width="1768" height="444" viewBox="0 0 1768 444" fill="none" xmlns="http://www.w3.org/2000/svg">
<path opacity="0.26" d="M10.7708 386.823L20.9384 328L34.8602 386.823L28.1339 381.75L37.2065 415.363L27.0389 402.837V442H20.9384V402.837L9.20654 415.363L16.7149 381.75L10.7708 386.823Z" stroke="#53A8BF" stroke-width="3" stroke-linecap="round"/>
<path opacity="0.47" d="M415.324 391.764L422.586 351L432.531 391.764L427.726 388.248L434.207 411.541L426.944 402.861V430H422.586V402.861L414.207 411.541L419.57 388.248L415.324 391.764Z" stroke="#48B1D8" stroke-width="2" stroke-linecap="round"/>
<path opacity="0.47" d="M165.665 356.815L181.642 266L203.519 356.815L192.95 348.982L207.207 400.876L191.229 381.538V442H181.642V381.538L163.207 400.876L175.005 348.982L165.665 356.815Z" stroke="#63AECB" stroke-width="3" stroke-linecap="round"/>
<path opacity="0.47" d="M1120.04 414.412L1125.49 385L1132.95 414.412L1129.35 411.875L1134.21 428.681L1128.76 422.419V442H1125.49V422.419L1119.21 428.681L1123.23 411.875L1120.04 414.412Z" stroke="#8DCCE7" stroke-width="2" stroke-linecap="round"/>
<path opacity="0.47" d="M1391.66 392.147L1401.1 339L1414.03 392.147L1407.78 387.563L1416.21 417.933L1406.77 406.616V442H1401.1V406.616L1390.21 417.933L1397.18 387.563L1391.66 392.147Z" stroke="#8DCCE7" stroke-width="3" stroke-linecap="round"/>
<path d="M127.352 307.93L102.296 165L67.9887 307.93L84.5641 295.602L62.2065 377.277L87.2624 346.841V442H102.296V346.841L131.207 377.277L112.704 295.602L127.352 307.93Z" stroke="#4FA5C7" stroke-width="3" stroke-linecap="round"/>
<path opacity="0.47" d="M512.212 409.088L518.748 374L527.698 409.088L523.374 406.061L529.207 426.111L522.67 418.64V442H518.748V418.64L511.207 426.111L516.033 406.061L512.212 409.088Z" stroke="#3894BB" stroke-width="2" stroke-linecap="round"/>
<path d="M1507.24 291.658C1507.24 292.881 1507.11 294.127 1507.3 295.325C1507.39 295.913 1508.09 296.89 1508.46 296.864C1510.06 296.765 1512.14 298.015 1513.09 295.501C1513.2 295.215 1514.18 295.159 1514.76 295.156C1522.84 295.134 1530.92 295.141 1539 295.141C1572.31 295.141 1605.62 295.141 1638.93 295.145C1639.97 295.145 1640.76 295.126 1641.62 296.28C1642.21 297.067 1644.31 296.931 1645.7 296.809C1646.12 296.773 1646.69 295.428 1646.74 294.652C1646.88 292.459 1646.77 290.246 1646.8 288.042C1646.82 286.814 1646.26 286.146 1645.03 286.26C1643.53 286.399 1641.58 285.451 1640.89 287.865C1640.82 288.089 1639.76 288.097 1639.17 288.101C1624.49 288.115 1609.8 288.115 1595.12 288.115C1568.54 288.115 1541.95 288.115 1515.37 288.108C1514.25 288.108 1513.4 288.123 1512.47 286.91C1511.86 286.113 1509.66 286.355 1508.2 286.469C1507.83 286.498 1507.39 287.784 1507.27 288.538C1507.11 289.556 1507.23 290.614 1507.23 291.654H1507.24L1507.24 291.658Z" fill="#328FB8"/>
<path d="M1550.9 351.74C1558.55 351.74 1566.19 351.748 1573.83 351.737C1579.48 351.729 1583.3 348.143 1583.36 342.517C1583.46 334.073 1583.45 325.625 1583.36 317.181C1583.31 311.923 1579.53 308.141 1574.21 308.119C1558.55 308.053 1542.9 308.05 1527.24 308.119C1521.92 308.145 1518.27 311.941 1518.24 317.251C1518.19 325.695 1518.19 334.139 1518.24 342.587C1518.27 348.066 1522.05 351.722 1527.6 351.733C1535.37 351.748 1543.13 351.737 1550.9 351.733L1550.9 351.74ZM1550.75 347.36C1543.1 347.36 1535.45 347.368 1527.81 347.36C1524.38 347.357 1522.61 345.732 1522.59 342.355C1522.54 334.091 1522.54 325.824 1522.59 317.559C1522.61 314.197 1524.4 312.481 1527.77 312.477C1543.13 312.463 1558.48 312.463 1573.84 312.477C1577.15 312.477 1578.98 314.318 1578.99 317.611C1579.01 325.754 1579.02 333.897 1579 342.039C1578.99 345.714 1577.27 347.357 1573.51 347.36C1565.93 347.368 1558.34 347.36 1550.76 347.36H1550.75Z" fill="#328FB8"/>
<path d="M1674.62 348.032C1680.84 348.032 1687.07 348.04 1693.3 348.032C1698.42 348.025 1700.72 344.508 1698.57 339.933C1694.74 331.798 1690.87 323.684 1687.09 315.527C1685.92 312.995 1684.07 311.845 1681.29 311.86C1672.66 311.896 1664.02 311.848 1655.39 311.882C1651.49 311.896 1649.57 313.756 1649.55 317.632C1649.49 325.834 1649.49 334.036 1649.54 342.237C1649.56 346.11 1651.63 348.025 1655.57 348.028C1661.92 348.04 1668.27 348.028 1674.62 348.028V348.032ZM1674.54 343.656C1668.31 343.656 1662.08 343.608 1655.86 343.689C1654.28 343.707 1653.84 343.149 1653.85 341.668C1653.9 333.834 1653.9 325.996 1653.85 318.158C1653.84 316.614 1654.41 316.159 1655.92 316.166C1664.24 316.221 1672.57 316.218 1680.89 316.166C1682.14 316.159 1682.76 316.618 1683.27 317.702C1686.99 325.683 1690.77 333.639 1694.51 341.609C1695.32 343.325 1695.11 343.645 1693.22 343.648C1686.99 343.659 1680.77 343.652 1674.54 343.652L1674.54 343.656Z" fill="#328FB8"/>
<path d="M1688.04 299.744C1693.71 299.744 1699.38 299.755 1705.05 299.741C1709.45 299.73 1711.51 297.683 1711.51 293.354C1711.51 291.517 1711.54 289.683 1711.49 287.846C1711.42 284.741 1709.12 282.367 1705.98 282.356C1694.02 282.308 1682.06 282.312 1670.11 282.353C1666.81 282.364 1664.57 284.679 1664.52 287.931C1664.49 289.827 1664.51 291.723 1664.52 293.622C1664.53 297.62 1666.6 299.719 1670.66 299.741C1676.46 299.774 1682.25 299.748 1688.05 299.748L1688.04 299.744ZM1687.97 286.714C1693.65 286.714 1699.33 286.762 1705 286.685C1706.64 286.663 1707.22 287.232 1707.11 288.82C1707.01 290.22 1707.1 291.635 1707.09 293.046C1707.08 295.302 1706.96 295.434 1704.68 295.438C1695.79 295.445 1686.91 295.441 1678.03 295.441C1675.75 295.441 1673.46 295.383 1671.18 295.46C1669.57 295.519 1668.75 295.048 1668.89 293.277C1669.02 291.756 1669 290.212 1668.9 288.688C1668.8 287.141 1669.44 286.67 1670.95 286.689C1676.62 286.751 1682.29 286.714 1687.97 286.714H1687.97Z" fill="#328FB8"/>
<path d="M1613.1 357.457C1613.08 359.39 1614.63 360.945 1616.59 360.956C1618.57 360.97 1620.11 359.46 1620.12 357.505C1620.14 355.561 1618.59 353.992 1616.64 353.978C1614.71 353.967 1613.11 355.536 1613.09 357.457H1613.1Z" fill="#328FB8"/>
<path d="M1699.42 410.228C1699.48 415.604 1704.06 420.098 1709.39 420.01C1714.82 419.918 1719.31 415.358 1719.18 410.063C1719.05 404.705 1714.67 400.406 1709.32 400.388C1703.96 400.366 1699.36 404.937 1699.42 410.228ZM1703.82 410.353C1703.68 407.553 1706.11 404.937 1709.04 404.742C1711.94 404.551 1714.67 407.053 1714.8 410.023C1714.92 412.848 1712.5 415.443 1709.56 415.634C1706.67 415.825 1703.97 413.341 1703.82 410.35V410.353Z" fill="#328FB8"/>
<path d="M1560.57 410.158C1560.55 404.705 1556.12 400.322 1550.68 400.391C1545.25 400.461 1540.87 404.919 1540.91 410.32C1540.96 415.593 1545.45 420.01 1550.75 420.006C1556.21 420.003 1560.58 415.619 1560.56 410.158H1560.57ZM1556.17 410.276C1556.14 413.234 1553.72 415.634 1550.76 415.641C1547.76 415.652 1545.29 413.139 1545.33 410.103C1545.36 407.175 1547.83 404.738 1550.76 404.731C1553.77 404.724 1556.21 407.223 1556.17 410.276Z" fill="#328FB8"/>
<path d="M1558.3 274.074V268.749C1561.8 268.749 1565.18 268.819 1568.55 268.698C1569.33 268.669 1570.41 268.176 1570.78 267.559C1571.55 266.288 1570.49 265.034 1568.74 265.02C1564.73 264.987 1560.72 265.005 1556.71 265.005C1538.14 265.005 1519.58 265.005 1501.01 265.005C1500.64 265.005 1500.27 265.001 1499.9 265.012C1498.74 265.053 1498.01 265.63 1497.98 266.798C1497.94 268.062 1498.67 268.72 1499.93 268.727C1502.83 268.749 1505.72 268.738 1508.63 268.742C1509.28 268.742 1509.95 268.742 1510.73 268.742V274.203C1508.53 274.203 1506.39 274.203 1504.25 274.203C1500.06 274.203 1495.86 274.239 1491.67 274.162C1491.11 274.151 1490.3 273.703 1490.04 273.225C1487.87 269.231 1484.12 267.269 1480.17 268.195C1475.8 269.22 1473.22 272.586 1473.22 277.337C1473.2 293.443 1473.22 309.548 1473.22 325.654C1473.22 344.7 1473.22 363.745 1473.22 382.787C1473.22 383.275 1473.22 383.768 1473.22 384.256C1473.23 385.572 1473.7 386.623 1475.18 386.627C1476.7 386.63 1477.07 385.502 1477.12 384.227C1477.13 383.624 1477.12 383.025 1477.12 382.331H1482.41C1482.41 386.119 1482.52 389.838 1482.37 393.549C1482.26 396.471 1483.44 398.393 1485.97 399.807C1492.13 403.254 1498.2 406.881 1504.39 410.28C1505.78 411.041 1507.51 411.511 1509.09 411.548C1515.62 411.687 1522.16 411.606 1528.7 411.606C1529.37 411.606 1530.04 411.606 1530.8 411.606C1531.48 417.372 1533.86 422.13 1538.38 425.691C1542.19 428.69 1546.57 430.137 1551.43 429.99C1559.8 429.737 1569.19 423.828 1570.74 411.731H1689.36C1690.05 417.673 1692.65 422.582 1697.53 426.158C1701.11 428.781 1705.18 430.042 1709.63 430.001C1719.53 429.91 1725.9 424.038 1729.4 411.606C1730.97 411.606 1732.61 411.606 1734.25 411.606C1738.57 411.606 1742.88 411.621 1747.2 411.603C1750.96 411.584 1753.13 409.556 1753.19 405.87C1753.25 401.035 1753.19 396.195 1753.17 391.359C1753.16 388.931 1752.08 387.196 1749.82 386.101C1749.31 385.851 1748.82 384.955 1748.81 384.352C1748.72 377.741 1748.73 371.127 1748.71 364.513C1748.7 360.475 1747.86 359.291 1744.08 357.752C1734.68 353.923 1725.21 350.311 1715.1 348.745C1714.59 348.668 1713.95 348.205 1713.73 347.753C1708.4 336.538 1703.11 325.301 1697.82 314.068C1697.78 313.969 1697.81 313.833 1697.81 313.521C1698.48 313.521 1699.14 313.521 1699.79 313.521C1711.2 313.521 1722.61 313.517 1734.02 313.51C1738.2 313.51 1740.08 311.716 1740.43 307.59C1740.87 302.442 1739.45 297.65 1737.64 292.947C1734.69 285.263 1730.72 278.09 1726.37 271.12C1724.71 268.481 1722.24 267.445 1719.17 267.456C1710.41 267.489 1701.65 267.474 1692.89 267.474C1671.43 267.474 1649.97 267.555 1628.5 267.423C1618.44 267.361 1608.61 268.922 1598.89 271.142C1585.55 274.188 1572.06 274.629 1558.3 274.078V274.074ZM1744.34 369.977C1741.43 370.569 1737.53 368.632 1736.95 373.269H1643.18C1643.18 372.399 1643.18 371.623 1643.18 370.852C1643.18 353.643 1643.19 336.435 1643.18 319.227C1643.17 312.378 1638.86 308.126 1631.98 308.101C1627.11 308.082 1622.24 308.082 1617.36 308.101C1610.41 308.123 1606.07 312.448 1606.07 319.352C1606.06 336.56 1606.07 353.768 1606.07 370.977C1606.07 371.697 1606.07 372.413 1606.07 373.244H1492.17C1491.26 369.514 1491.22 369.481 1486.82 368.823C1486.82 368.195 1486.82 367.533 1486.82 366.872C1486.82 339.191 1486.82 311.511 1486.82 283.83C1486.82 279.773 1488.01 278.594 1492.1 278.594C1517.7 278.594 1543.3 278.498 1568.9 278.638C1579.19 278.693 1589.28 277.554 1599.33 275.445C1608.91 273.431 1618.53 271.671 1628.4 271.715C1648.21 271.803 1668 271.752 1687.81 271.755C1698.11 271.755 1708.41 271.763 1718.71 271.748C1720.32 271.748 1721.78 271.987 1722.71 273.501C1727.43 281.188 1731.93 289 1734.58 297.657C1735.49 300.645 1735.64 303.871 1736.04 306.998C1736.27 308.788 1735.26 309.174 1733.58 309.163C1720.69 309.1 1707.8 309.126 1694.91 309.133C1692.27 309.133 1691.26 310.474 1692.31 312.698C1698.32 325.485 1704.35 338.265 1710.47 351.009C1710.84 351.791 1711.93 352.607 1712.79 352.732C1723.36 354.283 1733.25 357.976 1743.01 362.066C1743.55 362.29 1744.26 362.907 1744.29 363.381C1744.42 365.56 1744.35 367.754 1744.35 369.973L1744.34 369.977ZM1572.69 407.179C1569.18 395.089 1561.85 388.688 1551.46 388.434C1546.55 388.313 1542.09 389.592 1538.09 392.407C1532.95 396.019 1530.06 401.042 1528.93 407.223C1521.99 407.223 1515.15 407.245 1508.31 407.186C1507.64 407.179 1506.93 406.752 1506.3 406.396C1500.53 403.111 1494.78 399.8 1489.03 396.497C1486.53 395.063 1486.27 394.387 1487.12 391.495C1489.8 391.361 1491.47 389.32 1492.14 385.374H1606.07C1606.07 387.791 1606.06 390.055 1606.07 392.319C1606.08 399.043 1610.34 403.324 1617.14 403.383C1622.07 403.427 1627 403.419 1631.94 403.394C1639.01 403.353 1643.15 399.197 1643.18 392.157C1643.19 389.908 1643.18 387.659 1643.18 385.318H1738.47C1738.59 385.881 1738.72 386.355 1738.8 386.836C1739.28 389.64 1739.98 390.257 1742.79 390.25C1744.21 390.25 1745.62 390.187 1747.04 390.099C1748.28 390.022 1748.86 390.511 1748.85 391.786C1748.83 396.379 1748.83 400.972 1748.85 405.565C1748.86 406.844 1748.27 407.281 1747.03 407.248C1745 407.19 1742.96 407.234 1740.92 407.234C1737.68 407.234 1734.43 407.234 1731.26 407.234C1727.12 394.828 1720.48 388.875 1710.71 388.46C1705.87 388.254 1701.39 389.265 1697.36 391.914C1691.83 395.545 1688.61 400.722 1687.48 407.186H1572.69V407.179ZM1610.48 355.83C1610.48 343.582 1610.47 331.339 1610.48 319.091C1610.48 314.91 1612.92 312.488 1617.13 312.473C1622.06 312.455 1627 312.459 1631.93 312.473C1636.41 312.484 1638.83 314.792 1638.84 319.246C1638.86 343.616 1638.87 367.982 1638.84 392.352C1638.83 396.699 1636.45 399.017 1632.06 399.065C1627.12 399.117 1622.19 399.105 1617.26 399.076C1612.8 399.05 1610.47 396.673 1610.47 392.205C1610.47 380.082 1610.47 367.96 1610.47 355.834L1610.48 355.83ZM1693.77 410.313C1693.73 401.766 1700.61 394.803 1709.14 394.755C1717.74 394.707 1724.8 401.549 1724.86 409.986C1724.92 418.618 1718 425.607 1709.38 425.625C1700.79 425.643 1693.81 418.798 1693.76 410.313H1693.77ZM1535.28 410.148C1535.3 401.601 1542.2 394.755 1550.78 394.755C1559.3 394.755 1566.31 401.678 1566.36 410.148C1566.42 418.64 1559.32 425.651 1550.68 425.621C1542.12 425.596 1535.25 418.698 1535.28 410.148ZM1606 380.714H1492.05V377.914H1606V380.714H1606ZM1643.28 377.874H1737.71L1738.03 380.674H1643.28V377.874H1643.28ZM1482.41 291.899H1477.19C1477.19 286.498 1477.11 281.258 1477.23 276.018C1477.28 273.784 1479.09 272.171 1481.41 271.851C1483.67 271.539 1485.59 272.762 1486.57 275.298C1483.06 277.433 1482.15 280.787 1482.38 284.701C1482.52 287.064 1482.41 289.441 1482.41 291.899ZM1532.42 274.081H1514.75V268.852H1532.42V274.081ZM1536.56 274.14V268.86H1554.11V274.14H1536.56ZM1482.24 339.088V356.763H1477.27V339.088H1482.24ZM1482.32 360.677V378.329H1477.25V360.677H1482.32ZM1482.26 317.581V335.087H1477.28V317.581H1482.26ZM1477.28 313.513V296.03H1482.27V313.513H1477.28ZM1744.06 385.778C1743.83 385.796 1743.6 385.814 1743.38 385.833C1742.43 382.188 1742.41 378.407 1741.88 374.603H1744.06V385.778H1744.06ZM1487.01 387.531V372.939C1488.34 373.901 1488.33 386.582 1487.01 387.531Z" fill="#328FB8"/>
<path d="M300.025 413.993C299.489 416.773 298.953 419.552 298.42 422.334C298.081 424.105 297.725 425.875 297.421 427.652C297.262 428.579 296.773 428.972 295.831 428.966C290.801 428.946 285.771 428.966 280.742 428.943C279.183 428.935 278.827 428.171 279.602 426.606C284.366 416.959 289.055 407.257 292.464 397.055C295.511 387.937 298.006 378.639 300.689 369.405C301.022 368.261 301.506 367.814 302.703 368.07C312.221 370.108 321.866 370.963 331.585 371.12C340.788 371.27 349.942 370.722 359.002 369.023C360.361 368.767 361.701 368.418 363.049 368.106C364.259 367.824 364.849 368.217 365.005 369.462C367.467 389.247 374.11 407.756 382.408 425.761C383.763 428.7 383.594 429 380.282 429C360.467 429 340.653 429 320.841 428.99C315.421 428.99 310.004 428.964 304.584 428.951C302.505 428.946 302.338 428.773 302.068 426.748C301.54 422.829 300.98 418.916 300.428 415.003C300.382 414.668 300.28 414.34 300.202 414.006L300.025 413.993V413.993ZM303.585 370.831C303.626 371.417 303.619 371.846 303.691 372.259C304.446 376.443 305.169 380.633 305.992 384.802C308.807 399.093 313.493 412.733 320.451 425.583C320.888 426.389 321.356 426.65 322.249 426.65C341.017 426.624 359.783 426.626 378.551 426.621C379.002 426.621 379.449 426.585 380.048 426.557C371.88 408.585 365.292 390.301 362.71 370.8C342.901 374.777 323.326 374.209 303.582 370.831H303.585ZM318.27 426.582C309.439 410.488 304.641 393.441 301.675 375.754C297.223 393.392 290.541 410.153 282.383 426.417C282.714 426.515 282.828 426.58 282.943 426.58C286.716 426.588 290.489 426.58 294.259 426.606C294.975 426.611 295.196 426.324 295.323 425.642C296.505 419.221 297.725 412.808 298.948 406.392C299.096 405.612 299.122 404.651 300.27 404.63C301.417 404.61 301.48 405.488 301.599 406.327C302.432 412.113 303.309 417.891 304.113 423.679C304.516 426.575 304.462 426.582 307.441 426.582C310.941 426.582 314.438 426.582 318.265 426.582H318.27Z" fill="#86D2E8"/>
<path d="M337.939 384.523C341.061 384.523 344.184 384.556 347.306 384.504C348.37 384.486 348.901 384.913 349.141 385.899C350.174 390.156 351.238 394.407 352.268 398.664C352.606 400.059 352.174 400.645 350.743 400.653C344.457 400.684 338.168 400.676 331.881 400.694C330.885 400.697 330.263 400.319 330.016 399.299C328.97 395.001 327.874 390.714 326.828 386.416C326.5 385.065 326.982 384.53 328.444 384.528C331.611 384.52 334.775 384.528 337.941 384.528L337.939 384.523ZM349.619 398.165C348.745 394.593 347.918 391.091 346.991 387.617C346.903 387.289 346.187 386.925 345.76 386.919C340.733 386.876 335.709 386.894 330.682 386.904C330.351 386.904 330.021 386.963 329.506 387.01C330.437 390.802 331.345 394.487 332.248 398.165H349.619V398.165Z" fill="#86D2E8"/>
<path d="M1526.24 58.5256C1524.12 60.4855 1521.74 61.6852 1518.92 61.7979C1513.09 62.035 1508.07 57.9879 1507.32 52.4723C1506.51 46.4306 1510.09 41.181 1516 39.8773C1516.86 39.6894 1517.2 39.3801 1517.34 38.536C1518.49 32.0173 1523.39 28.2911 1530.04 28.823C1530.32 28.8461 1530.61 28.8548 1531.01 28.875C1532.84 23.4202 1536.43 19.957 1542.4 20.0004C1548.36 20.0438 1551.95 23.4953 1553.7 29.0774C1557.02 28.4328 1560.12 28.6178 1562.96 30.465C1565.92 32.3873 1567.72 35.067 1568.18 38.5649C1568.3 39.4321 1568.55 39.8888 1569.46 40.1779C1575.7 42.1639 1578.83 48.908 1576.36 54.9468C1573.94 60.8787 1566.98 63.5208 1561.17 60.6532C1560.34 60.2427 1559.78 60.2224 1558.95 60.6792C1556.73 61.9164 1554.4 62.0378 1551.98 61.1186C1551.44 60.9105 1550.65 60.948 1550.11 61.1735C1546.78 62.5437 1543.68 62.2575 1540.89 59.9594C1540.1 59.3061 1539.62 59.1615 1538.7 59.8004C1535.07 62.3125 1530.61 62.0552 1527.16 59.2801C1526.9 59.069 1526.64 58.858 1526.23 58.5285L1526.24 58.5256ZM1509.37 50.7263C1509.35 54.3311 1511.59 57.6468 1514.91 58.9563C1518.55 60.3872 1522.23 59.5431 1524.95 56.6524C1526.19 55.3284 1526.44 55.3197 1527.55 56.5627C1530.74 60.1357 1535.26 60.2774 1538.75 56.9183C1539.82 55.8863 1540.22 55.9181 1541.16 57.1033C1543.44 59.9999 1546.69 60.6474 1549.88 58.7395C1550.7 58.2452 1551.31 58.3001 1552.13 58.7279C1554.37 59.8958 1556.63 59.8409 1558.65 58.2683C1559.65 57.4878 1560.37 57.5861 1561.34 58.2307C1563.17 59.4362 1565.22 59.942 1567.41 59.5373C1571.91 58.7077 1574.95 55.1925 1575 50.8217C1575.05 46.4566 1572.12 42.875 1567.62 41.9499C1566.59 41.7389 1566.14 41.3602 1566.1 40.2733C1565.86 33.4049 1560.15 29.4301 1553.55 31.5114C1552.19 31.9421 1551.8 31.7138 1551.58 30.3696C1550.8 25.5304 1547.2 22.2523 1542.58 22.1743C1537.79 22.0933 1534.14 25.1228 1533.19 30.0487C1532.97 31.1934 1532.47 31.6155 1531.29 31.3351C1524.87 29.7972 1519.75 33.5639 1519.43 40.0825C1519.37 41.2677 1518.94 41.7823 1517.71 41.8661C1512.92 42.1841 1509.39 45.9826 1509.37 50.7263V50.7263Z" fill="white" fill-opacity="0.49"/>
<path d="M232.565 44.9962C227.25 44.9962 221.935 45.0049 216.62 44.994C211.867 44.9831 207.875 41.7617 207.306 37.5021C206.646 32.5673 209.308 28.3515 214.206 27.2981C216.017 26.9091 216.377 26.1835 216.658 24.658C217.466 20.2696 221.266 16.8427 225.844 16.1302C230.368 15.4265 235.06 17.6229 237.251 21.5503C237.713 22.3786 238.164 22.7107 239.199 22.6976C242.91 22.6474 245.574 24.387 247.116 27.6805C247.431 28.3537 247.737 28.5875 248.5 28.5657C252.934 28.4389 256.631 31.4855 257.137 35.6161C257.684 40.0657 254.94 43.9056 250.504 44.8323C249.749 44.9896 248.953 44.9896 248.176 44.9918C242.973 45.0049 237.769 44.9984 232.565 44.9984V44.9962ZM232.644 43.3789C237.999 43.3789 243.354 43.4073 248.71 43.3702C252.86 43.3396 255.839 40.116 255.518 36.0947C255.218 32.3247 251.601 29.6497 247.576 30.3075C246.518 30.4802 246.123 30.1633 245.869 29.1842C245.001 25.8535 241.598 23.7598 238.166 24.4482C237.209 24.6405 236.756 24.4001 236.374 23.5347C234.451 19.155 230.164 16.9454 225.523 17.8786C221.136 18.7616 218.001 22.6364 218.039 27.2325C218.048 28.2794 217.716 28.6509 216.624 28.6181C214.036 28.5416 211.894 29.5491 210.359 31.586C208.571 33.9595 208.317 36.5864 209.64 39.2177C211.008 41.9343 213.38 43.333 216.466 43.3636C221.857 43.4161 227.25 43.3789 232.644 43.3767V43.3789Z" fill="white" fill-opacity="0.49"/>
<path d="M115.35 35.9986C113.224 35.9986 111.098 36.0019 108.972 35.9977C107.071 35.9936 105.474 34.7717 105.246 33.156C104.982 31.2841 106.047 29.685 108.006 29.2855C108.731 29.1379 108.875 28.8627 108.987 28.2841C109.31 26.6195 110.83 25.3196 112.662 25.0494C114.471 24.7825 116.348 25.6156 117.224 27.1053C117.409 27.4195 117.59 27.5455 118.004 27.5405C119.488 27.5214 120.554 28.1813 121.17 29.4306C121.296 29.6859 121.419 29.7746 121.724 29.7663C123.497 29.7182 124.976 30.8738 125.179 32.4406C125.398 34.1284 124.3 35.5849 122.525 35.9364C122.224 35.9961 121.905 35.9961 121.594 35.9969C119.513 36.0019 117.432 35.9994 115.35 35.9994V35.9986ZM115.381 35.3851C117.523 35.3851 119.666 35.3959 121.808 35.3818C123.468 35.3702 124.659 34.1474 124.531 32.6221C124.411 31.1921 122.964 30.1775 121.354 30.427C120.931 30.4925 120.773 30.3723 120.672 30.0009C120.324 28.7375 118.963 27.9434 117.59 28.2045C117.208 28.2774 117.026 28.1863 116.874 27.858C116.104 26.1967 114.39 25.3586 112.533 25.7126C110.778 26.0475 109.524 27.5173 109.54 29.2606C109.543 29.6577 109.41 29.7986 108.974 29.7862C107.938 29.7572 107.081 30.1393 106.467 30.9119C105.752 31.8122 105.651 32.8086 106.18 33.8067C106.727 34.8372 107.676 35.3677 108.91 35.3793C111.067 35.3992 113.224 35.3851 115.381 35.3843V35.3851Z" fill="#0DA0C9" fill-opacity="0.15"/>
<path opacity="0.44" d="M348.686 5.88829C348.992 5.1919 349.225 4.50993 349.576 3.88977C352.374 -1.07149 359.486 -1.34551 362.63 3.4056C363.021 3.99691 363.418 4.21118 364.125 4.26269C367.551 4.51817 370.179 6.64649 370.977 9.71019C371.772 12.776 370.466 15.8582 367.639 17.7537C367.32 17.968 367.047 18.4851 367.036 18.8683C366.971 21.4087 365.943 23.4052 363.659 24.6434C361.381 25.8776 359.068 25.7684 356.919 24.3426C356.239 23.8914 355.898 24.0006 355.327 24.4518C351.224 27.6803 345.289 25.6056 344.087 20.5784C343.99 20.1746 343.577 19.6863 343.188 19.5318C339.292 17.9906 337.3 14.0431 338.606 10.3303C339.979 6.42809 343.952 4.50169 348.067 5.74613C348.258 5.80382 348.457 5.83472 348.686 5.88623V5.88829ZM369.579 12.0507C369.574 8.20821 366.845 5.66165 363.447 5.83884C362.565 5.88417 362.051 5.69256 361.637 4.86843C360.405 2.40634 357.87 1.21341 355.099 1.67698C352.584 2.09729 350.6 4.20088 350.241 6.82574C350.061 8.14022 349.735 8.30917 348.56 7.68901C346.429 6.56407 344.315 6.5888 342.325 7.94655C340.298 9.33109 339.475 11.309 339.935 13.6887C340.394 16.0704 341.922 17.5827 344.311 18.1616C345.168 18.3697 345.522 18.7447 345.592 19.608C345.783 21.9506 347.143 23.5061 349.362 24.186C351.549 24.8556 353.503 24.2623 355.059 22.5604C355.949 21.588 356.117 21.5756 357.049 22.4554C358.619 23.9367 360.708 24.32 362.549 23.4649C364.528 22.544 365.657 20.6855 365.319 18.516C365.154 17.4447 365.502 17.0058 366.428 16.5546C368.518 15.5347 369.516 13.7649 369.579 12.0548V12.0507Z" fill="white"/>
<path opacity="0.15" d="M10.6858 41.8883C10.9923 41.1919 11.2253 40.5099 11.5759 39.8898C14.374 34.9285 21.4859 34.6545 24.6304 39.4056C25.0208 39.9969 25.4176 40.2112 26.125 40.2627C29.5508 40.5182 32.1789 42.6465 32.9765 45.7102C33.7721 48.776 32.4664 51.8582 29.6389 53.7537C29.3198 53.968 29.047 54.4851 29.0365 54.8683C28.9714 57.4087 27.9428 59.4052 25.659 60.6434C23.3814 61.8776 21.0682 61.7684 18.9186 60.3426C18.2385 59.8914 17.8985 60.0006 17.3275 60.4518C13.2237 63.6803 7.28945 61.6056 6.08664 56.5784C5.99008 56.1746 5.57655 55.6863 5.18821 55.5318C1.29222 53.9906 -0.699854 50.0431 0.605807 46.3303C1.97864 42.4281 5.9523 40.5017 10.0666 41.7461C10.2576 41.8038 10.457 41.8347 10.6858 41.8862V41.8883ZM31.5785 48.0507C31.5743 44.2082 28.8454 41.6617 25.4469 41.8388C24.5653 41.8842 24.051 41.6926 23.6375 40.8684C22.4053 38.4063 19.8695 37.2134 17.0987 37.677C14.5839 38.0973 12.6003 40.2009 12.2413 42.8257C12.0608 44.1402 11.7354 44.3092 10.5599 43.689C8.42927 42.5641 6.31545 42.5888 4.32547 43.9466C2.29771 45.3311 1.47485 47.309 1.93456 49.6887C2.39427 52.0704 3.92244 53.5827 6.31125 54.1616C7.1677 54.3697 7.52245 54.7447 7.59172 55.608C7.78274 57.9506 9.14298 59.5061 11.3618 60.186C13.5491 60.8556 15.5034 60.2623 17.0588 58.5604C17.9488 57.588 18.1168 57.5756 19.0488 58.4554C20.6189 59.9367 22.7076 60.32 24.5485 59.4649C26.528 58.544 27.6573 56.6855 27.3194 54.516C27.1535 53.4447 27.502 53.0058 28.4277 52.5546C30.5185 51.5347 31.5155 49.7649 31.5785 48.0548V48.0507Z" fill="#0DA0C9"/>
<path opacity="0.33" d="M303.465 91.9907C300.646 91.9907 297.83 91.9995 295.011 91.9907C288.662 91.9664 283.702 87.4979 283.241 81.3981C282.78 75.3005 287.025 70.0361 293.27 69.1852C294.735 68.9868 296.296 69.2403 297.774 69.5026C298.547 69.6393 298.863 69.4938 299.272 68.8898C302.478 64.1501 306.987 61.831 312.744 62.0096C319.441 62.2168 325.16 66.9785 326.805 73.6317C328.357 79.9012 325.294 86.8322 319.568 90.0132C317.192 91.3315 314.654 92.0215 311.918 91.9995C309.099 91.9774 306.283 91.9951 303.465 91.9951V91.9907ZM303.551 90.3351C306.443 90.3351 309.338 90.3726 312.23 90.3285C322.402 90.1698 328.796 79.2465 323.787 70.5277C321.215 66.0504 317.226 63.6718 312.027 63.6696C306.784 63.6696 302.808 66.0835 300.205 70.6027C299.689 71.4999 299.223 71.6983 298.17 71.3743C296.852 70.9664 295.394 70.671 294.036 70.7857C288.428 71.253 284.639 75.6995 284.906 81.2812C285.144 86.3009 289.592 90.3042 294.987 90.3329C297.843 90.3483 300.697 90.3351 303.554 90.3373L303.551 90.3351Z" fill="white"/>
<path d="M1418.02 21.7419C1418.26 21.2525 1418.47 20.7588 1418.74 20.2974C1420.41 17.3954 1422.96 15.8841 1426.29 16.0069C1429.53 16.1277 1431.95 17.7253 1433.4 20.6531C1433.71 21.2697 1434 21.5457 1434.76 21.5155C1438.88 21.3495 1441.92 24.3765 1441.77 28.4837C1441.74 29.3073 1441.92 29.7428 1442.7 30.1352C1445.27 31.4374 1446.51 34.0397 1446.14 37.0754C1445.82 39.6496 1443.77 41.8638 1440.99 42.5236C1440.34 42.6788 1439.95 42.9203 1439.65 43.5477C1438.13 46.7321 1434.51 48.1529 1431.18 46.8614C1430.57 46.6264 1430.26 46.6286 1429.84 47.1805C1426.93 51.0225 1421.65 50.9169 1418.84 46.993C1418.67 46.7644 1418.5 46.5467 1418.48 46.523C1417.03 46.8054 1415.75 47.2495 1414.46 47.2668C1411.64 47.3034 1409.67 45.8417 1408.41 43.3407C1408.16 42.8578 1407.68 42.3856 1407.19 42.1527C1404.58 40.9087 1403 38.3043 1403.23 35.439C1403.45 32.634 1405.47 30.2344 1408.27 29.5337C1408.89 29.3806 1409.14 29.1736 1409.14 28.4708C1409.15 23.6715 1412.89 20.6876 1417.56 21.6988C1417.7 21.729 1417.84 21.7268 1418.02 21.7441V21.7419ZM1433.54 45.9042C1435.81 45.7123 1437.69 44.3907 1438.43 42.2304C1438.69 41.4564 1439.05 41.0726 1439.94 41.0122C1442.38 40.8441 1444.32 38.9554 1444.57 36.6593C1444.83 34.1281 1443.43 31.8751 1441.01 31.1787C1439.97 30.8769 1439.72 30.4306 1440 29.3979C1440.96 25.8103 1437.72 22.3844 1434.12 23.2037C1433.01 23.4559 1432.6 23.1562 1432.24 22.1321C1431.24 19.2237 1428.67 17.5097 1425.72 17.6239C1422.81 17.7361 1420.46 19.6118 1419.59 22.5137C1419.17 23.9087 1419.05 23.9604 1417.72 23.4559C1415.8 22.7272 1414.01 23.0053 1412.48 24.355C1411 25.6637 1410.41 27.3346 1410.88 29.3095C1411.19 30.6634 1411.09 30.8036 1409.72 30.9243C1407.05 31.1615 1405.12 32.9984 1404.85 35.5597C1404.6 37.8817 1406.12 40.0075 1408.53 40.8872C1408.99 41.0553 1409.5 41.534 1409.66 41.9867C1411.03 45.7037 1414.78 46.8507 1417.9 44.451C1418.78 43.7741 1419.24 43.8581 1419.62 44.8585C1420.42 47.0016 1421.95 48.2111 1424.23 48.3038C1426.51 48.3965 1428.14 47.297 1429.09 45.225C1429.49 44.3562 1429.98 44.3109 1430.8 44.7852C1431.64 45.2746 1432.62 45.5377 1433.54 45.8999V45.9042Z" fill="white" fill-opacity="0.22"/>
<path d="M1465.44 71.7021C1465.56 71.4718 1465.66 71.2394 1465.79 71.0223C1466.61 69.6567 1467.85 68.9454 1469.48 69.0033C1471.06 69.0601 1472.24 69.8119 1472.95 71.1897C1473.1 71.4799 1473.24 71.6097 1473.62 71.5955C1475.63 71.5174 1477.11 72.9419 1477.04 74.8747C1477.03 75.2623 1477.11 75.4672 1477.49 75.6519C1478.75 76.2647 1479.36 77.4893 1479.17 78.9178C1479.02 80.1292 1478.02 81.1712 1476.66 81.4817C1476.34 81.5547 1476.15 81.6684 1476 81.9636C1475.26 83.4622 1473.49 84.1308 1471.87 83.523C1471.57 83.4124 1471.42 83.4135 1471.22 83.6732C1469.79 85.4812 1467.21 85.4315 1465.84 83.5849C1465.76 83.4774 1465.67 83.3749 1465.67 83.3637C1464.96 83.4967 1464.33 83.7057 1463.7 83.7138C1462.32 83.731 1461.37 83.0431 1460.75 81.8662C1460.63 81.6389 1460.39 81.4167 1460.15 81.3072C1458.88 80.7218 1458.11 79.4961 1458.22 78.1477C1458.32 76.8278 1459.31 75.6985 1460.68 75.3688C1460.98 75.2968 1461.11 75.1994 1461.11 74.8686C1461.11 72.6101 1462.93 71.2059 1465.22 71.6818C1465.28 71.696 1465.35 71.695 1465.44 71.7031V71.7021ZM1473.02 83.0726C1474.13 82.9823 1475.05 82.3603 1475.41 81.3437C1475.54 80.9795 1475.71 80.7989 1476.14 80.7705C1477.34 80.6913 1478.29 79.8025 1478.41 78.722C1478.54 77.5309 1477.85 76.4706 1476.67 76.1429C1476.16 76.0009 1476.04 75.7909 1476.17 75.3049C1476.64 73.6166 1475.06 72.0044 1473.3 72.39C1472.76 72.5087 1472.56 72.3676 1472.39 71.8857C1471.9 70.517 1470.64 69.7104 1469.2 69.7642C1467.78 69.817 1466.63 70.6997 1466.21 72.0653C1466 72.7217 1465.94 72.7461 1465.3 72.5087C1464.36 72.1657 1463.48 72.2966 1462.74 72.9318C1462.01 73.5476 1461.73 74.3339 1461.95 75.2633C1462.11 75.9004 1462.06 75.9664 1461.39 76.0232C1460.09 76.1348 1459.14 76.9992 1459.01 78.2046C1458.89 79.2973 1459.63 80.2977 1460.81 80.7116C1461.03 80.7907 1461.28 81.016 1461.36 81.229C1462.03 82.9782 1463.86 83.518 1465.38 82.3887C1465.81 82.0701 1466.04 82.1097 1466.22 82.5805C1466.62 83.589 1467.36 84.1582 1468.47 84.2018C1469.59 84.2454 1470.38 83.728 1470.85 82.753C1471.04 82.3441 1471.28 82.3228 1471.68 82.546C1472.09 82.7763 1472.57 82.9001 1473.02 83.0705V83.0726Z" fill="white" fill-opacity="0.26"/>
<path d="M1753.44 43.7021C1753.56 43.4718 1753.66 43.2394 1753.79 43.0223C1754.61 41.6567 1755.85 40.9454 1757.48 41.0033C1759.06 41.0601 1760.24 41.8119 1760.95 43.1897C1761.1 43.4799 1761.24 43.6097 1761.62 43.5955C1763.63 43.5174 1765.11 44.9419 1765.04 46.8747C1765.03 47.2623 1765.11 47.4672 1765.49 47.6519C1766.75 48.2647 1767.36 49.4893 1767.17 50.9178C1767.02 52.1292 1766.02 53.1712 1764.66 53.4817C1764.34 53.5547 1764.15 53.6684 1764 53.9636C1763.26 55.4622 1761.49 56.1308 1759.87 55.523C1759.57 55.4124 1759.42 55.4135 1759.22 55.6732C1757.79 57.4812 1755.21 57.4315 1753.84 55.5849C1753.76 55.4774 1753.67 55.3749 1753.67 55.3637C1752.96 55.4967 1752.33 55.7057 1751.7 55.7138C1750.32 55.731 1749.37 55.0431 1748.75 53.8662C1748.63 53.6389 1748.39 53.4167 1748.15 53.3072C1746.88 52.7218 1746.11 51.4961 1746.22 50.1477C1746.32 48.8278 1747.31 47.6985 1748.68 47.3688C1748.98 47.2968 1749.11 47.1994 1749.11 46.8686C1749.11 44.6101 1750.93 43.2059 1753.22 43.6818C1753.28 43.696 1753.35 43.695 1753.44 43.7031V43.7021ZM1761.02 55.0726C1762.13 54.9823 1763.05 54.3603 1763.41 53.3437C1763.54 52.9795 1763.71 52.7989 1764.14 52.7705C1765.34 52.6913 1766.29 51.8025 1766.41 50.722C1766.54 49.5309 1765.85 48.4706 1764.67 48.1429C1764.16 48.0009 1764.04 47.7909 1764.17 47.3049C1764.64 45.6166 1763.06 44.0044 1761.3 44.39C1760.76 44.5087 1760.56 44.3676 1760.39 43.8857C1759.9 42.517 1758.64 41.7104 1757.2 41.7642C1755.78 41.817 1754.63 42.6997 1754.21 44.0653C1754 44.7217 1753.94 44.7461 1753.3 44.5087C1752.36 44.1657 1751.48 44.2966 1750.74 44.9318C1750.01 45.5476 1749.73 46.3339 1749.95 47.2633C1750.11 47.9004 1750.06 47.9664 1749.39 48.0232C1748.09 48.1348 1747.14 48.9992 1747.01 50.2046C1746.89 51.2973 1747.63 52.2977 1748.81 52.7116C1749.03 52.7907 1749.28 53.016 1749.36 53.229C1750.03 54.9782 1751.86 55.518 1753.38 54.3887C1753.81 54.0701 1754.04 54.1097 1754.22 54.5805C1754.62 55.589 1755.36 56.1582 1756.47 56.2018C1757.59 56.2454 1758.38 55.728 1758.85 54.753C1759.04 54.3441 1759.28 54.3228 1759.68 54.546C1760.09 54.7763 1760.57 54.9001 1761.02 55.0705V55.0726Z" fill="#0DA0C9" fill-opacity="0.15"/>
</svg>
