<svg width="53" height="52" viewBox="0 0 53 52" fill="none" xmlns="http://www.w3.org/2000/svg">
<path d="M26.2065 0C29.5752 0 32.8589 0.638908 35.9662 1.89897C39.1828 3.20337 42.0692 5.12016 44.5451 7.59609L44.6105 7.66144C47.0864 10.1374 49.0032 13.0237 50.3076 16.2404C51.5676 19.3477 52.2065 22.6313 52.2065 26C52.2065 29.3687 51.5676 32.6523 50.3076 35.7596C49.0032 38.9763 47.0864 41.8627 44.6105 44.3386L44.5451 44.4039C42.0692 46.8798 39.1828 48.7966 35.9662 50.101C32.8589 51.3611 29.5752 52 26.2065 52C22.8378 52 19.5542 51.3611 16.4469 50.101C13.2303 48.7966 10.3439 46.8798 7.86798 44.4039L7.80263 44.3386C5.3267 41.8627 3.40992 38.9763 2.10551 35.7596C0.845451 32.6523 0.206543 29.3687 0.206543 26C0.206543 22.6313 0.845451 19.3477 2.10551 16.2404C3.40992 13.0237 5.3267 10.1374 7.80263 7.66144L7.86798 7.59609C10.3439 5.12016 13.2303 3.20337 16.4469 1.89897C19.5542 0.638908 22.8378 0 26.2065 0Z" fill="url(#paint0_linear_2_349)"/>
<path d="M25.2557 19.8101L17.3027 27.7771C17.1713 27.9075 17.067 28.0624 16.9955 28.233C16.9241 28.4037 16.8869 28.5868 16.8862 28.7718C16.8855 28.9568 16.9213 29.1402 16.9915 29.3114C17.0616 29.4826 17.1648 29.6383 17.2952 29.7696C17.4255 29.9009 17.5804 30.0053 17.7511 30.0767C17.9218 30.1482 18.1048 30.1853 18.2898 30.186C18.4749 30.1867 18.6582 30.151 18.8294 30.0808C19.0006 30.0106 19.1563 29.9075 19.2877 29.7771L26.3257 22.8091L33.2927 29.7751C33.5579 30.0383 33.9168 30.1854 34.2905 30.184C34.6641 30.1826 35.0219 30.0328 35.2852 29.7676C35.5484 29.5024 35.6955 29.1435 35.6941 28.7698C35.6927 28.3961 35.5429 28.0383 35.2777 27.7751L27.3247 19.8081C27.1928 19.6653 27.0328 19.5514 26.8548 19.4734C26.6768 19.3955 26.4845 19.3552 26.2902 19.3552C26.0958 19.3552 25.9035 19.3955 25.7255 19.4734C25.5475 19.5514 25.3875 19.6653 25.2557 19.8081V19.8101Z" fill="white"/>
<defs>
<linearGradient id="paint0_linear_2_349" x1="29.7065" y1="49" x2="12.1584" y2="5.69222" gradientUnits="userSpaceOnUse">
<stop stop-color="#9AE0FE"/>
<stop offset="1" stop-color="#0DA2C9"/>
</linearGradient>
</defs>
</svg>
