<svg width="44" height="30" viewBox="0 0 44 30" fill="none" xmlns="http://www.w3.org/2000/svg">
<path opacity="0.33" d="M20.2581 29.9907C17.4396 29.9907 14.6233 29.9995 11.8047 29.9907C5.45527 29.9664 0.495018 25.4979 0.0341689 19.3981C-0.42668 13.3005 3.81892 8.03613 10.0638 7.1852C11.5287 6.98679 13.0893 7.24031 14.5676 7.50265C15.3402 7.63933 15.6563 7.49383 16.0659 6.8898C19.2718 2.15014 23.7801 -0.168986 29.5374 0.00957789C36.2342 0.2168 41.9536 4.9785 43.5989 11.6317C45.1506 17.9012 42.0872 24.8322 36.3611 28.0132C33.9856 29.3315 31.4476 30.0215 28.7115 29.9995C25.8929 29.9774 23.0766 29.9951 20.2581 29.9951V29.9907ZM20.3449 28.3351C23.2369 28.3351 26.1311 28.3726 29.0231 28.3285C39.1952 28.1698 45.5892 17.2465 40.58 8.52773C38.0086 4.05041 34.019 1.67177 28.8205 1.66956C23.5775 1.66956 19.6013 4.08348 16.9988 8.60269C16.4823 9.49992 16.017 9.69832 14.9639 9.37426C13.6459 8.96643 12.1877 8.67103 10.8296 8.78566C5.2215 9.25301 1.4323 13.6995 1.69946 19.2812C1.93768 24.3009 6.38588 28.3042 11.7803 28.3329C14.6366 28.3483 17.4908 28.3351 20.3472 28.3373L20.3449 28.3351Z" fill="white"/>
</svg>
