<svg width="43" height="34" viewBox="0 0 43 34" fill="none" xmlns="http://www.w3.org/2000/svg">
<path d="M14.8151 5.7419C15.0571 5.25249 15.2666 4.75877 15.5324 4.29738C17.2067 1.39541 19.7538 -0.115948 23.0851 0.00694391C26.3192 0.12768 28.7453 1.72527 30.1949 4.65312C30.4995 5.26974 30.789 5.54571 31.5559 5.51552C35.6736 5.34951 38.7154 8.37653 38.5664 12.4837C38.5361 13.3073 38.7089 13.7428 39.4888 14.1352C42.0683 15.4374 43.3084 18.0397 42.9347 21.0754C42.6171 23.6496 40.5669 25.8638 37.7865 26.5236C37.1319 26.6788 36.7408 26.9203 36.4427 27.5477C34.9283 30.7321 31.3032 32.1529 27.9719 30.8614C27.3648 30.6264 27.0559 30.6286 26.6367 31.1805C23.7224 35.0225 18.4424 34.9169 15.6318 30.993C15.4676 30.7644 15.2904 30.5467 15.2731 30.523C13.8235 30.8054 12.5424 31.2495 11.2548 31.2668C8.42905 31.3034 6.46743 29.8417 5.20145 27.3407C4.95732 26.8578 4.47123 26.3856 3.98083 26.1527C1.37325 24.9087 -0.201674 22.3043 0.0208456 19.439C0.239044 16.634 2.26548 14.2344 5.06749 13.5337C5.67888 13.3806 5.93597 13.1736 5.93813 12.4708C5.94245 7.67152 9.67991 4.68762 14.3528 5.69878C14.4889 5.72897 14.6337 5.72681 14.8151 5.74406V5.7419ZM30.331 29.9042C32.6015 29.7123 34.4876 28.3907 35.2243 26.2304C35.4878 25.4564 35.8464 25.0726 36.73 25.0122C39.1734 24.8441 41.1178 22.9554 41.3597 20.6593C41.6276 18.1281 40.2277 15.8751 37.8081 15.1787C36.7624 14.8769 36.5118 14.4306 36.7905 13.3979C37.7541 9.81027 34.5178 6.38439 30.9121 7.20367C29.8082 7.45592 29.3891 7.15624 29.0348 6.13214C28.0302 3.22369 25.468 1.50968 22.5169 1.62394C19.6004 1.73606 17.2499 3.61177 16.3814 6.51375C15.9645 7.90868 15.8413 7.96042 14.5148 7.45592C12.5964 6.72719 10.8033 7.00532 9.27592 8.35497C7.79606 9.66366 7.20844 11.3346 7.67076 13.3095C7.98834 14.6634 7.88247 14.8036 6.51711 14.9243C3.84688 15.1615 1.91334 16.9984 1.64113 19.5597C1.39269 21.8817 2.91143 24.0075 5.32458 24.8872C5.78258 25.0553 6.29028 25.534 6.45663 25.9867C7.81983 29.7037 11.5767 30.8507 14.6941 28.451C15.5734 27.7741 16.0314 27.8581 16.4095 28.8585C17.2175 31.0016 18.7449 32.2111 21.0219 32.3038C23.3054 32.3965 24.9322 31.297 25.8828 29.225C26.2824 28.3562 26.7685 28.3109 27.5895 28.7852C28.4363 29.2746 29.4128 29.5377 30.331 29.8999V29.9042Z" fill="white" fill-opacity="0.22"/>
</svg>
