<svg width="50" height="29" viewBox="0 0 50 29" fill="none" xmlns="http://www.w3.org/2000/svg">
<path d="M25.3589 28.9962C20.0437 28.9962 14.7286 29.0049 9.41338 28.994C4.66053 28.9831 0.668573 25.7617 0.0995686 21.5021C-0.560923 16.5673 2.10113 12.3515 6.99903 11.2981C8.81092 10.9091 9.17017 10.1835 9.45133 8.65802C10.2591 4.26956 14.0591 0.842709 18.638 0.13024C23.161 -0.573488 27.8536 1.62293 30.0448 5.55025C30.5067 6.37855 30.9574 6.71075 31.9928 6.69763C35.7036 6.64737 38.3679 8.38702 39.9098 11.6805C40.2244 12.3537 40.5301 12.5875 41.2933 12.5657C45.727 12.4389 49.4244 15.4855 49.931 19.6161C50.4776 24.0657 47.733 27.9056 43.297 28.8323C42.5428 28.9896 41.7462 28.9896 40.9697 28.9918C35.7661 29.0049 30.5625 28.9984 25.3589 28.9984V28.9962ZM25.437 27.3789C30.7923 27.3789 36.1477 27.4073 41.503 27.3702C45.6534 27.3396 48.6323 24.116 48.311 20.0947C48.012 16.3247 44.3949 13.6497 40.3695 14.3075C39.3118 14.4802 38.9168 14.1633 38.6624 13.1842C37.7944 9.85348 34.3916 7.75978 30.9597 8.44821C30.0024 8.64053 29.5494 8.40013 29.1679 7.53468C27.2444 3.15496 22.9579 0.945427 18.3166 1.87863C13.9297 2.76157 10.7946 6.63644 10.8326 11.2325C10.8415 12.2794 10.509 12.6509 9.41785 12.6181C6.82944 12.5416 4.6873 13.5491 3.15211 15.586C1.36476 17.9595 1.11039 20.5864 2.43361 23.2177C3.80145 25.9343 6.17341 27.333 9.25942 27.3636C14.6505 27.4161 20.0437 27.3789 25.437 27.3767V27.3789Z" fill="white" fill-opacity="0.49"/>
</svg>
