<svg width="70" height="42" viewBox="0 0 70 42" fill="none" xmlns="http://www.w3.org/2000/svg">
<path d="M19.0312 38.5256C16.9092 40.4855 14.5353 41.6852 11.7156 41.7979C5.87929 42.035 0.859394 37.9879 0.115381 32.4723C-0.701007 26.4306 2.88009 21.181 8.79166 19.8773C9.64858 19.6894 9.9902 19.3801 10.1378 18.536C11.2872 12.0173 16.1855 8.2911 22.8295 8.823C23.1161 8.84613 23.4027 8.8548 23.8022 8.87504C25.6347 3.42017 29.2245 -0.0429589 35.194 0.000402515C41.1548 0.0437639 44.7446 3.49533 46.4902 9.07739C49.8108 8.43275 52.9171 8.61776 55.7571 10.465C58.7129 12.3873 60.5107 15.067 60.9768 18.5649C61.0926 19.4321 61.3387 19.8888 62.2506 20.1779C68.498 22.1639 71.6217 28.908 69.1552 34.9468C66.732 40.8787 59.7696 43.5208 53.968 40.6532C53.1372 40.2427 52.5697 40.2224 51.7476 40.6792C49.5242 41.9164 47.1909 42.0378 44.7735 41.1186C44.2293 40.9105 43.4476 40.948 42.9004 41.1735C39.5712 42.5437 36.4736 42.2575 33.6828 39.9594C32.8896 39.3061 32.4177 39.1615 31.4942 39.8004C27.8639 42.3125 23.4056 42.0552 19.9519 39.2801C19.6913 39.069 19.4308 38.858 19.0284 38.5285L19.0312 38.5256ZM2.15923 30.7263C2.14475 34.3311 4.3797 37.6468 7.70604 38.9563C11.3422 40.3872 15.0275 39.5431 17.7401 36.6524C18.982 35.3284 19.2368 35.3197 20.3456 36.5627C23.533 40.1357 28.052 40.2774 31.5405 36.9183C32.6116 35.8863 33.017 35.9181 33.9492 37.1033C36.2304 39.9999 39.4873 40.6474 42.6689 38.7395C43.4939 38.2452 44.1019 38.3001 44.9212 38.7279C47.159 39.8958 49.4258 39.8409 51.4436 38.2683C52.4452 37.4878 53.1603 37.5861 54.1359 38.2307C55.9656 39.4362 58.0152 39.942 60.2038 39.5373C64.7026 38.7077 67.7424 35.1925 67.7916 30.8217C67.8408 26.4566 64.9111 22.875 60.4123 21.9499C59.3817 21.7389 58.9301 21.3602 58.8924 20.2733C58.6579 13.4049 52.9432 9.43006 46.3484 11.5114C44.9849 11.9421 44.5911 11.7138 44.374 10.3696C43.5924 5.53043 39.9939 2.25231 35.3764 2.17425C30.5794 2.09331 26.9317 5.12283 25.9821 10.0487C25.7621 11.1934 25.2613 11.6155 24.0859 11.3351C17.659 9.79719 12.5407 13.5639 12.2222 20.0825C12.1643 21.2677 11.7301 21.7823 10.4997 21.8661C5.71719 22.1841 2.17949 25.9826 2.15923 30.7263V30.7263Z" fill="white" fill-opacity="0.49"/>
</svg>
