<svg width="33" height="26" viewBox="0 0 33 26" fill="none" xmlns="http://www.w3.org/2000/svg">
<path opacity="0.44" d="M10.4793 5.88829C10.7858 5.1919 11.0188 4.50993 11.3693 3.88977C14.1675 -1.07149 21.2793 -1.34551 24.4238 3.4056C24.8143 3.99691 25.211 4.21118 25.9184 4.26269C29.3442 4.51817 31.9723 6.64649 32.77 9.71019C33.5656 12.776 32.2599 15.8582 29.4324 17.7537C29.1133 17.968 28.8404 18.4851 28.8299 18.8683C28.7648 21.4087 27.7363 23.4052 25.4524 24.6434C23.1749 25.8776 20.8616 25.7684 18.7121 24.3426C18.032 23.8914 17.6919 24.0006 17.121 24.4518C13.0172 27.6803 7.0829 25.6056 5.8801 20.5784C5.78354 20.1746 5.37001 19.6863 4.98167 19.5318C1.08568 17.9906 -0.906397 14.0431 0.399264 10.3303C1.7721 6.42809 5.74576 4.50169 9.86006 5.74613C10.0511 5.80382 10.2505 5.83472 10.4793 5.88623V5.88829ZM31.372 12.0507C31.3678 8.20821 28.6389 5.66165 25.2404 5.83884C24.3588 5.88417 23.8445 5.69256 23.431 4.86843C22.1988 2.40634 19.663 1.21341 16.8922 1.67698C14.3774 2.09729 12.3937 4.20088 12.0348 6.82574C11.8542 8.14022 11.5289 8.30917 10.3534 7.68901C8.22273 6.56407 6.10891 6.5888 4.11893 7.94655C2.09116 9.33109 1.2683 11.309 1.72801 13.6887C2.18772 16.0704 3.71589 17.5827 6.10471 18.1616C6.96115 18.3697 7.31591 18.7447 7.38518 19.608C7.5762 21.9506 8.93644 23.5061 11.1552 24.186C13.3425 24.8556 15.2968 24.2623 16.8523 22.5604C17.7423 21.588 17.9102 21.5756 18.8422 22.4554C20.4124 23.9367 22.501 24.32 24.342 23.4649C26.3215 22.544 27.4508 20.6855 27.1128 18.516C26.947 17.4447 27.2955 17.0058 28.2212 16.5546C30.3119 15.5347 31.309 13.7649 31.372 12.0548V12.0507Z" fill="white"/>
</svg>
