<svg width="21" height="16" viewBox="0 0 21 16" fill="none" xmlns="http://www.w3.org/2000/svg">
<path d="M7.2353 2.70207C7.35347 2.47176 7.4558 2.23942 7.58558 2.0223C8.40326 0.656662 9.64719 -0.0545638 11.2741 0.00326772C12.8535 0.0600846 14.0384 0.811894 14.7463 2.1897C14.8951 2.47988 15.0365 2.60974 15.411 2.59554C17.422 2.51742 18.9075 3.9419 18.8347 5.87469C18.82 6.26226 18.9044 6.46721 19.2852 6.65186C20.545 7.26467 21.1506 8.48928 20.9681 9.91782C20.813 11.1292 19.8117 12.1712 18.4539 12.4817C18.1342 12.5547 17.9432 12.6684 17.7976 12.9636C17.058 14.4622 15.2876 15.1308 13.6607 14.523C13.3642 14.4124 13.2133 14.4135 13.0086 14.6732C11.5853 16.4812 9.00676 16.4315 7.63411 14.5849C7.55393 14.4774 7.46742 14.3749 7.45898 14.3637C6.75102 14.4967 6.12536 14.7057 5.49654 14.7138C4.11651 14.731 3.15851 14.0431 2.54024 12.8662C2.42102 12.6389 2.18363 12.4167 1.94412 12.3072C0.670656 11.7218 -0.0984918 10.4961 0.0101804 9.14775C0.116742 7.82777 1.1064 6.69853 2.47482 6.36879C2.77341 6.29676 2.89896 6.19936 2.90002 5.8686C2.90213 3.61013 4.7274 2.20594 7.00951 2.68178C7.07598 2.69598 7.14668 2.69497 7.2353 2.70309V2.70207ZM14.8128 14.0726C15.9217 13.9823 16.8428 13.3603 17.2025 12.3437C17.3313 11.9795 17.5064 11.7989 17.9379 11.7705C19.1312 11.6913 20.0808 10.8025 20.1989 9.722C20.3298 8.53088 19.6461 7.47063 18.4644 7.14292C17.9538 7.00088 17.8314 6.79086 17.9675 6.30487C18.438 4.6166 16.8575 3.00442 15.0966 3.38996C14.5575 3.50867 14.3528 3.36764 14.1798 2.88571C13.6892 1.51703 12.4378 0.710435 10.9966 0.764209C9.57228 0.816967 8.42436 1.69966 8.00023 3.06529C7.7966 3.72173 7.73646 3.74608 7.08864 3.50867C6.15174 3.16574 5.27604 3.29662 4.5301 3.93175C3.80738 4.54761 3.5204 5.33391 3.74619 6.26327C3.90128 6.90044 3.84958 6.96638 3.18278 7.0232C1.87871 7.1348 0.934421 7.99923 0.801483 9.20456C0.68015 10.2973 1.42186 11.2977 2.60037 11.7116C2.82405 11.7907 3.072 12.016 3.15324 12.229C3.81899 13.9782 5.65375 14.518 7.17621 13.3887C7.60562 13.0701 7.8293 13.1097 8.01394 13.5805C8.40853 14.589 9.15447 15.1582 10.2665 15.2018C11.3817 15.2454 12.1762 14.728 12.6404 13.753C12.8356 13.3441 13.073 13.3228 13.4739 13.546C13.8875 13.7763 14.3644 13.9001 14.8128 14.0705V14.0726Z" fill="white" fill-opacity="0.26"/>
</svg>
