<svg width="104" height="61" viewBox="0 0 104 61" fill="none" xmlns="http://www.w3.org/2000/svg">
<g clip-path="url(#clip0_66_35387)">
<path d="M20.8188 45.9935C20.2828 48.7727 19.7468 51.5519 19.2134 54.3337C18.8751 56.1055 18.5187 57.8748 18.2142 59.6518C18.0555 60.5791 17.5663 60.9717 16.6244 60.9665C11.5947 60.9459 6.565 60.9665 1.5353 60.9433C-0.0233083 60.9355 -0.379785 60.171 0.395616 58.6058C5.15991 48.9587 9.84874 39.2574 13.2574 29.055C16.3043 19.9374 18.7997 10.639 21.4824 1.40518C21.8154 0.260967 22.2994 -0.185872 23.4963 0.0698332C33.0145 2.10773 42.6602 2.96266 52.3787 3.12022C61.582 3.27003 70.7359 2.72246 79.7962 1.02292C81.1544 0.767212 82.4944 0.418523 83.8423 0.105994C85.0522 -0.175541 85.6429 0.217057 85.799 1.46201C88.2605 21.2469 94.9035 39.7559 103.201 57.7612C104.557 60.7005 104.388 61.0001 101.075 61.0001C81.2611 61.0001 61.4467 61.0001 41.635 60.9898C36.215 60.9898 30.7976 60.9639 25.3776 60.951C23.2986 60.9459 23.132 60.7728 22.8614 58.7478C22.3332 54.8296 21.7738 50.9165 21.2222 47.0034C21.1753 46.6677 21.0738 46.3396 20.9958 46.0064L20.8188 45.9935V45.9935ZM24.3784 2.83094C24.42 3.41725 24.4122 3.84601 24.4851 4.25927C25.2397 8.44355 25.963 12.633 26.7853 16.8018C29.6007 31.0929 34.2869 44.7331 41.2447 57.5829C41.6818 58.3888 42.1502 58.6497 43.0427 58.6497C61.811 58.6238 80.5768 58.6264 99.3451 58.6213C99.7953 58.6213 100.243 58.5851 100.841 58.5567C92.6735 40.585 86.0852 22.3007 83.504 2.79994C63.6949 6.77759 44.1199 6.20935 24.3758 2.83094H24.3784ZM39.0642 58.5825C30.2329 42.4886 25.4348 25.4415 22.4685 7.75392C18.0165 25.3924 11.3345 42.1528 3.17717 58.4172C3.50763 58.5154 3.62212 58.5799 3.73661 58.5799C7.50953 58.5877 11.2825 58.5799 15.0528 58.6058C15.7683 58.6109 15.9895 58.3242 16.117 57.6423C17.2983 51.2213 18.5187 44.808 19.7416 38.3921C19.8899 37.6121 19.9159 36.6512 21.0634 36.6306C22.2109 36.6099 22.2734 37.4881 22.3931 38.3275C23.2257 44.1132 24.1026 49.8911 24.9066 55.6794C25.3099 58.5748 25.2553 58.5825 28.2346 58.5825C31.7343 58.5825 35.2314 58.5825 39.059 58.5825H39.0642Z" fill="#86D2E8"/>
<path d="M58.7323 16.5225C61.8547 16.5225 64.9771 16.5561 68.0995 16.5045C69.1638 16.4864 69.6946 16.9126 69.934 17.8992C70.967 22.1558 72.0312 26.4072 73.0616 30.6638C73.3999 32.0586 72.9679 32.6449 71.5368 32.6527C65.2503 32.6836 58.9613 32.6759 52.6748 32.694C51.6782 32.6966 51.0563 32.3195 50.8091 31.2992C49.7631 27.0013 48.6677 22.7137 47.6217 18.4158C47.2938 17.0649 47.7752 16.5303 49.2375 16.5277C52.4042 16.52 55.5682 16.5277 58.7349 16.5277L58.7323 16.5225ZM70.4127 30.1653C69.5385 26.5932 68.711 23.0908 67.7847 19.6168C67.6962 19.2888 66.9807 18.9246 66.5539 18.9195C61.5269 18.8755 56.5024 18.8936 51.4753 18.904C51.1448 18.904 50.8143 18.9634 50.2991 19.0099C51.2307 22.8015 52.1388 26.4873 53.0417 30.1653H70.4127V30.1653Z" fill="#86D2E8"/>
</g>
<defs>
<clipPath id="clip0_66_35387">
<rect width="104" height="61" fill="white"/>
</clipPath>
</defs>
</svg>
