<svg width="210" height="87" viewBox="0 0 210 87" fill="none" xmlns="http://www.w3.org/2000/svg">
<path d="M35.0719 70.6302C31.1613 74.2234 26.7865 76.4228 21.5902 76.6295C10.8347 77.0641 1.58374 69.6445 0.21263 59.5326C-1.29186 48.4562 5.30759 38.8318 16.2018 36.4417C17.781 36.0972 18.4105 35.5301 18.6826 33.9826C20.8006 22.0317 29.8275 15.2004 42.0715 16.1755C42.5996 16.2179 43.1278 16.2338 43.864 16.2709C47.2411 6.27032 53.8566 -0.078758 64.8575 0.000737945C75.8424 0.0802339 82.4578 6.40811 85.6749 16.6419C91.7942 15.46 97.5187 15.7992 102.752 19.1858C108.2 22.7101 111.513 27.6229 112.372 34.0356C112.585 35.6255 113.038 36.4629 114.719 36.9928C126.232 40.6338 131.989 52.998 127.443 64.0692C122.978 74.9442 110.147 79.7882 99.4554 74.5308C97.9242 73.7783 96.8785 73.7412 95.3634 74.5785C91.266 76.8468 86.966 77.0694 82.5112 75.3841C81.5082 75.0025 80.0677 75.0714 79.0594 75.4848C72.9241 77.9968 67.2156 77.4722 62.0726 73.2589C60.6108 72.0611 59.7412 71.7962 58.0393 72.9674C51.3492 77.5729 43.1332 77.1012 36.7685 72.0135C36.2883 71.6266 35.8081 71.2397 35.0665 70.6355L35.0719 70.6302ZM3.97915 56.3316C3.95247 62.9403 8.07115 69.0191 14.2011 71.4199C20.902 74.0433 27.6935 72.4957 32.6925 67.196C34.9812 64.7687 35.4507 64.7528 37.494 67.0317C43.3679 73.5822 51.6959 73.8419 58.1246 67.6836C60.0986 65.7916 60.8456 65.8499 62.5634 68.0228C66.7675 73.3331 72.7694 74.5202 78.6326 71.0224C80.1531 70.1161 81.2735 70.2168 82.7833 71.0012C86.9073 73.1423 91.0846 73.0416 94.8032 70.1585C96.6491 68.7276 97.9669 68.9078 99.7648 70.0897C103.137 72.2996 106.914 73.2271 110.947 72.4851C119.238 70.9641 124.84 64.5196 124.93 56.5064C125.021 48.5039 119.622 41.9375 111.331 40.2416C109.432 39.8547 108.6 39.1604 108.53 37.1677C108.098 24.5756 97.5667 17.2885 85.4135 21.1043C82.9007 21.8939 82.1751 21.4752 81.775 19.0109C80.3345 10.1391 73.703 4.12923 65.1936 3.98613C56.3534 3.83774 49.6313 9.39186 47.8814 18.4226C47.4759 20.5213 46.5529 21.295 44.3869 20.781C32.543 17.9615 23.1107 24.8671 22.5238 36.818C22.4171 38.9908 21.6169 39.9342 19.3495 40.0879C10.536 40.6709 4.01649 47.6347 3.97915 56.3316Z" fill="#C9C9C9" fill-opacity="0.25"/>
<path d="M172.866 84.5183C171.32 85.9182 169.59 86.7751 167.536 86.8557C163.283 87.025 159.626 84.1342 159.084 80.1945C158.489 75.879 161.098 72.1293 165.405 71.1981C166.03 71.0638 166.279 70.8429 166.386 70.24C167.223 65.5838 170.792 62.9222 175.633 63.3021C175.842 63.3187 176.051 63.3249 176.342 63.3393C177.677 59.443 180.292 56.9693 184.641 57.0003C188.984 57.0313 191.6 59.4967 192.871 63.4839C195.291 63.0234 197.554 63.1555 199.623 64.475C201.777 65.8481 203.086 67.7622 203.426 70.2606C203.51 70.8801 203.69 71.2063 204.354 71.4128C208.906 72.8313 211.182 77.6486 209.384 81.962C207.619 86.199 202.546 88.0863 198.32 86.038C197.714 85.7448 197.301 85.7303 196.702 86.0566C195.082 86.9403 193.382 87.027 191.621 86.3704C191.224 86.2218 190.655 86.2486 190.256 86.4097C187.83 87.3884 185.574 87.184 183.54 85.5424C182.962 85.0758 182.619 84.9725 181.946 85.4289C179.301 87.2232 176.053 87.0394 173.536 85.0572C173.347 84.9065 173.157 84.7557 172.864 84.5203L172.866 84.5183ZM160.573 78.9474C160.563 81.5222 162.191 83.8906 164.614 84.8259C167.264 85.848 169.949 85.2451 171.925 83.1803C172.83 82.2346 173.015 82.2284 173.823 83.1162C176.145 85.6684 179.438 85.7696 181.98 83.3702C182.76 82.6331 183.055 82.6558 183.734 83.5024C185.396 85.5713 187.769 86.0339 190.087 84.6711C190.688 84.318 191.131 84.3572 191.728 84.6628C193.359 85.497 195.01 85.4578 196.48 84.3345C197.21 83.777 197.731 83.8472 198.442 84.3077C199.775 85.1687 201.268 85.53 202.863 85.241C206.14 84.6483 208.355 82.1375 208.391 79.0155C208.427 75.8976 206.292 73.3393 203.015 72.6785C202.264 72.5278 201.935 72.2573 201.907 71.4809C201.736 66.5749 197.573 63.7358 192.768 65.2224C191.775 65.5301 191.488 65.367 191.33 64.4068C190.76 60.9503 188.138 58.6088 184.774 58.553C181.279 58.4952 178.622 60.6592 177.93 64.1776C177.77 64.9953 177.405 65.2968 176.548 65.0965C171.866 63.998 168.137 66.6885 167.905 71.3447C167.863 72.1912 167.546 72.5588 166.65 72.6187C163.165 72.8458 160.588 75.559 160.573 78.9474Z" fill="#C9C9C9" fill-opacity="0.25"/>
</svg>
