<svg width="146" height="166" viewBox="0 0 146 166" fill="none" xmlns="http://www.w3.org/2000/svg">
<g opacity="0.36">
<g opacity="0.73">
<path fill-rule="evenodd" clip-rule="evenodd" d="M93.7651 96.0722C94.3431 63.5679 78.5068 -0.863619 10.5382 1.44467C5.30194 30.5316 14.6165 90.1789 93.7651 96.0722ZM85.1557 88.0621C71.0184 88.2376 41.7027 77.8258 37.5391 34.7744C53.9829 36.6129 86.5276 49.8444 85.1557 88.0621Z" fill="#D7D7D7"/>
</g>
<g opacity="0.5">
<path fill-rule="evenodd" clip-rule="evenodd" d="M96.7513 95.839C112.898 95.7199 144.693 87.0515 142.698 53.3313C128.189 51.0947 98.6886 56.465 96.7513 95.839ZM100.612 91.4607C100.348 84.4431 105.152 69.7567 126.477 67.1514C125.769 75.3393 119.606 91.6644 100.612 91.4607Z" fill="#D7D7D7"/>
</g>
<g opacity="0.21">
<path fill-rule="evenodd" clip-rule="evenodd" d="M93.5339 98.613C70.4439 98.7834 24.9774 111.179 27.8308 159.399C48.5775 162.597 90.7635 154.918 93.5339 98.613ZM88.0017 104.874C88.3789 114.909 81.5098 135.91 51.0156 139.636C52.0272 127.927 60.8407 104.582 88.0017 104.874Z" fill="#D7D7D7"/>
</g>
</g>
</svg>
