<svg width="1910" height="359" viewBox="0 0 1910 359" fill="none" xmlns="http://www.w3.org/2000/svg">
<g opacity="0.3">
<path opacity="0.47" d="M1269.84 200.412L1275.28 171L1282.74 200.412L1279.14 197.875L1284 214.681L1278.55 208.419V228H1275.28V208.419L1269 214.681L1273.02 197.875L1269.84 200.412Z" stroke="#8DCCE7" stroke-width="2" stroke-linecap="round"/>
<path opacity="0.47" d="M1386.45 204.147L1395.89 151L1408.82 204.147L1402.58 199.563L1411 229.933L1401.56 218.616V254H1395.89V218.616L1385 229.933L1391.97 199.563L1386.45 204.147Z" stroke="#8DCCE7" stroke-width="3" stroke-linecap="round"/>
<path opacity="0.47" d="M519.117 227.764L526.38 187L536.324 227.764L531.52 224.248L538 247.541L530.737 238.861V266H526.38V238.861L518 247.541L523.363 224.248L519.117 227.764Z" stroke="#48B1D8" stroke-width="2" stroke-linecap="round"/>
<path opacity="0.47" d="M616.006 245.088L622.542 210L631.492 245.088L627.168 242.061L633 262.111L626.464 254.64V278H622.542V254.64L615 262.111L619.827 242.061L616.006 245.088Z" stroke="#3894BB" stroke-width="2" stroke-linecap="round"/>
<g clip-path="url(#clip0_20_1741)">
<path d="M403.819 249.993C403.283 252.773 402.747 255.552 402.213 258.334C401.875 260.105 401.519 261.875 401.214 263.652C401.056 264.579 400.566 264.972 399.624 264.966C394.595 264.946 389.565 264.966 384.535 264.943C382.977 264.935 382.62 264.171 383.396 262.606C388.16 252.959 392.849 243.257 396.257 233.055C399.304 223.937 401.8 214.639 404.482 205.405C404.815 204.261 405.299 203.814 406.496 204.07C416.014 206.108 425.66 206.963 435.379 207.12C444.582 207.27 453.736 206.722 462.796 205.023C464.154 204.767 465.494 204.418 466.842 204.106C468.052 203.824 468.643 204.217 468.799 205.462C471.261 225.247 477.903 243.756 486.201 261.761C487.557 264.7 487.388 265 484.075 265C464.261 265 444.447 265 424.635 264.99C419.215 264.99 413.798 264.964 408.378 264.951C406.299 264.946 406.132 264.773 405.861 262.748C405.333 258.829 404.774 254.916 404.222 251.003C404.175 250.668 404.074 250.34 403.996 250.006L403.819 249.993V249.993ZM407.378 206.831C407.42 207.417 407.412 207.846 407.485 208.259C408.24 212.443 408.963 216.633 409.785 220.802C412.601 235.093 417.287 248.733 424.245 261.583C424.682 262.389 425.15 262.65 426.043 262.65C444.811 262.624 463.577 262.626 482.345 262.621C482.795 262.621 483.243 262.585 483.841 262.557C475.674 244.585 469.085 226.301 466.504 206.8C446.695 210.777 427.12 210.209 407.376 206.831H407.378ZM422.064 262.582C413.233 246.488 408.435 229.441 405.469 211.754C401.016 229.392 394.334 246.153 386.177 262.417C386.508 262.515 386.622 262.58 386.737 262.58C390.51 262.588 394.282 262.58 398.053 262.606C398.768 262.611 398.99 262.324 399.117 261.642C400.298 255.221 401.519 248.808 402.742 242.392C402.89 241.612 402.916 240.651 404.063 240.63C405.211 240.61 405.273 241.488 405.393 242.327C406.226 248.113 407.103 253.891 407.907 259.679C408.31 262.575 408.255 262.582 411.235 262.582C414.734 262.582 418.231 262.582 422.059 262.582H422.064Z" fill="#86D2E8"/>
<path d="M441.732 220.523C444.855 220.523 447.977 220.556 451.1 220.504C452.164 220.486 452.695 220.913 452.934 221.899C453.967 226.156 455.031 230.407 456.062 234.664C456.4 236.059 455.968 236.645 454.537 236.653C448.25 236.684 441.961 236.676 435.675 236.694C434.678 236.697 434.056 236.319 433.809 235.299C432.763 231.001 431.668 226.714 430.622 222.416C430.294 221.065 430.775 220.53 432.238 220.528C435.404 220.52 438.568 220.528 441.735 220.528L441.732 220.523ZM453.413 234.165C452.538 230.593 451.711 227.091 450.785 223.617C450.696 223.289 449.981 222.925 449.554 222.919C444.527 222.876 439.502 222.894 434.475 222.904C434.145 222.904 433.814 222.963 433.299 223.01C434.231 226.802 435.139 230.487 436.042 234.165H453.413V234.165Z" fill="#86D2E8"/>
</g>
<path d="M231.145 143.93L206.089 1L171.782 143.93L188.358 131.602L166 213.277L191.056 182.841V278H206.089V182.841L235 213.277L216.497 131.602L231.145 143.93Z" stroke="#4FA5C7" stroke-width="3" stroke-linecap="round"/>
<path opacity="0.47" d="M269.458 192.815L285.436 102L307.313 192.815L296.743 184.982L311 236.876L295.022 217.538V278H285.436V217.538L267 236.876L278.799 184.982L269.458 192.815Z" stroke="#63AECB" stroke-width="3" stroke-linecap="round"/>
<path opacity="0.26" d="M114.564 222.823L124.732 164L138.654 222.823L131.927 217.75L141 251.363L130.832 238.837V278H124.732V238.837L113 251.363L120.508 217.75L114.564 222.823Z" stroke="#53A8BF" stroke-width="3" stroke-linecap="round"/>
<g filter="url(#filter0_f_20_1741)">
<rect x="31" y="248" width="660" height="74" fill="white"/>
</g>
<g filter="url(#filter1_f_20_1741)">
<rect x="1213" y="248" width="660" height="74" fill="white"/>
</g>
</g>
<g opacity="0.12">
<path d="M1624.04 130.658C1624.04 131.881 1623.91 133.127 1624.09 134.325C1624.18 134.913 1624.88 135.89 1625.26 135.864C1626.85 135.765 1628.93 137.015 1629.89 134.501C1629.99 134.215 1630.97 134.159 1631.55 134.156C1639.63 134.134 1647.71 134.141 1655.79 134.141C1689.1 134.141 1722.41 134.141 1755.72 134.145C1756.76 134.145 1757.55 134.126 1758.41 135.28C1759 136.067 1761.1 135.931 1762.49 135.809C1762.92 135.773 1763.49 134.428 1763.54 133.652C1763.68 131.459 1763.57 129.246 1763.6 127.042C1763.61 125.814 1763.05 125.146 1761.82 125.26C1760.32 125.399 1758.37 124.451 1757.68 126.865C1757.61 127.089 1756.56 127.097 1755.96 127.101C1741.28 127.115 1726.6 127.115 1711.92 127.115C1685.33 127.115 1658.74 127.115 1632.16 127.108C1631.04 127.108 1630.19 127.123 1629.26 125.91C1628.66 125.113 1626.45 125.355 1624.99 125.469C1624.62 125.498 1624.19 126.784 1624.07 127.538C1623.91 128.556 1624.03 129.614 1624.03 130.654H1624.03L1624.04 130.658Z" fill="#328FB8"/>
<path d="M1667.7 190.74C1675.34 190.74 1682.98 190.748 1690.63 190.737C1696.28 190.729 1700.09 187.143 1700.16 181.517C1700.26 173.073 1700.24 164.625 1700.16 156.181C1700.11 150.923 1696.32 147.141 1691 147.119C1675.35 147.053 1659.69 147.05 1644.03 147.119C1638.72 147.145 1635.06 150.941 1635.03 156.251C1634.98 164.695 1634.98 173.139 1635.03 181.587C1635.06 187.066 1638.84 190.722 1644.39 190.733C1652.16 190.748 1659.93 190.737 1667.69 190.733L1667.7 190.74ZM1667.54 186.36C1659.89 186.36 1652.25 186.368 1644.6 186.36C1641.17 186.357 1639.4 184.732 1639.38 181.355C1639.33 173.091 1639.33 164.824 1639.38 156.559C1639.4 153.197 1641.2 151.481 1644.56 151.477C1659.92 151.463 1675.28 151.463 1690.63 151.477C1693.94 151.477 1695.78 153.318 1695.79 156.611C1695.81 164.754 1695.81 172.897 1695.79 181.039C1695.79 184.714 1694.07 186.357 1690.3 186.36C1682.72 186.368 1675.13 186.36 1667.55 186.36H1667.54Z" fill="#328FB8"/>
<path d="M1791.41 187.032C1797.64 187.032 1803.87 187.04 1810.09 187.032C1815.22 187.025 1817.51 183.508 1815.36 178.933C1811.54 170.798 1807.66 162.684 1803.88 154.527C1802.71 151.995 1800.86 150.845 1798.08 150.86C1789.45 150.896 1780.82 150.848 1772.19 150.882C1768.28 150.896 1766.36 152.756 1766.34 156.632C1766.28 164.834 1766.28 173.036 1766.33 181.237C1766.36 185.11 1768.42 187.025 1772.36 187.028C1778.71 187.04 1785.06 187.028 1791.41 187.028V187.032ZM1791.33 182.656C1785.1 182.656 1778.87 182.608 1772.65 182.689C1771.07 182.707 1770.64 182.149 1770.64 180.668C1770.7 172.834 1770.7 164.996 1770.64 157.158C1770.63 155.614 1771.21 155.159 1772.71 155.166C1781.04 155.221 1789.36 155.218 1797.69 155.166C1798.94 155.159 1799.56 155.618 1800.06 156.702C1803.78 164.683 1807.56 172.639 1811.31 180.609C1812.11 182.325 1811.91 182.645 1810.01 182.648C1803.78 182.659 1797.56 182.652 1791.33 182.652L1791.33 182.656Z" fill="#328FB8"/>
<path d="M1804.83 138.744C1810.5 138.744 1816.17 138.755 1821.84 138.741C1826.24 138.73 1828.3 136.683 1828.3 132.354C1828.3 130.517 1828.33 128.683 1828.29 126.846C1828.21 123.741 1825.91 121.367 1822.77 121.356C1810.82 121.308 1798.86 121.312 1786.9 121.353C1783.6 121.364 1781.37 123.679 1781.32 126.931C1781.29 128.827 1781.31 130.723 1781.31 132.622C1781.32 136.62 1783.39 138.719 1787.46 138.741C1793.25 138.774 1799.04 138.748 1804.84 138.748L1804.83 138.744ZM1804.77 125.714C1810.44 125.714 1816.12 125.762 1821.79 125.685C1823.43 125.663 1824.02 126.232 1823.9 127.82C1823.81 129.22 1823.89 130.635 1823.89 132.046C1823.88 134.302 1823.75 134.434 1821.47 134.438C1812.59 134.445 1803.7 134.441 1794.82 134.441C1792.54 134.441 1790.26 134.383 1787.98 134.46C1786.36 134.519 1785.54 134.048 1785.69 132.277C1785.81 130.756 1785.79 129.212 1785.69 127.688C1785.59 126.141 1786.23 125.67 1787.74 125.689C1793.41 125.751 1799.09 125.714 1804.76 125.714H1804.77Z" fill="#328FB8"/>
<path d="M1729.89 196.457C1729.87 198.39 1731.42 199.945 1733.39 199.956C1735.36 199.97 1736.9 198.46 1736.91 196.505C1736.93 194.561 1735.38 192.992 1733.43 192.978C1731.51 192.967 1729.9 194.536 1729.89 196.457H1729.89Z" fill="#328FB8"/>
<path d="M1816.21 249.228C1816.28 254.604 1820.85 259.098 1826.18 259.01C1831.61 258.918 1836.1 254.358 1835.97 249.063C1835.85 243.705 1831.47 239.406 1826.11 239.388C1820.75 239.366 1816.15 243.937 1816.21 249.228ZM1820.61 249.353C1820.47 246.553 1822.91 243.937 1825.84 243.742C1828.73 243.551 1831.47 246.053 1831.6 249.023C1831.72 251.848 1829.3 254.443 1826.36 254.634C1823.46 254.825 1820.76 252.341 1820.61 249.35V249.353Z" fill="#328FB8"/>
<path d="M1677.36 249.158C1677.35 243.705 1672.91 239.322 1667.48 239.391C1662.05 239.461 1657.66 243.919 1657.71 249.32C1657.75 254.593 1662.24 259.01 1667.54 259.006C1673 259.003 1677.37 254.619 1677.36 249.158H1677.36ZM1672.97 249.276C1672.93 252.234 1670.51 254.634 1667.56 254.641C1664.55 254.652 1662.08 252.139 1662.12 249.103C1662.16 246.175 1664.62 243.738 1667.55 243.731C1670.56 243.724 1673 246.223 1672.97 249.276V249.276Z" fill="#328FB8"/>
<path d="M1675.09 113.074V107.749C1678.59 107.749 1681.97 107.819 1685.34 107.698C1686.12 107.669 1687.2 107.176 1687.57 106.559C1688.34 105.288 1687.28 104.034 1685.53 104.02C1681.52 103.987 1677.51 104.005 1673.5 104.005C1654.94 104.005 1636.37 104.005 1617.81 104.005C1617.44 104.005 1617.07 104.001 1616.69 104.012C1615.54 104.053 1614.81 104.63 1614.77 105.798C1614.73 107.062 1615.46 107.72 1616.72 107.727C1619.62 107.749 1622.52 107.738 1625.42 107.742C1626.08 107.742 1626.74 107.742 1627.52 107.742V113.203C1625.32 113.203 1623.18 113.203 1621.05 113.203C1616.85 113.203 1612.66 113.239 1608.47 113.162C1607.9 113.151 1607.09 112.703 1606.83 112.225C1604.67 108.231 1600.91 106.269 1596.96 107.195C1592.6 108.22 1590.01 111.586 1590.01 116.337C1590 132.443 1590.01 148.548 1590.01 164.654C1590.01 183.7 1590.01 202.745 1590.01 221.787C1590.01 222.275 1590.01 222.768 1590.01 223.256C1590.02 224.572 1590.49 225.623 1591.97 225.627C1593.5 225.63 1593.87 224.502 1593.91 223.227C1593.93 222.624 1593.91 222.025 1593.91 221.331H1599.2C1599.2 225.119 1599.31 228.838 1599.17 232.549C1599.05 235.471 1600.24 237.393 1602.76 238.807C1608.93 242.254 1615 245.881 1621.19 249.28C1622.58 250.041 1624.3 250.511 1625.88 250.548C1632.42 250.687 1638.96 250.606 1645.49 250.606C1646.16 250.606 1646.83 250.606 1647.59 250.606C1648.27 256.372 1650.65 261.13 1655.17 264.691C1658.98 267.69 1663.36 269.137 1668.22 268.99C1676.6 268.737 1685.98 262.828 1687.53 250.731H1806.16C1806.85 256.673 1809.45 261.582 1814.33 265.158C1817.91 267.781 1821.97 269.042 1826.42 269.001C1836.32 268.91 1842.69 263.038 1846.19 250.606C1847.76 250.606 1849.4 250.606 1851.04 250.606C1855.36 250.606 1859.68 250.621 1864 250.603C1867.75 250.584 1869.93 248.556 1869.98 244.87C1870.04 240.035 1869.99 235.195 1869.96 230.359C1869.95 227.931 1868.88 226.196 1866.62 225.101C1866.1 224.851 1865.61 223.955 1865.6 223.352C1865.51 216.741 1865.52 210.127 1865.5 203.513C1865.49 199.475 1864.65 198.291 1860.87 196.752C1851.47 192.923 1842.01 189.311 1831.89 187.745C1831.39 187.668 1830.74 187.205 1830.52 186.753C1825.19 175.538 1819.9 164.301 1814.61 153.068C1814.57 152.969 1814.61 152.833 1814.61 152.521C1815.27 152.521 1815.93 152.521 1816.58 152.521C1827.99 152.521 1839.41 152.517 1850.82 152.51C1854.99 152.51 1856.88 150.716 1857.23 146.59C1857.67 141.442 1856.24 136.65 1854.44 131.947C1851.49 124.263 1847.52 117.09 1843.16 110.12C1841.51 107.481 1839.03 106.445 1835.96 106.456C1827.21 106.489 1818.45 106.474 1809.69 106.474C1788.22 106.474 1766.76 106.555 1745.3 106.423C1735.23 106.36 1725.4 107.922 1715.68 110.142C1702.34 113.188 1688.86 113.629 1675.09 113.078V113.074ZM1861.13 208.977C1858.22 209.569 1854.33 207.632 1853.74 212.269H1759.97C1759.97 211.399 1759.97 210.623 1759.97 209.852C1759.97 192.643 1759.99 175.435 1759.97 158.227C1759.96 151.378 1755.66 147.126 1748.78 147.101C1743.9 147.082 1739.03 147.082 1734.16 147.101C1727.2 147.123 1722.86 151.448 1722.86 158.352C1722.86 175.56 1722.86 192.768 1722.86 209.977C1722.86 210.697 1722.86 211.413 1722.86 212.244H1608.96C1608.06 208.514 1608.01 208.481 1603.61 207.823C1603.61 207.195 1603.61 206.533 1603.61 205.872C1603.61 178.191 1603.61 150.511 1603.61 122.83C1603.61 118.773 1604.8 117.594 1608.89 117.594C1634.49 117.594 1660.09 117.498 1685.69 117.638C1695.98 117.693 1706.08 116.554 1716.12 114.445C1725.71 112.431 1735.32 110.671 1745.2 110.715C1765 110.803 1784.8 110.752 1804.6 110.755C1814.9 110.755 1825.2 110.763 1835.5 110.748C1837.11 110.748 1838.58 110.987 1839.51 112.501C1844.22 120.188 1848.72 128 1851.37 136.657C1852.29 139.645 1852.43 142.871 1852.83 145.998C1853.06 147.788 1852.06 148.174 1850.38 148.163C1837.49 148.1 1824.59 148.126 1811.7 148.133C1809.06 148.133 1808.05 149.474 1809.1 151.698C1815.12 164.485 1821.15 177.265 1827.26 190.009C1827.64 190.791 1828.73 191.607 1829.59 191.732C1840.16 193.283 1850.04 196.976 1859.8 201.066C1860.34 201.29 1861.05 201.907 1861.08 202.381C1861.22 204.56 1861.14 206.754 1861.14 208.973L1861.13 208.977ZM1689.48 246.179C1685.98 234.089 1678.64 227.688 1668.26 227.434C1663.35 227.313 1658.89 228.592 1654.88 231.407C1649.75 235.019 1646.86 240.042 1645.73 246.223C1638.78 246.223 1631.95 246.245 1625.11 246.186C1624.43 246.179 1623.72 245.752 1623.09 245.396C1617.33 242.111 1611.58 238.8 1605.82 235.497C1603.32 234.063 1603.07 233.387 1603.92 230.495C1606.59 230.361 1608.26 228.32 1608.93 224.374H1722.86C1722.86 226.791 1722.86 229.055 1722.86 231.319C1722.87 238.043 1727.13 242.324 1733.93 242.383C1738.86 242.427 1743.8 242.419 1748.74 242.394C1755.8 242.353 1759.95 238.197 1759.97 231.157C1759.98 228.908 1759.97 226.659 1759.97 224.318H1855.26C1855.38 224.881 1855.51 225.355 1855.59 225.836C1856.07 228.64 1856.77 229.257 1859.59 229.25C1861 229.25 1862.42 229.187 1863.83 229.099C1865.07 229.022 1865.66 229.511 1865.65 230.786C1865.62 235.379 1865.62 239.972 1865.65 244.565C1865.66 245.844 1865.06 246.281 1863.82 246.248C1861.79 246.19 1859.75 246.234 1857.72 246.234C1854.47 246.234 1851.22 246.234 1848.06 246.234C1843.91 233.828 1837.28 227.875 1827.5 227.46C1822.67 227.254 1818.18 228.265 1814.15 230.914C1808.63 234.545 1805.4 239.722 1804.27 246.186H1689.48V246.179ZM1727.28 194.83C1727.28 182.582 1727.27 170.339 1727.28 158.091C1727.28 153.91 1729.71 151.488 1733.92 151.473C1738.86 151.455 1743.79 151.459 1748.72 151.473C1753.21 151.484 1755.63 153.792 1755.63 158.246C1755.66 182.616 1755.66 206.982 1755.63 231.352C1755.63 235.699 1753.25 238.017 1748.85 238.065C1743.92 238.116 1738.98 238.105 1734.05 238.076C1729.6 238.05 1727.27 235.673 1727.27 231.205C1727.26 219.082 1727.27 206.96 1727.27 194.834L1727.28 194.83ZM1810.56 249.313C1810.52 240.766 1817.41 233.803 1825.94 233.755C1834.54 233.707 1841.6 240.549 1841.65 248.986C1841.71 257.618 1834.8 264.607 1826.17 264.625C1817.58 264.643 1810.6 257.798 1810.56 249.313H1810.56ZM1652.07 249.148C1652.1 240.601 1658.99 233.755 1667.57 233.755C1676.09 233.755 1683.1 240.678 1683.16 249.148C1683.21 257.64 1676.11 264.651 1667.48 264.621C1658.91 264.596 1652.05 257.698 1652.07 249.148ZM1722.8 219.714H1608.85V216.914H1722.79V219.714H1722.8ZM1760.07 216.874H1854.5L1854.82 219.674H1760.07V216.874H1760.07ZM1599.2 130.899H1593.98C1593.98 125.498 1593.91 120.258 1594.02 115.018C1594.07 112.784 1595.89 111.171 1598.21 110.851C1600.47 110.539 1602.38 111.762 1603.37 114.298C1599.85 116.433 1598.94 119.787 1599.18 123.701C1599.32 126.064 1599.2 128.441 1599.2 130.899ZM1649.21 113.081H1631.55V107.852H1649.21V113.081ZM1653.35 113.14V107.86H1670.9V113.14H1653.35V113.14ZM1599.03 178.088V195.763H1594.06V178.088H1599.03ZM1599.11 199.677V217.329H1594.05V199.677H1599.11ZM1599.06 156.581V174.087H1594.07V156.581H1599.06V156.581ZM1594.08 152.513V135.03H1599.06V152.513H1594.08ZM1860.85 224.778C1860.63 224.796 1860.4 224.814 1860.17 224.833C1859.23 221.188 1859.2 217.407 1858.68 213.603H1860.86V224.778H1860.85ZM1603.8 226.531V211.939C1605.13 212.901 1605.13 225.582 1603.8 226.531Z" fill="#328FB8"/>
</g>
<defs>
<filter id="filter0_f_20_1741" x="-6" y="211" width="734" height="148" filterUnits="userSpaceOnUse" color-interpolation-filters="sRGB">
<feFlood flood-opacity="0" result="BackgroundImageFix"/>
<feBlend mode="normal" in="SourceGraphic" in2="BackgroundImageFix" result="shape"/>
<feGaussianBlur stdDeviation="18.5" result="effect1_foregroundBlur_20_1741"/>
</filter>
<filter id="filter1_f_20_1741" x="1176" y="211" width="734" height="148" filterUnits="userSpaceOnUse" color-interpolation-filters="sRGB">
<feFlood flood-opacity="0" result="BackgroundImageFix"/>
<feBlend mode="normal" in="SourceGraphic" in2="BackgroundImageFix" result="shape"/>
<feGaussianBlur stdDeviation="18.5" result="effect1_foregroundBlur_20_1741"/>
</filter>
<clipPath id="clip0_20_1741">
<rect width="104" height="61" fill="white" transform="translate(383 204)"/>
</clipPath>
</defs>
</svg>
