<svg width="21" height="21" viewBox="0 0 21 21" fill="none" xmlns="http://www.w3.org/2000/svg">
<path d="M21 3.99457V16.1837C20.9769 16.317 20.9598 16.4517 20.9297 16.5832C20.6407 17.8404 19.6138 18.7288 18.3275 18.8034C17.3711 18.8591 16.5727 18.5042 15.9591 17.769C15.5379 17.2645 15.319 16.6731 15.3163 16.0111C15.3124 15.0565 15.314 14.1017 15.3138 13.1471C15.3136 12.0631 15.3104 10.9791 15.3154 9.89511C15.3174 9.47191 15.0123 9.17038 14.6094 9.19275C14.435 9.20234 14.2595 9.19389 14.0846 9.1948C14.0561 9.1948 14.0275 9.20097 14.0027 9.20393V18.7993C14.1314 18.8096 14.2531 18.8121 14.3724 18.8299C14.8399 18.8991 15.1903 19.2305 15.2887 19.6898C15.383 20.1308 15.188 20.593 14.7863 20.8331C14.6566 20.9107 14.5014 20.9454 14.3578 20.9998H0.958696C0.945685 20.9932 0.93313 20.9824 0.919207 20.9804C0.636163 20.9363 0.409272 20.7987 0.230772 20.5761C0.104543 20.4186 0.04725 20.2324 0 20.0413C0 19.95 0 19.8587 0 19.7674C0.00684783 19.7544 0.0171196 19.7418 0.0196304 19.7281C0.114815 19.2344 0.455609 18.8998 0.946141 18.8265C1.06118 18.8094 1.17851 18.8089 1.30565 18.8V18.6412C1.30565 13.0757 1.30565 7.51024 1.30634 1.94478C1.30634 1.82358 1.30839 1.70123 1.323 1.58093C1.40883 0.874696 1.78363 0.384391 2.44216 0.118011C2.58003 0.062087 2.73114 0.0385761 2.87609 0C6.05645 0 9.23703 0 12.4174 0C12.4386 0.00684783 12.4592 0.0173478 12.4808 0.020087C12.8956 0.0730435 13.2458 0.252457 13.5304 0.558554C13.8655 0.918978 14.0024 1.34948 14.0013 1.8375C13.9972 3.51887 14.0008 5.20024 13.9972 6.88138C13.9972 6.98341 14.0239 7.01195 14.1241 7.00738C14.3026 6.99939 14.4816 7.00738 14.6603 7.00464C15.0693 6.99848 15.4647 7.07677 15.829 7.25504C16.915 7.78689 17.4878 8.66912 17.4983 9.87616C17.5156 11.8769 17.5028 13.8778 17.5035 15.8787C17.5035 15.9545 17.4985 16.033 17.5156 16.1056C17.5975 16.4551 17.8963 16.6582 18.2549 16.6156C18.5711 16.5779 18.8089 16.2944 18.8089 15.9529C18.8089 12.7157 18.8089 9.47876 18.8089 6.24157V6.12378C18.4401 6.12378 18.0906 6.12766 17.7413 6.12196C17.5868 6.11945 17.4247 6.12355 17.2796 6.07973C16.6427 5.88799 16.414 5.0715 16.8482 4.5586C16.9682 4.41662 17.102 4.28628 17.2307 4.15161C17.4875 3.88295 17.7452 3.61497 18.0054 3.34334C17.9799 3.31435 17.9612 3.29084 17.9402 3.26984C17.4647 2.79368 16.9879 2.31867 16.5135 1.84115C16.0623 1.38691 16.086 0.689348 16.5622 0.262728C16.7288 0.113674 16.931 0.0479348 17.1424 0H17.3935C17.4028 0.00593478 17.4117 0.0162065 17.4216 0.0173478C17.6763 0.0518152 17.8842 0.172565 18.0609 0.355174C18.1903 0.488935 18.3234 0.619272 18.4556 0.750522C19.0942 1.38463 19.7347 2.01668 20.3707 2.65353C20.6099 2.89298 20.7898 3.17374 20.8845 3.50175C20.9313 3.66359 20.9619 3.83022 21 3.99457ZM7.65861 8.74285V8.74353C8.73874 8.74353 9.8191 8.7497 10.8992 8.74079C11.3939 8.73668 11.7892 8.34704 11.8022 7.84966C11.8196 7.1893 11.8148 6.52826 11.8159 5.86745C11.8168 5.35728 11.8123 4.84735 11.8104 4.33718C11.8088 3.92061 11.8162 3.50403 11.8034 3.08791C11.7881 2.58551 11.3706 2.19153 10.8657 2.1913C8.72413 2.19016 6.58259 2.18811 4.44127 2.19633C4.2856 2.19701 4.11554 2.25042 3.97745 2.32575C3.64966 2.50448 3.50152 2.80601 3.50084 3.17442C3.49833 4.65036 3.49947 6.12607 3.50038 7.602C3.50038 7.70814 3.50609 7.81451 3.51522 7.9202C3.55151 8.34567 3.9569 8.73851 4.38375 8.74079C5.47529 8.74673 6.56706 8.74285 7.65861 8.74285Z" fill="#C5C5C5"/>
</svg>
