<svg width="281" height="166" viewBox="0 0 281 166" fill="none" xmlns="http://www.w3.org/2000/svg">
<g opacity="0.34">
<path d="M34.0378 26.6575C34.0378 27.8812 33.9082 29.1268 34.0933 30.3247C34.1821 30.9127 34.8817 31.8901 35.2555 31.8644C36.8508 31.7652 38.9309 33.0145 39.8858 30.5011C39.9932 30.2145 40.974 30.1594 41.5514 30.1557C49.6314 30.1337 57.7113 30.141 65.7913 30.141C99.0993 30.141 132.411 30.141 165.719 30.1447C166.759 30.1447 167.551 30.1263 168.414 31.2801C169.002 32.0665 171.105 31.9305 172.492 31.8093C172.918 31.7725 173.488 30.4276 173.536 29.6523C173.677 27.4586 173.566 25.2465 173.595 23.0417C173.61 21.8144 173.051 21.1456 171.823 21.2595C170.32 21.3992 168.373 20.4511 167.681 22.8653C167.614 23.0895 166.556 23.0968 165.96 23.1005C151.28 23.1152 136.597 23.1152 121.918 23.1152C95.3314 23.1152 68.7449 23.1152 42.1621 23.1079C41.0443 23.1079 40.1931 23.1226 39.264 21.9099C38.657 21.1126 36.4547 21.3551 34.9927 21.469C34.6189 21.4984 34.1858 22.7845 34.0674 23.5378C33.9082 24.5556 34.0267 25.6139 34.0267 26.6538H34.0341L34.0378 26.6575Z" fill="#328FB8"/>
<path d="M77.6966 86.7404C85.3398 86.7404 92.983 86.7477 100.626 86.7367C106.278 86.7294 110.094 83.143 110.157 77.5172C110.257 69.073 110.242 60.6251 110.157 52.1809C110.105 46.9226 106.319 43.1414 101.004 43.1194C85.3472 43.0532 69.6907 43.0495 54.0342 43.1194C48.7154 43.1451 45.0585 46.9409 45.0289 52.2507C44.9845 60.6949 44.9808 69.1391 45.0289 77.587C45.0585 83.0658 48.8449 86.722 54.3932 86.733C62.1585 86.7477 69.9276 86.7367 77.6929 86.733L77.6966 86.7404ZM77.5412 82.3603C69.8943 82.3603 62.2474 82.3676 54.6005 82.3603C51.1694 82.3566 49.4038 80.7324 49.3816 77.3555C49.3298 69.0913 49.3335 60.8235 49.3816 52.5594C49.4001 49.1971 51.1953 47.4811 54.5634 47.4774C69.9202 47.4627 85.2769 47.4627 100.634 47.4774C103.939 47.4774 105.778 49.3184 105.786 52.6108C105.808 60.7537 105.812 68.8966 105.793 77.0395C105.786 80.7141 104.068 82.3566 100.304 82.3603C92.7202 82.3676 85.1325 82.3603 77.5486 82.3603H77.5412Z" fill="#328FB8"/>
<path d="M201.411 83.0322C207.637 83.0322 213.866 83.0395 220.092 83.0322C225.218 83.0248 227.509 79.5082 225.359 74.9334C221.535 66.7978 217.664 58.6843 213.885 50.5268C212.711 47.995 210.861 46.8448 208.081 46.8595C199.45 46.8963 190.818 46.8485 182.187 46.8816C178.282 46.8963 176.365 48.7556 176.339 52.6323C176.283 60.834 176.279 69.0357 176.331 77.2373C176.357 81.1103 178.419 83.0248 182.361 83.0285C188.712 83.0395 195.06 83.0285 201.411 83.0285V83.0322ZM201.334 78.6557C195.104 78.6557 188.875 78.608 182.649 78.6888C181.073 78.7072 180.636 78.1486 180.643 76.6678C180.695 68.8335 180.695 60.9957 180.643 53.1578C180.632 51.6144 181.206 51.1588 182.712 51.1661C191.037 51.2213 199.361 51.2176 207.685 51.1661C208.936 51.1588 209.558 51.6181 210.061 52.7021C213.781 60.6833 217.56 68.6388 221.306 76.609C222.113 78.325 221.905 78.6447 220.014 78.6484C213.785 78.6594 207.559 78.652 201.33 78.652L201.334 78.6557Z" fill="#328FB8"/>
<path d="M214.831 34.7443C220.502 34.7443 226.172 34.7554 231.843 34.7407C236.243 34.7296 238.301 32.6829 238.305 28.3542C238.305 26.5169 238.331 24.6833 238.286 22.846C238.212 19.741 235.914 17.3672 232.772 17.3562C220.816 17.3084 208.857 17.3121 196.902 17.3525C193.604 17.3635 191.365 19.6785 191.317 22.9305C191.287 24.8266 191.306 26.7227 191.31 28.6225C191.321 32.6204 193.393 34.7186 197.457 34.7407C203.25 34.7737 209.042 34.748 214.839 34.748L214.831 34.7443ZM214.768 21.7143C220.442 21.7143 226.12 21.762 231.791 21.6849C233.434 21.6628 234.015 22.2324 233.904 23.8198C233.808 25.2198 233.889 26.6345 233.886 28.0456C233.878 30.3018 233.752 30.4341 231.469 30.4377C222.586 30.4451 213.702 30.4414 204.823 30.4414C202.539 30.4414 200.256 30.3826 197.976 30.4598C196.362 30.5186 195.544 30.0482 195.688 28.2771C195.81 26.7558 195.792 25.2125 195.692 23.6875C195.592 22.1405 196.229 21.6702 197.739 21.6885C203.413 21.751 209.087 21.7143 214.765 21.7143H214.768Z" fill="#328FB8"/>
<path d="M139.889 92.4574C139.87 94.3903 141.421 95.9446 143.387 95.9556C145.359 95.9703 146.899 94.4601 146.914 92.5052C146.929 90.5613 145.382 88.9923 143.435 88.9776C141.506 88.9666 139.904 90.5356 139.885 92.4574H139.889Z" fill="#328FB8"/>
<path d="M226.213 145.228C226.276 150.604 230.854 155.098 236.184 155.01C241.61 154.918 246.1 150.358 245.974 145.063C245.848 139.705 241.466 135.406 236.11 135.388C230.751 135.366 226.153 139.937 226.213 145.228ZM230.61 145.353C230.469 142.553 232.908 139.937 235.836 139.742C238.734 139.551 241.466 142.053 241.595 145.023C241.717 147.848 239.297 150.443 236.358 150.634C233.464 150.825 230.762 148.341 230.61 145.35V145.353Z" fill="#328FB8"/>
<path d="M87.3594 145.158C87.3483 139.705 82.9104 135.322 77.4769 135.391C72.0471 135.461 67.661 139.919 67.7054 145.32C67.7535 150.593 72.2395 155.01 77.5435 155.006C82.9992 155.003 87.3705 150.619 87.3557 145.158H87.3594ZM82.9659 145.276C82.9289 148.234 80.5119 150.634 77.5583 150.641C74.5491 150.652 72.0804 148.139 72.1211 145.103C72.1581 142.175 74.6195 139.738 77.5509 139.731C80.5601 139.724 83.0029 142.223 82.9659 145.276V145.276Z" fill="#328FB8"/>
<path d="M85.0904 9.07397V3.74949C88.5918 3.74949 91.9711 3.81931 95.343 3.69805C96.124 3.66865 97.2011 3.17626 97.5749 2.55893C98.3448 1.28752 97.2825 0.0344862 95.5318 0.0197878C91.5233 -0.0132835 87.5147 0.00508946 83.5025 0.00508946C64.9368 0.00508946 46.371 0.00508946 27.8053 0.00508946C27.4351 0.00508946 27.065 0.00141487 26.6949 0.0124386C25.5364 0.0528591 24.8072 0.629769 24.7702 1.79829C24.7332 3.06235 25.4624 3.7201 26.7208 3.72745C29.6189 3.74949 32.517 3.73847 35.4189 3.74214C36.0777 3.74214 36.7402 3.74214 37.5212 3.74214V9.20258C35.3189 9.20258 33.1833 9.20258 31.0476 9.20258C26.854 9.20258 22.6568 9.23933 18.4669 9.16216C17.9043 9.15114 17.09 8.70284 16.8309 8.22514C14.6656 4.23086 10.9125 2.26863 6.96323 3.19463C2.59569 4.21984 0.00848753 7.58576 0.00848753 12.337C-0.00261638 28.4427 0.00848753 44.5484 0.00848753 60.6542C0.00848753 79.6995 0.00848753 98.7449 0.00848753 117.787C0.00848753 118.275 0.00848753 118.768 0.00848753 119.256C0.0232927 120.572 0.489656 121.623 1.97388 121.627C3.49512 121.63 3.86524 120.502 3.90965 119.227C3.92816 118.624 3.90965 118.025 3.90965 117.331H9.19881C9.19881 121.119 9.30986 124.838 9.16551 128.549C9.05077 131.471 10.2352 133.393 12.7595 134.807C18.9258 138.254 24.996 141.881 31.1883 145.28C32.5763 146.041 34.3011 146.511 35.8815 146.548C42.418 146.687 48.9582 146.606 55.4947 146.606C56.161 146.606 56.8309 146.606 57.5934 146.606C58.2744 152.372 60.6507 157.13 65.1737 160.691C68.9823 163.69 73.3609 165.137 78.2208 164.99C86.5968 164.737 95.9833 158.828 97.5342 146.731H216.157C216.846 152.673 219.448 157.582 224.326 161.158C227.905 163.781 231.969 165.042 236.422 165.001C246.323 164.91 252.689 159.038 256.191 146.606C257.76 146.606 259.403 146.606 261.043 146.606C265.362 146.606 269.678 146.621 273.998 146.603C277.751 146.584 279.927 144.556 279.979 140.87C280.042 136.035 279.986 131.195 279.96 126.359C279.949 123.931 278.876 122.196 276.618 121.101C276.1 120.851 275.611 119.955 275.604 119.352C275.511 112.741 275.523 106.127 275.5 99.5129C275.489 95.4745 274.653 94.2913 270.87 92.7517C261.472 88.9228 252.008 85.3106 241.892 83.7453C241.385 83.6681 240.741 83.2051 240.523 82.7531C235.189 71.5383 229.904 60.3014 224.615 49.0682C224.57 48.969 224.607 48.833 224.607 48.5207C225.274 48.5207 225.929 48.5207 226.584 48.5207C237.995 48.5207 249.406 48.517 260.817 48.5096C264.992 48.5096 266.876 46.7164 267.228 42.5899C267.668 37.4418 266.243 32.6501 264.437 27.9467C261.487 20.2631 257.516 13.0903 253.159 6.1196C251.508 3.48125 249.032 2.44502 245.964 2.45604C237.207 2.48911 228.446 2.47441 219.688 2.47441C198.224 2.47441 176.761 2.55525 155.297 2.42297C145.233 2.3605 135.402 3.9222 125.679 6.14165C112.339 9.18788 98.8555 9.62883 85.0904 9.07765V9.07397ZM271.133 104.977C268.22 105.569 264.326 103.632 263.745 108.269H169.972C169.972 107.399 169.972 106.623 169.972 105.852C169.972 88.6435 169.987 71.4354 169.969 54.2273C169.961 47.3779 165.657 43.1264 158.776 43.1007C153.901 43.0823 149.03 43.0823 144.156 43.1007C137.201 43.1227 132.859 47.4477 132.859 54.3522C132.856 71.5603 132.859 88.7684 132.859 105.977C132.859 106.697 132.859 107.413 132.859 108.244H18.9629C18.056 104.514 18.0116 104.481 13.6108 103.823C13.6108 103.195 13.6108 102.533 13.6108 101.872C13.6108 74.1913 13.6108 46.5107 13.6108 18.83C13.6108 14.7733 14.7989 13.5937 18.8925 13.5937C44.4908 13.5937 70.0927 13.4982 95.6909 13.6378C105.981 13.6929 116.078 12.5538 126.123 10.4446C135.706 8.43092 145.322 6.67079 155.197 6.71489C174.999 6.80308 194.797 6.75163 214.599 6.75531C224.9 6.75531 235.2 6.76266 245.501 6.74796C247.115 6.74796 248.577 6.98681 249.506 8.50074C254.222 16.188 258.722 24.0001 261.372 32.6575C262.287 35.6449 262.431 38.8712 262.834 41.9983C263.064 43.7878 262.057 44.1736 260.377 44.1626C247.485 44.1001 234.593 44.1259 221.702 44.1332C219.059 44.1332 218.052 45.4744 219.1 47.6976C225.118 60.4851 231.148 73.2653 237.262 86.0088C237.636 86.7915 238.728 87.6072 239.587 87.7322C250.157 89.2829 260.04 92.9758 269.804 97.0656C270.341 97.2898 271.051 97.9071 271.081 98.3811C271.218 100.56 271.14 102.754 271.14 104.973L271.133 104.977ZM99.4848 142.179C95.9759 130.089 88.6436 123.688 78.2578 123.434C73.3461 123.313 68.8861 124.592 64.8849 127.407C59.7475 131.019 56.8568 136.042 55.7279 142.223C48.7843 142.223 41.948 142.245 35.1079 142.186C34.4306 142.179 33.72 141.752 33.0944 141.396C27.3278 138.111 21.576 134.8 15.8205 131.497C13.3221 130.063 13.0667 129.387 13.918 126.495C16.5928 126.361 18.2646 124.32 18.9333 120.374H132.859C132.859 122.791 132.856 125.055 132.859 127.319C132.874 134.043 137.131 138.324 143.93 138.383C148.864 138.427 153.798 138.419 158.735 138.394C165.805 138.353 169.946 134.197 169.972 127.157C169.98 124.908 169.972 122.659 169.972 120.318H265.262C265.385 120.881 265.51 121.355 265.592 121.836C266.073 124.64 266.769 125.257 269.586 125.25C271 125.25 272.417 125.187 273.831 125.099C275.075 125.022 275.656 125.511 275.648 126.786C275.622 131.379 275.622 135.972 275.648 140.565C275.656 141.844 275.06 142.281 273.824 142.248C271.792 142.19 269.752 142.234 267.716 142.234C264.47 142.234 261.224 142.234 258.056 142.234C253.911 129.828 247.278 123.875 237.499 123.46C232.665 123.254 228.183 124.265 224.152 126.914C218.626 130.545 215.402 135.722 214.273 142.186H99.4848V142.179ZM137.275 90.8299C137.275 78.5825 137.268 66.3387 137.275 54.0913C137.275 49.9097 139.711 47.4881 143.923 47.4734C148.856 47.455 153.79 47.4587 158.724 47.4734C163.206 47.4844 165.627 49.7921 165.631 54.2457C165.657 78.6155 165.66 102.982 165.631 127.352C165.627 131.699 163.247 134.017 158.85 134.065C153.916 134.116 148.982 134.105 144.048 134.076C139.596 134.05 137.268 131.673 137.268 127.205C137.26 115.082 137.268 102.96 137.268 90.8335L137.275 90.8299ZM220.562 145.313C220.525 136.766 227.406 129.803 235.937 129.755C244.535 129.707 251.597 136.549 251.653 144.986C251.712 153.618 244.798 160.607 236.174 160.625C227.58 160.643 220.599 153.798 220.558 145.313H220.562ZM62.072 145.148C62.0979 136.601 68.9897 129.755 77.5693 129.755C86.0934 129.755 93.1 136.678 93.1555 145.148C93.211 153.64 86.1119 160.651 77.4768 160.621C68.912 160.596 62.0461 153.698 62.072 145.148ZM132.797 115.714H18.8481V112.914H132.793V115.714H132.797ZM170.072 112.874H264.5L264.822 115.674H170.069V112.874H170.072ZM9.20252 26.8994H3.98369C3.98369 21.4978 3.90595 16.2578 4.02069 11.0178C4.06881 8.78368 5.88615 7.17053 8.20686 6.85085C10.4684 6.53851 12.3819 7.76214 13.3665 10.2976C9.85395 12.4325 8.94342 15.7874 9.1766 19.7009C9.31725 22.0636 9.20252 24.4411 9.20252 26.8994ZM59.2108 9.08132H41.5482V3.85238H59.2108V9.08132ZM63.3489 9.14011V3.85973H80.9042V9.14011H63.3489V9.14011ZM9.03227 74.0884V91.7632H4.0614V74.0884H9.03227ZM9.10998 95.6766V113.329H4.0466V95.6766H9.10998ZM9.05816 52.5811V70.0868H4.07251V52.5811H9.05816V52.5811ZM4.07622 48.5133V31.0296H9.06186V48.5133H4.07622ZM270.851 120.778C270.626 120.796 270.396 120.814 270.17 120.833C269.227 117.188 269.201 113.407 268.675 109.603H270.855V120.778H270.851ZM13.7996 122.531V107.939C15.132 108.901 15.1283 121.582 13.7996 122.531Z" fill="#328FB8"/>
</g>
</svg>
