<svg width="25" height="21" viewBox="0 0 25 21" fill="none" xmlns="http://www.w3.org/2000/svg">
<path d="M24.3748 15.7498H21.0194C21.1594 15.3374 21.2497 14.8999 21.2497 14.4375V3.93756C21.2497 1.76621 19.5675 0 17.4996 0H3.7501C1.68212 0 0 1.76628 0 3.93756V14.4375C0 16.2141 1.1336 17.7018 2.67566 18.1903C3.14112 19.8098 4.55803 21 6.2501 21C7.87755 21 9.25219 19.8994 9.7698 18.375H14.9999V20.3437C14.9999 20.7061 15.2798 21 15.6249 21H16.875C17.2202 21 17.5001 20.7061 17.5001 20.3437L17.4999 18.375H24.3749C24.7201 18.375 25 18.0812 25 17.7187V16.4061C25.0002 16.0437 24.7204 15.7498 24.3752 15.7498L24.3748 15.7498ZM18.7497 3.93756V14.4375C18.7497 15.1611 18.1888 15.75 17.4996 15.75H16.8746L13.7498 15.7498V2.62525H17.4999C18.1888 2.62525 18.7497 3.21426 18.7497 3.93783L18.7497 3.93756ZM3.74974 2.62497H11.2494V7.87492H2.49926V3.93763C2.49926 3.21402 3.06023 2.62504 3.74936 2.62504L3.74974 2.62497ZM6.24974 18.3748C5.56058 18.3748 4.99964 17.7858 4.99964 17.0622C4.99964 16.3386 5.56062 15.7496 6.24974 15.7496C6.93886 15.7496 7.49983 16.3387 7.49983 17.0622C7.49959 17.7858 6.93886 18.3748 6.24974 18.3748Z" fill="#C6C6C6"/>
</svg>
