<svg width="17" height="18" viewBox="0 0 17 18" fill="none" xmlns="http://www.w3.org/2000/svg">
<path d="M13.5 1.8H12.6V0.9C12.6 0.661305 12.5052 0.432387 12.3364 0.263604C12.1676 0.0948211 11.9387 0 11.7 0C11.4613 0 11.2324 0.0948211 11.0636 0.263604C10.8948 0.432387 10.8 0.661305 10.8 0.9V1.8H5.4V0.9C5.4 0.661305 5.30518 0.432387 5.1364 0.263604C4.96761 0.0948211 4.7387 0 4.5 0C4.26131 0 4.03239 0.0948211 3.8636 0.263604C3.69482 0.432387 3.6 0.661305 3.6 0.9V1.8H2.7C1.98392 1.8 1.29716 2.08446 0.790812 2.59081C0.284464 3.09716 0 3.78392 0 4.5V15.3C0 16.0161 0.284464 16.7028 0.790812 17.2092C1.29716 17.7155 1.98392 18 2.7 18H13.5C14.2161 18 14.9028 17.7155 15.4092 17.2092C15.9155 16.7028 16.2 16.0161 16.2 15.3V4.5C16.2 3.78392 15.9155 3.09716 15.4092 2.59081C14.9028 2.08446 14.2161 1.8 13.5 1.8ZM2.7 3.6H3.6V4.5C3.6 4.73869 3.69482 4.96761 3.8636 5.1364C4.03239 5.30518 4.26131 5.4 4.5 5.4C4.7387 5.4 4.96761 5.30518 5.1364 5.1364C5.30518 4.96761 5.4 4.73869 5.4 4.5V3.6H10.8V4.5C10.8 4.73869 10.8948 4.96761 11.0636 5.1364C11.2324 5.30518 11.4613 5.4 11.7 5.4C11.9387 5.4 12.1676 5.30518 12.3364 5.1364C12.5052 4.96761 12.6 4.73869 12.6 4.5V3.6H13.5C13.7387 3.6 13.9676 3.69482 14.1364 3.8636C14.3052 4.03239 14.4 4.2613 14.4 4.5V8.1H1.8V4.5C1.8 4.2613 1.89482 4.03239 2.0636 3.8636C2.23239 3.69482 2.46131 3.6 2.7 3.6ZM13.5 16.2H2.7C2.46131 16.2 2.23239 16.1052 2.0636 15.9364C1.89482 15.7676 1.8 15.5387 1.8 15.3V9.9H14.4V15.3C14.4 15.5387 14.3052 15.7676 14.1364 15.9364C13.9676 16.1052 13.7387 16.2 13.5 16.2Z" fill="#C9C9C9"/>
<path d="M4.50156 13.5002C4.99862 13.5002 5.40156 13.0973 5.40156 12.6002C5.40156 12.1031 4.99862 11.7002 4.50156 11.7002C4.00451 11.7002 3.60156 12.1031 3.60156 12.6002C3.60156 13.0973 4.00451 13.5002 4.50156 13.5002Z" fill="#C9C9C9"/>
<path d="M11.7031 11.7002H8.10313C7.86443 11.7002 7.63551 11.795 7.46673 11.9638C7.29795 12.1326 7.20312 12.3615 7.20312 12.6002C7.20312 12.8389 7.29795 13.0678 7.46673 13.2366C7.63551 13.4054 7.86443 13.5002 8.10313 13.5002H11.7031C11.9418 13.5002 12.1707 13.4054 12.3395 13.2366C12.5083 13.0678 12.6031 12.8389 12.6031 12.6002C12.6031 12.3615 12.5083 12.1326 12.3395 11.9638C12.1707 11.795 11.9418 11.7002 11.7031 11.7002Z" fill="#C9C9C9"/>
</svg>
