<svg width="158" height="138" viewBox="0 0 158 138" fill="none" xmlns="http://www.w3.org/2000/svg">
<g opacity="0.36">
<g opacity="0.73">
<path fill-rule="evenodd" clip-rule="evenodd" d="M66.7661 90.383C99.2595 89.3628 162.835 70.3793 157.189 2.60627C127.88 -1.19425 68.7626 11.0404 66.7661 90.383ZM74.3434 81.3869C73.4733 67.2752 82.4318 37.4833 125.227 31.209C124.198 47.7233 112.582 80.8789 74.3434 81.3869Z" fill="#D7D7D7"/>
</g>
<g opacity="0.5">
<path fill-rule="evenodd" clip-rule="evenodd" d="M67.1477 93.36C68.0602 109.482 78.2806 140.812 111.862 137.162C113.383 122.561 106.569 93.36 67.1477 93.36ZM71.7146 97.007C78.7107 96.3986 93.6155 100.475 97.2656 121.646C89.0528 121.341 72.4446 115.988 71.7146 97.007Z" fill="#D7D7D7"/>
</g>
<g opacity="0.21">
<path fill-rule="evenodd" clip-rule="evenodd" d="M64.2168 90.2852C62.9118 67.2315 48.2967 22.4291 0.275473 27.6488C-1.8994 48.5276 7.84403 90.2852 64.2168 90.2852ZM57.6863 85.069C47.6819 85.939 26.3681 80.1103 21.1484 49.8361C32.8928 50.271 56.6424 57.9266 57.6863 85.069Z" fill="#D7D7D7"/>
</g>
</g>
</svg>
