<svg width="26" height="18" viewBox="0 0 26 18" fill="none" xmlns="http://www.w3.org/2000/svg">
<path d="M15.1523 10.4188V10.3765L14.8079 5.88706C14.8079 5.76 14.7649 5.67529 14.6358 5.59059C14.5497 5.50588 14.4205 5.46353 14.2914 5.46353H11.6225C11.4934 5.46353 11.4073 5.50588 11.2781 5.59059C11.149 5.67529 11.149 5.80235 11.106 5.88706L10.8477 10.3765V10.4188C10.8477 10.5459 10.8907 10.6306 10.9768 10.7153C11.0629 10.8 11.149 10.8424 11.2781 10.8424H14.7219C14.851 10.8424 14.9371 10.8 15.0232 10.7153C15.1093 10.6306 15.1523 10.5459 15.1523 10.4188ZM26 16.9835C26 17.6612 25.7848 18 25.3543 18H15.2815C15.4106 18 15.4967 17.9576 15.5828 17.8729C15.6689 17.7882 15.7119 17.6612 15.7119 17.5765L15.4106 13.9765C15.4106 13.8494 15.3676 13.7647 15.2384 13.68C15.1523 13.5953 15.0232 13.5529 14.894 13.5529H11.0199C10.8907 13.5529 10.8046 13.5953 10.6755 13.68C10.5894 13.7647 10.5464 13.8918 10.5033 13.9765L10.202 17.5765C10.202 17.7035 10.245 17.7882 10.3311 17.8729C10.4172 17.9576 10.5033 18 10.6325 18H0.645695C0.215232 18 0 17.6612 0 16.9835C0 16.4753 0.12914 15.9247 0.387418 15.3318L6.32782 0.677646C6.41391 0.508235 6.54305 0.338824 6.71523 0.211765C6.88742 0.0847059 7.0596 0 7.27484 0H12.1391C12.0099 0 11.9238 0.0423526 11.7947 0.127059C11.7086 0.211764 11.6656 0.338824 11.6225 0.423529L11.4073 3.13412C11.4073 3.26118 11.4503 3.38824 11.5364 3.47294C11.6225 3.55765 11.7086 3.6 11.8377 3.6H14.2053C14.3344 3.6 14.4205 3.55765 14.5066 3.47294C14.5927 3.38824 14.6358 3.26118 14.6358 3.13412L14.4205 0.423529C14.4205 0.296471 14.3775 0.211764 14.2483 0.127059C14.1192 0.0423526 14.0331 0 13.904 0H18.7682C18.9404 0 19.1556 0.0847059 19.3278 0.211765C19.5 0.338824 19.6291 0.508235 19.7152 0.677646L25.6126 15.3741C25.8709 15.9247 26 16.4753 26 16.9835Z" fill="#C5C5C5"/>
</svg>
